<svg xmlns="http://www.w3.org/2000/svg" viewBox="0 0 264.21 46.65"><defs><style>.cls-1{font-size:8.55px;fill:#ebebeb;font-family:Helvetica;}.cls-2{font-family:KozGoPr6N-Regular-83pv-RKSJ-H, Kozuka Gothic Pr6N;}.cls-3{fill:#ebebeb;}</style></defs><g id="レイヤー_2" data-name="レイヤー 2"><g id="レイヤー_1-2" data-name="レイヤー 1"><text class="cls-1" transform="translate(124.94 42.45)">DISIGN<tspan class="cls-2" x="29.47" y="0.18">＆</tspan><tspan x="38.02" y="0">FUTURE LABORATORYS</tspan></text><path class="cls-3" d="M5.8,5.15A17.2,17.2,0,0,1,18.63,0Q29.06,0,33.88,6.91a15.08,15.08,0,0,1,2.85,7.79H28a11.81,11.81,0,0,0-2.14-4.53Q23.55,7.45,19,7.45a8.53,8.53,0,0,0-7.36,3.84Q8.93,15.13,8.92,22.15t2.84,10.52A8.91,8.91,0,0,0,19,36.17a8.17,8.17,0,0,0,6.84-3A13.11,13.11,0,0,0,28,28.32h8.67a18.88,18.88,0,0,1-5.73,11.11A16.67,16.67,0,0,1,19.11,43.7q-8.91,0-14-5.78T0,22Q0,11.08,5.8,5.15Z"/><path class="cls-3" d="M57.29,5.15A17.2,17.2,0,0,1,70.12,0Q80.54,0,85.36,6.91a15,15,0,0,1,2.86,7.79H79.5a12,12,0,0,0-2.14-4.53Q75,7.45,70.45,7.45a8.51,8.51,0,0,0-7.35,3.84q-2.68,3.84-2.69,10.86t2.84,10.52a8.91,8.91,0,0,0,7.22,3.5,8.17,8.17,0,0,0,6.84-3,13.11,13.11,0,0,0,2.16-4.85h8.67a18.88,18.88,0,0,1-5.73,11.11A16.69,16.69,0,0,1,70.6,43.7q-8.91,0-14-5.78T51.49,22Q51.49,11.08,57.29,5.15Z"/><path class="cls-3" d="M132.81,24.47q-3.66,3.06-10.47,3.06h-8.69v15H105V.79h17.92q6.2,0,9.89,3.23t3.68,10Q136.48,21.42,132.81,24.47Zm-6.65-15A7.09,7.09,0,0,0,121.51,8h-7.86v12.3h7.86a6.66,6.66,0,0,0,4.65-1.51q1.65-1.5,1.65-4.75T126.16,9.43Z"/><circle class="cls-3" cx="44.29" cy="38.66" r="4.29"/><circle class="cls-3" cx="96.19" cy="38.66" r="4.29"/></g></g></svg>