<?xml version="1.0" encoding="UTF-8"?><svg id="_レイヤー_2" xmlns="http://www.w3.org/2000/svg" viewBox="0 0 245.79 43.72"><defs><style>.cls-1{fill:#ebebeb;}.cls-2{isolation:isolate;}</style></defs><g id="_レイヤー_1-2"><g id="_レイヤー_2-2"><g id="uuid-48e402c3-d108-49ca-a862-879d6203774c"><g class="cls-2"><g class="cls-2"><path class="cls-1" d="M108.72,36.33h2.45c.83,0,1.48.3,1.94.9.41.54.61,1.23.61,2.08,0,.65-.12,1.24-.36,1.77-.43.93-1.16,1.39-2.2,1.39h-2.44v-6.13ZM111.01,41.75c.27,0,.5-.03.68-.09.32-.11.57-.32.78-.63.16-.25.28-.56.35-.95.04-.23.06-.45.06-.64,0-.76-.15-1.35-.44-1.77-.29-.42-.77-.63-1.43-.63h-1.44v4.71h1.45Z"/><path class="cls-1" d="M115.05,36.33h.84v6.13h-.84v-6.13Z"/><path class="cls-1" d="M117.78,40.48c.02.35.1.63.24.85.27.41.73.61,1.4.61.3,0,.57-.04.82-.13.48-.17.72-.48.72-.93,0-.33-.1-.57-.3-.71-.21-.14-.53-.26-.96-.36l-.8-.19c-.53-.12-.9-.26-1.12-.4-.38-.26-.57-.64-.57-1.15,0-.55.19-1,.56-1.36s.9-.53,1.58-.53c.63,0,1.16.16,1.59.47.44.31.66.81.66,1.49h-.78c-.04-.33-.13-.58-.26-.76-.24-.32-.65-.48-1.24-.48-.47,0-.81.1-1.01.31-.21.21-.31.45-.31.72,0,.3.12.52.36.66.16.09.52.2,1.08.33l.83.2c.4.09.71.22.93.39.38.29.57.7.57,1.25,0,.68-.24,1.17-.72,1.46-.48.29-1.04.44-1.68.44-.74,0-1.33-.2-1.75-.58-.42-.39-.63-.91-.62-1.57h.78Z"/><path class="cls-1" d="M123.13,36.33h.84v6.13h-.84v-6.13Z"/><path class="cls-1" d="M129.4,36.5c.6.32.97.88,1.1,1.68h-.82c-.1-.45-.3-.77-.61-.98-.31-.21-.7-.31-1.17-.31-.56,0-1.02.21-1.4.64-.38.43-.57,1.06-.57,1.9,0,.73.16,1.32.47,1.78.31.46.83.69,1.53.69.54,0,.99-.16,1.35-.48s.54-.84.55-1.56h-1.92v-.69h2.69v3.28h-.53l-.2-.79c-.28.31-.52.52-.73.64-.36.21-.81.31-1.37.31-.71,0-1.33-.24-1.84-.71-.56-.59-.84-1.4-.84-2.43s.27-1.84.82-2.45c.52-.58,1.2-.87,2.02-.87.57,0,1.06.11,1.47.33Z"/><path class="cls-1" d="M131.96,36.33h.98l3.06,4.96v-4.96h.79v6.13h-.93l-3.1-4.95v4.95h-.79v-6.13Z"/></g><g class="cls-2"><path class="cls-1" d="M143.97,42.82c-.24-.21-.48-.42-.78-.73-.75.65-1.39.83-2.13.83-1.04,0-1.92-.73-1.92-1.8,0-.99.65-1.53,1.37-1.89v-.03c-.41-.52-.59-1.01-.59-1.42,0-.79.58-1.55,1.58-1.55.79,0,1.33.55,1.33,1.3,0,.7-.39,1.22-1.62,1.78v.03c.79.9,1.6,1.75,2.02,2.14.3-.35.52-.89.72-2.04h.46c-.21,1.18-.5,1.94-.91,2.34.38.37.75.73,1.11,1.04h-.64ZM142.93,41.8c-.26-.22-1.22-1.21-2.17-2.29-.41.21-1.13.66-1.13,1.54s.68,1.46,1.57,1.46c.73,0,1.33-.31,1.73-.71ZM140.4,37.75c0,.56.3.94.56,1.29.83-.39,1.41-.78,1.41-1.44,0-.46-.27-.97-.93-.97-.71,0-1.04.56-1.04,1.13Z"/></g><g class="cls-2"><path class="cls-1" d="M146.78,36.33h4.25v.75h-3.42v1.86h3.01v.73h-3.01v2.79h-.83v-6.13Z"/><path class="cls-1" d="M152.83,36.33v3.79c0,.45.08.82.25,1.11.25.45.67.67,1.26.67.71,0,1.19-.24,1.45-.72.14-.26.21-.61.21-1.06v-3.79h.84v3.44c0,.75-.1,1.33-.31,1.74-.37.74-1.08,1.11-2.12,1.11s-1.74-.37-2.12-1.11c-.2-.41-.31-.99-.31-1.74v-3.44h.84Z"/><path class="cls-1" d="M162.56,36.33v.73h-2.07v5.4h-.84v-5.4h-2.07v-.73h4.97Z"/><path class="cls-1" d="M164.22,36.33v3.79c0,.45.08.82.25,1.11.25.45.67.67,1.26.67.71,0,1.19-.24,1.45-.72.14-.26.21-.61.21-1.06v-3.79h.84v3.44c0,.75-.1,1.33-.31,1.74-.37.74-1.08,1.11-2.12,1.11s-1.74-.37-2.12-1.11c-.2-.41-.31-.99-.31-1.74v-3.44h.84Z"/><path class="cls-1" d="M169.6,36.33h2.79c.46,0,.84.07,1.14.21.57.26.85.74.85,1.45,0,.37-.08.67-.23.9-.15.23-.36.42-.64.56.24.1.42.23.54.38.12.16.19.42.2.77l.03.82c0,.23.03.41.06.52.05.2.14.32.27.38v.14h-1.02c-.03-.05-.05-.12-.07-.2-.02-.08-.03-.25-.04-.48l-.05-1.02c-.02-.4-.16-.67-.43-.81-.15-.08-.4-.11-.73-.11h-1.84v2.63h-.83v-6.13ZM172.3,39.14c.38,0,.68-.08.9-.23.22-.16.33-.44.33-.84,0-.44-.15-.73-.46-.89-.17-.08-.39-.12-.66-.12h-1.97v2.1h1.87Z"/><path class="cls-1" d="M175.75,36.33h4.45v.75h-3.64v1.86h3.36v.71h-3.36v2.08h3.7v.73h-4.51v-6.13Z"/><path class="cls-1" d="M183.75,36.33h.83v5.4h3.08v.73h-3.91v-6.13Z"/><path class="cls-1" d="M190.29,36.33h.94l2.23,6.13h-.91l-.62-1.84h-2.43l-.66,1.84h-.85l2.31-6.13ZM191.66,39.94l-.93-2.71-.99,2.71h1.92Z"/><path class="cls-1" d="M194.19,36.33h2.65c.72,0,1.24.21,1.54.64.18.25.27.55.27.88,0,.39-.11.7-.33.95-.11.13-.28.25-.49.36.31.12.55.25.71.41.28.27.41.64.41,1.11,0,.4-.12.75-.37,1.07-.37.48-.96.72-1.78.72h-2.61v-6.13ZM196.53,38.92c.35,0,.63-.05.83-.15.31-.15.46-.43.46-.83s-.16-.67-.49-.81c-.19-.08-.46-.12-.83-.12h-1.5v1.9h1.53ZM196.81,41.75c.51,0,.88-.15,1.1-.44.14-.19.21-.41.21-.68,0-.45-.2-.75-.6-.91-.21-.09-.5-.13-.85-.13h-1.67v2.16h1.81Z"/><path class="cls-1" d="M204.97,37.2c.41.54.61,1.24.61,2.08,0,.92-.23,1.68-.7,2.28-.54.71-1.32,1.07-2.33,1.07-.94,0-1.68-.31-2.22-.94-.48-.6-.72-1.36-.72-2.28,0-.83.21-1.54.62-2.13.53-.76,1.31-1.14,2.35-1.14s1.88.35,2.41,1.04ZM204.23,41.11c.33-.53.49-1.13.49-1.81,0-.72-.19-1.3-.57-1.74-.38-.44-.89-.66-1.55-.66s-1.15.22-1.55.65c-.4.44-.6,1.08-.6,1.93,0,.68.17,1.25.52,1.72.34.47.9.7,1.67.7s1.26-.26,1.59-.79Z"/><path class="cls-1" d="M206.66,36.33h2.79c.46,0,.84.07,1.14.21.57.26.85.74.85,1.45,0,.37-.08.67-.23.9-.15.23-.36.42-.64.56.24.1.42.23.54.38.12.16.19.42.2.77l.03.82c0,.23.03.41.06.52.05.2.14.32.27.38v.14h-1.02c-.03-.05-.05-.12-.07-.2-.02-.08-.03-.25-.04-.48l-.05-1.02c-.02-.4-.16-.67-.43-.81-.15-.08-.4-.11-.73-.11h-1.84v2.63h-.83v-6.13ZM209.36,39.14c.38,0,.68-.08.9-.23.22-.16.33-.44.33-.84,0-.44-.15-.73-.46-.89-.17-.08-.39-.12-.66-.12h-1.97v2.1h1.87Z"/><path class="cls-1" d="M214.52,36.33h.94l2.23,6.13h-.91l-.62-1.84h-2.43l-.66,1.84h-.85l2.31-6.13ZM215.89,39.94l-.93-2.71-.99,2.71h1.92Z"/><path class="cls-1" d="M222.27,36.33v.73h-2.07v5.4h-.84v-5.4h-2.07v-.73h4.97Z"/><path class="cls-1" d="M227.94,37.2c.41.54.61,1.24.61,2.08,0,.92-.23,1.68-.7,2.28-.54.71-1.32,1.07-2.33,1.07-.94,0-1.68-.31-2.22-.94-.48-.6-.72-1.36-.72-2.28,0-.83.21-1.54.62-2.13.53-.76,1.31-1.14,2.35-1.14s1.88.35,2.41,1.04ZM227.2,41.11c.33-.53.49-1.13.49-1.81,0-.72-.19-1.3-.57-1.74-.38-.44-.89-.66-1.55-.66s-1.15.22-1.55.65c-.4.44-.6,1.08-.6,1.93,0,.68.17,1.25.52,1.72.34.47.9.7,1.67.7s1.26-.26,1.59-.79Z"/><path class="cls-1" d="M229.63,36.33h2.79c.46,0,.84.07,1.14.21.57.26.85.74.85,1.45,0,.37-.08.67-.23.9-.15.23-.36.42-.64.56.24.1.42.23.54.38.12.16.19.42.2.77l.03.82c0,.23.03.41.06.52.05.2.14.32.27.38v.14h-1.02c-.03-.05-.05-.12-.07-.2-.02-.08-.03-.25-.04-.48l-.05-1.02c-.02-.4-.16-.67-.43-.81-.15-.08-.4-.11-.73-.11h-1.84v2.63h-.83v-6.13ZM232.33,39.14c.38,0,.68-.08.9-.23.22-.16.33-.44.33-.84,0-.44-.15-.73-.46-.89-.17-.08-.39-.12-.66-.12h-1.97v2.1h1.87Z"/><path class="cls-1" d="M235.08,36.33h.97l1.76,2.95,1.76-2.95h.98l-2.32,3.66v2.47h-.83v-2.47l-2.32-3.66Z"/><path class="cls-1" d="M241.8,40.48c.02.35.1.63.24.85.27.41.73.61,1.4.61.3,0,.57-.04.82-.13.48-.17.72-.48.72-.93,0-.33-.1-.57-.3-.71-.21-.14-.53-.26-.96-.36l-.8-.19c-.53-.12-.9-.26-1.12-.4-.38-.26-.57-.64-.57-1.15,0-.55.19-1,.56-1.36s.9-.53,1.58-.53c.62,0,1.16.16,1.59.47.44.31.66.81.66,1.49h-.78c-.04-.33-.13-.58-.26-.76-.24-.32-.65-.48-1.24-.48-.47,0-.81.1-1.01.31-.21.21-.31.45-.31.72,0,.3.12.52.36.66.16.09.52.2,1.08.33l.83.2c.4.09.71.22.93.39.38.29.57.7.57,1.25,0,.68-.24,1.17-.72,1.46s-1.04.44-1.68.44c-.74,0-1.33-.2-1.75-.58-.42-.39-.63-.91-.62-1.57h.78Z"/></g></g><path class="cls-1" d="M5.8,5.16C9.17,1.72,13.82-.14,18.63,0,25.58,0,30.67,2.31,33.88,6.92c1.66,2.28,2.65,4.98,2.85,7.79h-8.73c-.38-1.65-1.11-3.19-2.14-4.53-1.54-1.81-3.83-2.72-6.86-2.72-2.95-.08-5.74,1.37-7.36,3.84-1.81,2.56-2.71,6.18-2.72,10.86s.94,8.19,2.84,10.52c1.72,2.25,4.41,3.55,7.24,3.5,2.63.16,5.18-.96,6.84-3,1.04-1.45,1.78-3.1,2.16-4.85h8.67c-.59,4.25-2.61,8.16-5.73,11.11-3.23,2.91-7.48,4.45-11.83,4.27-5.94,0-10.61-1.93-14-5.78S.01,28.77,0,22.01C0,14.73,1.93,9.11,5.8,5.16Z"/><path class="cls-1" d="M57.29,5.16C60.66,1.72,65.31-.14,70.12,0c6.95,0,12.03,2.3,15.24,6.91,1.67,2.28,2.66,4.98,2.86,7.79h-8.72c-.39-1.64-1.12-3.19-2.14-4.53-1.57-1.81-3.88-2.72-6.91-2.72-2.95-.08-5.73,1.37-7.35,3.84-1.79,2.56-2.68,6.18-2.69,10.86,0,4.68.94,8.19,2.84,10.52,1.72,2.25,4.39,3.54,7.22,3.5,2.63.16,5.18-.96,6.84-3,1.04-1.45,1.78-3.1,2.16-4.85h8.67c-.59,4.25-2.61,8.16-5.73,11.11-3.23,2.91-7.47,4.44-11.81,4.27-5.94,0-10.61-1.93-14-5.78s-5.1-9.16-5.11-15.92c0-7.28,1.93-12.9,5.8-16.85Z"/><circle class="cls-1" cx="44.29" cy="38.67" r="4.29"/><circle class="cls-1" cx="96.19" cy="38.67" r="4.29"/></g></g></g></svg>