<?xml version="1.0" encoding="utf-8"?>
<!-- Generator: Adobe Illustrator 26.0.1, SVG Export Plug-In . SVG Version: 6.00 Build 0)  -->
<svg version="1.1" id="レイヤー_1" xmlns="http://www.w3.org/2000/svg" xmlns:xlink="http://www.w3.org/1999/xlink" x="0px"
	 y="0px" viewBox="0 0 470 50" style="enable-background:new 0 0 470 50;" xml:space="preserve">
<style type="text/css">
	.st0{enable-background:new    ;}
	.st1{fill:none;stroke:#444444;}
</style>
<g id="グループ_351" transform="translate(-75 -1483.342)">
	<g class="st0">
		<path class="st1" d="M214.5,1500.1c2.4-0.2,8.3-0.8,14.4-1.3c3.5-0.3,6.8-0.5,9.1-0.6v3.3c-1.8,0-4.7,0-6.4,0.5
			c-4.4,1.3-7.3,6-7.3,9.9c0,6,5.6,8,11.1,8.3l-1.2,3.5c-6.5-0.3-13.2-3.8-13.2-11.1c0-5,2.9-9,5.6-10.7c-3.3,0.3-11,1.1-14.7,1.9
			l-0.3-3.6C212.7,1500.2,213.9,1500.1,214.5,1500.1z M236,1509.7l-2,0.9c-0.8-1.7-1.6-3.2-2.6-4.6l2-0.9
			C234,1506.3,235.3,1508.3,236,1509.7z M239.7,1508.2l-2,1c-0.9-1.7-1.7-3.1-2.8-4.6l2-0.9C237.7,1504.9,239,1506.9,239.7,1508.2z"
			/>
	</g>
	<g class="st0">
		<path class="st1" d="M266.9,1498.8c-0.7,3.9-2.2,6.9-6.2,8.7c-0.3-0.6-0.9-1.4-1.5-1.9v16.1c0,1.3-0.3,2.2-1.2,2.6
			c-0.9,0.4-2.2,0.5-4.4,0.5c-0.1-0.7-0.6-1.9-1-2.6c1.6,0,3,0,3.4,0c0.4,0,0.6-0.2,0.6-0.6v-5.4h-7.3c-0.3,3.1-1,6.2-2.5,8.6
			c-0.5-0.4-1.6-1.1-2.2-1.4c2.2-3.5,2.4-8.3,2.4-12v-5.2l-0.3,0.4c-0.5-0.5-1.6-1.4-2.2-1.8c2.3-2.5,4-6.3,5-10.3l2.8,0.6
			c-0.2,0.8-0.5,1.6-0.7,2.4h3.5l0.4-0.1l1.8,1.1c-0.5,1.4-1.3,3-2,4.4h3.9v2.4c3.1-1.4,4.3-3.7,4.9-6.5H260v-2.5h14.4
			c0,0,0,0.7,0,1.1c-0.2,5.3-0.5,7.6-1.2,8.3c-0.5,0.6-1,0.8-1.9,0.9c-0.7,0.1-2,0.1-3.3,0c-0.1-0.8-0.3-1.8-0.7-2.5
			c1.2,0.1,2.2,0.1,2.7,0.1c0.4,0,0.7,0,0.9-0.3c0.4-0.4,0.6-1.7,0.8-5.1H266.9z M250.7,1500c-0.4,1-0.9,2-1.4,3h3.4
			c0.4-0.9,0.9-1.9,1.2-3H250.7z M249.6,1511.6c0,0.8,0,1.6,0,2.4h2.5v-3.3h-2.5V1511.6z M249.6,1508.4h2.5v-3.1h-2.5V1508.4z
			 M254.2,1508.4h2.5v-3.1h-2.5V1508.4z M256.7,1514v-3.3h-2.5v3.3H256.7z M275.3,1519h-6v5.8h-2.9v-5.8h-6.5v-2.7h6.5v-3.6h-3.2
			c-0.5,1.1-1,2.1-1.6,2.9c-0.5-0.4-1.7-1-2.3-1.2c1.4-1.8,2.3-4.5,2.8-7.3l2.5,0.5c-0.2,0.8-0.4,1.6-0.6,2.4h2.3v-3.2h2.9v3.2h5.4
			v2.6h-5.4v3.6h6V1519z"/>
		<path class="st1" d="M287,1509.5c-1.3-1.1-3.9-2.6-6-3.5l1.7-2.3c2,0.8,4.7,2.1,6.1,3.2L287,1509.5z M290,1513.9
			c-1.6,3.5-3.6,7.4-5.4,10.6l-2.6-1.9c1.6-2.5,3.9-6.8,5.7-10.6L290,1513.9z M288.7,1500.8c-1.2-1.2-3.8-2.7-5.8-3.7l1.7-2.2
			c2,0.8,4.6,2.2,5.9,3.4L288.7,1500.8z M302.8,1512.3c1.6,4.7,4.5,8.3,8.9,10c-0.7,0.6-1.7,1.8-2.1,2.7c-4.6-2.1-7.6-6-9.4-11.3
			c-1,4.3-3.5,8.3-9.1,11.3c-0.5-0.6-1.7-1.7-2.5-2.2c5.6-2.8,7.9-6.5,8.8-10.5h-7.2v-2.9h7.6c0.1-1.2,0.1-2.4,0.1-3.6v-3.2h-6v-2.9
			h6v-5.1h3v5.1h7.9v9.7h2.6v2.9H302.8z M300.9,1505.9c0,1.2,0,2.3-0.1,3.5h5v-6.8h-4.9V1505.9z"/>
	</g>
	<g class="st0">
		<path class="st1" d="M320.5,1500.1c2.4-0.2,8.3-0.8,14.4-1.3c3.5-0.3,6.8-0.5,9.1-0.6v3.3c-1.8,0-4.7,0-6.4,0.5
			c-4.4,1.3-7.3,6-7.3,9.9c0,6,5.6,8,11.1,8.3l-1.2,3.5c-6.5-0.3-13.2-3.8-13.2-11.1c0-5,2.9-9,5.6-10.7c-3.3,0.3-11,1.1-14.7,1.9
			l-0.3-3.6C318.7,1500.2,319.8,1500.1,320.5,1500.1z M341.9,1509.7l-2,0.9c-0.8-1.7-1.6-3.2-2.6-4.6l2-0.9
			C340,1506.3,341.2,1508.3,341.9,1509.7z M345.7,1508.2l-2,1c-0.9-1.7-1.7-3.1-2.8-4.6l2-0.9
			C343.7,1504.9,344.9,1506.9,345.7,1508.2z"/>
		<path class="st1" d="M363.6,1496.1l3.5-0.4c0.1,1.2,0.4,2.5,0.7,3.7c2.3-0.3,4.6-0.8,6.7-1.5l0.4,3c-1.8,0.5-4.1,1-6.3,1.3
			c0.2,0.7,0.4,1.4,0.7,1.9c0.2,0.6,0.4,1.2,0.7,1.8c2.7-0.3,4.9-0.9,6.5-1.4l0.5,3.1c-1.6,0.4-3.5,0.8-5.7,1.1
			c0.6,1.3,1.3,2.5,2,3.6c0.4,0.6,0.8,1.1,1.4,1.6l-1.6,2.4c-1.8-0.4-5.1-0.8-7.5-1l0.3-2.5c1.6,0.2,3.6,0.4,4.6,0.5
			c-0.9-1.4-1.6-2.8-2.2-4.2c-4,0.3-9.4,0.3-14.5,0l-0.2-3.1c5,0.5,9.7,0.5,13.4,0.2c-0.2-0.5-0.4-1-0.6-1.5
			c-0.3-0.9-0.5-1.6-0.8-2.3c-3.2,0.2-7.1,0.1-11.3-0.3l-0.2-3c3.9,0.4,7.5,0.6,10.6,0.4c0-0.1-0.1-0.2-0.1-0.3
			C364.3,1498.3,364,1497.2,363.6,1496.1z M357.5,1517.1c0,2.6,2.4,3.8,7.2,3.8c3.1,0,5.7-0.2,8.1-0.7l-0.2,3.3
			c-2.3,0.4-5.1,0.6-7.9,0.6c-6.5,0-10.4-1.9-10.4-6.4c0-2,0.6-3.5,1.4-5l3.2,0.6C358.1,1514.6,357.5,1515.7,357.5,1517.1z"/>
		<path class="st1" d="M390.1,1497.8c1.7,0,9.2-0.2,11-0.4c1.2-0.1,1.7-0.2,2.1-0.3l1.8,2.4c-0.7,0.4-1.4,0.9-2.1,1.4
			c-1.7,1.3-5.7,4.7-8.1,6.6c1.3-0.4,2.6-0.6,4-0.6c5.5,0,9.6,3.4,9.6,8c0,5.2-4.2,9-11.6,9c-4.6,0-7.6-2-7.6-5
			c0-2.4,2.2-4.7,5.4-4.7c4.1,0,6.4,2.6,6.9,5.8c2.3-1,3.5-2.8,3.5-5.2c0-3.1-3-5.3-7.2-5.3c-5.3,0-8.4,2.5-12.3,6.6l-2.4-2.4
			c2.6-2.1,6.7-5.6,8.6-7.2c1.8-1.5,5.7-4.7,7.3-6.1c-1.7,0.1-7.5,0.3-9.2,0.4c-0.8,0-1.7,0.1-2.4,0.2l-0.1-3.4
			C388.2,1497.8,389.3,1497.8,390.1,1497.8z M396.2,1521c0.8,0,1.6,0,2.3-0.1c-0.3-2.4-1.7-4.1-3.9-4.1c-1.4,0-2.4,0.9-2.4,1.9
			C392.2,1520.1,393.9,1521,396.2,1521z"/>
		<path class="st1" d="M420.8,1516c0,2.3,2.3,4,7.4,4c4.5,0,8.7-0.5,11.4-1.3l0,3.6c-2.6,0.7-6.7,1.2-11.3,1.2
			c-7.1,0-10.9-2.3-10.9-6.7c0-1.8,0.4-3.4,0.7-4.7l3.4,0.3C421,1513.7,420.8,1514.8,420.8,1516z M428.3,1499.2
			c3.2,0,6.8-0.2,9.2-0.5v3.4c-2.3,0.2-6.1,0.4-9.2,0.4c-3.4,0-6.2-0.2-8.9-0.4v-3.4C421.8,1499.1,424.9,1499.2,428.3,1499.2z"/>
		<path class="st1" d="M459.9,1505.9c2.9-1.7,6.2-3.4,7.9-4.3c1.1-0.6,1.9-1.1,2.6-1.7l1.8,3c-0.9,0.5-1.8,1-2.8,1.6
			c-2.2,1.1-6.6,3.2-9.7,5.2c-2.9,1.9-4.8,4-4.8,6.4c0,2.6,2.5,4.1,7.4,4.1c3.5,0,8-0.5,10.7-1.2l0,3.8c-2.6,0.5-6.3,0.8-10.5,0.8
			c-6.4,0-11.1-1.8-11.1-7.1c0-3.5,2.2-6.2,5.6-8.6c-1.5-2.8-3.2-6.5-4.7-10l3.3-1.4C456.9,1500,458.5,1503.3,459.9,1505.9z"/>
		<path class="st1" d="M490.4,1519.4c0,2.8-2.3,5.1-5.1,5.1c-2.8,0-5.2-2.3-5.2-5.1c0-2.8,2.3-5.2,5.2-5.2
			C488.1,1514.2,490.4,1516.6,490.4,1519.4z M488.4,1519.4c0-1.7-1.4-3.2-3.2-3.2s-3.2,1.4-3.2,3.2s1.4,3.2,3.2,3.2
			S488.4,1521.2,488.4,1519.4z"/>
	</g>
	<g class="st0">
		<path d="M80.6,1506.1h21.6c0.7,0,2.1-0.1,3-0.2v4.3c-0.8-0.1-2.1-0.1-3-0.1h-8c-0.2,3.4-0.9,6.2-2.1,8.5c-1.2,2.3-3.7,4.9-6.6,6.3
			l-3.9-2.8c2.3-0.9,4.7-2.8,6-4.7c1.4-2,1.9-4.5,2-7.3h-9.1c-1,0-2.2,0.1-3.2,0.1v-4.3C78.4,1506,79.6,1506.1,80.6,1506.1z
			 M84.8,1497.7h10.8c1.1,0,2.4-0.1,3.6-0.3v4.3c-1.1-0.1-2.4-0.1-3.6-0.1H84.8c-1.1,0-2.5,0-3.5,0.1v-4.3
			C82.3,1497.6,83.7,1497.7,84.8,1497.7z M103.7,1499.7l-2.6,1.2c-0.7-1.4-1.7-3.3-2.6-4.6l2.6-1.1
			C101.9,1496.4,103.1,1498.4,103.7,1499.7z M107.7,1498.1l-2.6,1.2c-0.7-1.4-1.7-3.3-2.6-4.6l2.6-1.1
			C105.9,1494.9,107.1,1497,107.7,1498.1z"/>
		<path d="M123.8,1524.9l-3.5-3.3c6.4-2.2,9.2-5.1,9.2-13.2v-1.3h-7.8v4.5c0,1.5,0.1,2.8,0.1,3.5h-4.6c0.1-0.7,0.2-2,0.2-3.5v-4.5
			h-2.8c-1.6,0-2.8,0.1-3.6,0.1v-4.5c0.6,0.1,1.9,0.3,3.6,0.3h2.8v-3.3c0-1-0.1-1.9-0.2-3h4.7c-0.1,0.6-0.2,1.7-0.2,3v3.2h7.8v-3.5
			c0-1.3-0.1-2.4-0.2-3.1h4.7c-0.1,0.7-0.2,1.7-0.2,3.1v3.5h2.4c1.7,0,2.7-0.1,3.6-0.2v4.4c-0.7-0.1-1.9-0.1-3.6-0.1h-2.5v1.1
			C133.8,1516.4,131.8,1521.4,123.8,1524.9z M138.4,1501.2l-2.3,0.7c-0.5-1.4-1.1-3.2-1.7-4.5l2.2-0.7
			C137.2,1498,138,1499.9,138.4,1501.2z M141.8,1500.1l-2.3,0.7c-0.5-1.4-1.1-3.2-1.8-4.5l2.2-0.7
			C140.6,1496.9,141.4,1498.8,141.8,1500.1z"/>
		<path d="M160.1,1503.6c3.4-2.1,7.2-5.4,9.3-8l3.6,3.4c-2.5,2.5-5.7,5-8.9,7.2v13.3c0,1.5,0.1,3.5,0.3,4.3h-5.2
			c0.1-0.8,0.2-2.9,0.2-4.3v-10.6c-3.4,1.8-7.6,3.6-11.7,4.8l-2.1-4.2C151.6,1508,156.4,1505.8,160.1,1503.6z"/>
		<path d="M192.4,1514.9c5.6-3.3,9.9-8.4,12-12.8l2.6,4.7c-2.5,4.5-6.9,9-12.2,12.2c-3.3,2-7.6,3.9-12.2,4.7l-2.8-4.4
			C184.9,1518.5,189.2,1516.8,192.4,1514.9z M192.4,1504.3l-3.4,3.4c-1.7-1.8-5.8-5.4-8.3-7.1l3.1-3.3
			C186.2,1498.8,190.5,1502.2,192.4,1504.3z"/>
	</g>
</g>
</svg>
