<?xml version="1.0" encoding="utf-8"?>
<!-- Generator: Adobe Illustrator 26.0.1, SVG Export Plug-In . SVG Version: 6.00 Build 0)  -->
<svg version="1.1" id="レイヤー_1" xmlns="http://www.w3.org/2000/svg" xmlns:xlink="http://www.w3.org/1999/xlink" x="0px"
	 y="0px" viewBox="0 0 458 46" style="enable-background:new 0 0 458 46;" xml:space="preserve">
<style type="text/css">
	.st0{enable-background:new    ;}
	.st1{fill:none;stroke:#444444;}
	.st2{fill:#464646;}
</style>
<g id="グループ_421" transform="translate(-67 -885.693)">
	<g class="st0">
		<path class="st1" d="M73.9,915.9c0,2.1,2.1,3.6,6.7,3.6c4.1,0,7.9-0.5,10.4-1.2v3.3c-2.3,0.6-6.1,1-10.3,1c-6.5,0-9.9-2.1-9.9-6.1
			c0-1.6,0.3-3.1,0.6-4.2l3.1,0.3C74.1,913.8,73.9,914.9,73.9,915.9z M80.8,900.7c2.9,0,6.1-0.2,8.4-0.4v3.1
			c-2.1,0.1-5.5,0.4-8.3,0.4c-3.1,0-5.7-0.1-8.1-0.3v-3.1C74.9,900.6,77.7,900.7,80.8,900.7z"/>
		<path class="st1" d="M111.9,900.9c-1.4,2.1-3.9,6.6-5.4,9.4c1.3-1,2.7-1.4,4-1.4c2.1,0,3.5,1.3,3.6,3.8c0.1,1.6,0,3.9,0.1,5.3
			c0.1,1.4,1,1.9,2.2,1.9c3,0,4.9-3.8,5.7-7.2l2.5,2.1c-1.6,5-4.2,8.4-8.7,8.4c-3.3,0-4.5-2-4.6-4c-0.1-1.7-0.1-4.1-0.2-5.5
			c-0.1-1.2-0.8-1.9-2-1.9c-2.2,0-4.3,2.3-5.4,4.7c-0.8,1.8-2,5.2-2.5,6.8l-3.3-1.1c2.2-6.1,8.6-18.3,10.2-21.2
			c0.4-0.8,0.8-1.6,1.3-2.6l3.4,1.3C112.6,899.8,112.2,900.3,111.9,900.9z"/>
		<path class="st1" d="M140.7,902.1c1.5-0.2,3-0.6,4.4-1l0.1,2.8c-1.5,0.4-3.4,0.8-5.4,1.1c-1.5,4.2-4.1,9.4-6.5,12.7l-2.9-1.5
			c2.5-2.9,5-7.6,6.3-10.9c-0.8,0-1.5,0.1-2.2,0.1c-1.1,0-2.4,0-3.6-0.1l-0.2-2.8c1.2,0.1,2.6,0.2,3.8,0.2c1,0,2,0,3.1-0.1
			c0.5-1.7,0.8-3.5,0.9-5.1l3.3,0.3C141.6,898.8,141.2,900.5,140.7,902.1z M148.9,910.5c0,1,0.1,2.7,0.2,4.4
			c2.6,0.9,4.7,2.4,6.2,3.8l-1.6,2.5c-1.2-1.1-2.7-2.4-4.5-3.4c0,0.3,0,0.6,0,0.8c0,2.5-1.5,4.6-5.5,4.6c-3.5,0-6.3-1.5-6.3-4.6
			c0-2.8,2.5-4.8,6.3-4.8c0.9,0,1.7,0.1,2.6,0.2c-0.1-2.4-0.2-5.2-0.3-7.2h2.9C148.8,908.3,148.8,909.3,148.9,910.5z M143.3,920.7
			c2.3,0,3-1.3,3-2.9c0-0.3,0-0.6,0-1c-0.9-0.2-1.8-0.4-2.8-0.4c-2,0-3.3,0.9-3.3,2.1C140.2,919.8,141.3,920.7,143.3,920.7z
			 M147.5,904l1.5-2.3c2.2,1,5.7,2.9,7.2,4l-1.7,2.5C152.9,906.8,149.5,904.9,147.5,904z"/>
	</g>
	<g class="st0">
		<path class="st1" d="M189.6,915.7h-3.1v5.2h-2.8v-1.3h-6.4v1.6c0,1.5-0.4,2.2-1.4,2.5c-1,0.4-2.6,0.4-5.1,0.4
			c-0.2-0.6-0.6-1.6-1-2.2c1.6,0.1,3.4,0.1,3.9,0c0.5,0,0.7-0.2,0.7-0.7v-1.6H165v-2.1h9.4v-1.9h-12v-2.2h12v-1.7h-9.1v-2h9.1V908
			h-8.3v-5.5h8.3V901H163v-2.2h11.4v-2.2h2.8v2.2H189v2.2h-11.7v1.5h8.7v5.5h-8.7v1.8h9.2v3.7h3.1V915.7z M174.5,906.2v-1.8h-5.6
			v1.8H174.5z M177.3,904.4v1.8h5.9v-1.8H177.3z M177.3,913.5h6.4v-1.7h-6.4V913.5z M183.7,915.7h-6.4v1.9h6.4V915.7z"/>
	</g>
	<g class="st0">
		<path class="st1" d="M198,901.4c2.2-0.2,7.5-0.7,13-1.2c3.2-0.3,6.2-0.5,8.3-0.5v3c-1.7,0-4.3,0-5.9,0.4c-4,1.2-6.6,5.5-6.6,9
			c0,5.5,5.1,7.3,10,7.5l-1.1,3.2c-5.9-0.3-12-3.4-12-10c0-4.5,2.7-8.2,5.1-9.8c-3,0.3-10,1-13.4,1.7l-0.3-3.3
			C196.3,901.6,197.4,901.5,198,901.4z M217.5,910.2l-1.9,0.8c-0.7-1.5-1.5-2.9-2.4-4.2l1.8-0.8C215.7,907.1,216.8,909,217.5,910.2z
			 M220.9,908.9l-1.8,0.9c-0.8-1.5-1.6-2.8-2.5-4.1l1.8-0.8C219,905.8,220.2,907.6,220.9,908.9z"/>
	</g>
	<g class="st0">
		<path class="st1" d="M254.5,897.9v26.2h-2.9v-1.3h-19.3v1.3h-2.8v-26.2H254.5z M251.6,920.2v-19.7h-19.3v19.7H251.6z M244.3,907.6
			c1.5,3.1,3.9,6,6.4,7.4c-0.6,0.5-1.4,1.4-1.8,2.1c-2.2-1.6-4.3-4.3-5.8-7.3v8.9h-2.6v-8.8c-1.5,3-3.5,5.6-5.7,7.2
			c-0.4-0.6-1.2-1.5-1.7-1.9c2.5-1.6,4.8-4.5,6.2-7.7h-5.5v-2.4h6.7v-3.8h2.6v3.8h7.1v2.4L244.3,907.6L244.3,907.6z"/>
	</g>
	<g class="st0">
		<path class="st1" d="M264.1,908.6c2.1-0.7,7.1-2.4,10.6-2.4c4.5,0,7.6,2.6,7.6,6.9c0,5.6-5.2,8.9-13.9,9.4l-1.3-2.9
			c6.7-0.2,12.1-2,12.1-6.6c0-2.4-1.9-4.2-4.7-4.2c-3.6,0-9.9,2.6-12.1,3.5l-1.3-3.1C262,909.2,263.2,908.9,264.1,908.6z"/>
		<path class="st1" d="M289.3,901.3c2.2-0.2,7.5-0.7,13-1.2c3.2-0.3,6.2-0.5,8.3-0.5v3c-1.7,0-4.3,0-5.8,0.5c-4,1.2-6.7,5.5-6.7,9
			c0,5.5,5.1,7.3,10.1,7.5l-1.1,3.2c-5.9-0.3-12-3.4-12-10c0-4.5,2.7-8.2,5.1-9.7c-3,0.3-10,1-13.3,1.8l-0.3-3.3
			C287.7,901.4,288.8,901.4,289.3,901.3z"/>
		<path class="st1" d="M322.4,903.8c0,1.9,0,4.4,0.2,6.8c0.5,4.7,1.7,7.9,3.7,7.9c1.5,0,2.8-3.3,3.5-6l2.4,2.8
			c-1.9,5.1-3.8,6.9-5.9,6.9c-3,0-5.8-2.9-6.6-10.8c-0.3-2.6-0.3-6.2-0.3-8c0-0.8-0.1-2-0.2-2.8l3.7,0.1
			C322.5,901.4,322.4,903,322.4,903.8z M343.4,916.5l-3.1,1.2c-0.5-5.2-2.2-11.8-5.2-15.4l3-1C340.8,904.8,343,911.6,343.4,916.5z"
			/>
		<path class="st1" d="M363.8,899.7c0,0.4,0,0.9-0.1,1.6c2.6-0.1,5.2-0.4,7.9-0.8v2.8c-2.2,0.3-5,0.5-7.9,0.7c0,1.3,0,2.8,0,3.7
			c3-0.1,5.6-0.4,8.2-0.8v2.8c-2.8,0.3-5.2,0.5-8.1,0.7c0.1,1.4,0.2,2.8,0.2,4.2c3.9,1.1,6.9,3.2,8.6,4.6l-1.7,2.7
			c-1.7-1.6-4-3.3-6.7-4.4c0,0.6,0.1,1.1,0.1,1.6c0,2.3-1.7,4.3-5.6,4.3c-4.5,0-6.9-1.7-6.9-4.7c0-2.9,2.7-4.8,7.1-4.8
			c0.8,0,1.5,0.1,2.2,0.1c0-1.2-0.1-2.4-0.1-3.5c-0.5,0-1.1,0-1.7,0c-1.9,0-5.2-0.2-7.3-0.4v-2.8c2,0.3,5.6,0.5,7.4,0.5
			c0.5,0,1,0,1.5,0c0-1.2,0-2.5,0-3.7c-0.4,0-0.8,0-1.2,0c-2,0-5.6-0.3-7.5-0.5v-2.7c2,0.4,5.6,0.7,7.5,0.7c0.4,0,0.9,0,1.3,0
			c0-0.7,0-1.3,0-1.8s0-1.4-0.1-1.9h3.2C363.9,898.2,363.9,898.9,363.8,899.7z M358.3,920.6c1.7,0,3-0.5,3-2.4c0-0.4,0-1,0-1.7
			c-0.9-0.2-1.8-0.3-2.7-0.3c-2.6,0-3.9,1-3.9,2.2C354.5,919.7,355.7,920.6,358.3,920.6z"/>
		<path class="st1" d="M399.4,900.8c0,1.3,0,2.6-0.1,3.8c1-0.1,2-0.2,2.9-0.2c0.8,0,1.8-0.1,2.6-0.2v2.9c-0.5,0-1.8,0-2.6,0
			c-0.8,0-1.8,0.1-2.9,0.1c-0.1,2.3-0.2,4.8-0.5,6.2s-1,1.8-2.4,1.8c-1.1,0-3.3-0.3-4.2-0.4l0.1-2.6c1,0.2,2.2,0.4,2.9,0.4
			c0.7,0,1-0.1,1.1-0.8c0.2-0.9,0.2-2.6,0.3-4.3c-2.9,0.2-6.2,0.5-9,0.8c0,2.9-0.1,5.9,0,7.1c0.1,3.1,0.2,4,5.1,4
			c3.1,0,6.9-0.4,8.9-0.8l-0.1,3.2c-2,0.2-5.7,0.5-8.7,0.5c-7.3,0-8.1-1.6-8.2-6.6c0-1.3,0-4.4,0-7.3c-1.1,0.1-2,0.2-2.7,0.3
			c-0.9,0.1-2.5,0.3-3.3,0.5l-0.3-3.1c0.9,0,2.1-0.1,3.4-0.2c0.7-0.1,1.7-0.2,2.9-0.3c0-1.7,0-3.1,0-3.7c0-1-0.1-1.9-0.2-2.9h3.3
			c-0.1,0.8-0.1,1.6-0.1,2.7c0,0.8,0,2.1,0,3.5c2.8-0.3,6-0.6,9-0.8c0-1.3,0-2.7,0-3.9c0-0.7-0.1-1.9-0.2-2.5h3.2
			C399.5,898.9,399.4,900,399.4,900.8z"/>
		<path class="st1" d="M423.9,900.9c-1.4,2.1-3.9,6.6-5.4,9.4c1.3-1,2.7-1.4,4-1.4c2.1,0,3.5,1.3,3.6,3.8c0.1,1.6,0,3.9,0.1,5.3
			c0.1,1.4,1.1,1.9,2.2,1.9c3,0,4.9-3.8,5.7-7.2l2.5,2.1c-1.6,5-4.2,8.4-8.7,8.4c-3.3,0-4.5-2-4.6-4c-0.1-1.7-0.1-4.1-0.2-5.5
			c-0.1-1.2-0.8-1.9-2-1.9c-2.2,0-4.3,2.3-5.4,4.7c-0.8,1.8-2,5.2-2.5,6.8l-3.3-1.1c2.2-6.1,8.6-18.3,10.2-21.2
			c0.4-0.8,0.8-1.6,1.3-2.6l3.4,1.3C424.6,899.8,424.3,900.3,423.9,900.9z"/>
		<path class="st1" d="M452.5,900.2c-0.2,0.9-0.5,2.4-0.7,3.8c1.2-0.1,2.3-0.2,3-0.2c2.9,0,5.1,1.2,5.1,5.4c0,3.5-0.5,8.4-1.7,10.9
			c-1,2.1-2.5,2.6-4.6,2.6c-1.1,0-2.6-0.2-3.6-0.4l-0.5-3.1c1.2,0.4,2.9,0.6,3.7,0.6c1.1,0,1.9-0.3,2.5-1.4c0.9-1.9,1.3-5.7,1.3-8.8
			c0-2.6-1.2-3-3.1-3c-0.6,0-1.6,0.1-2.8,0.2c-1.1,4.4-3.2,11.3-6.2,16.1l-3.1-1.2c3-4,5.2-10.5,6.2-14.6c-1.4,0.1-2.6,0.3-3.3,0.4
			c-0.8,0.1-2.1,0.3-3,0.4l-0.3-3.2c1,0.1,1.9,0,2.9,0s2.6-0.2,4.3-0.3c0.4-2.2,0.7-4.5,0.7-6.4l3.5,0.4
			C452.8,898.8,452.7,899.6,452.5,900.2z M468.7,912.1l-3,1.4c-0.8-3.2-3.1-8.5-5.2-11.1l2.8-1.2
			C465.2,903.7,467.7,909.3,468.7,912.1z"/>
		<path class="st1" d="M482.3,919c0,2.6-2.1,4.7-4.7,4.7s-4.7-2.1-4.7-4.7s2.1-4.7,4.7-4.7C480.2,914.3,482.3,916.4,482.3,919z
			 M480.5,919c0-1.6-1.3-2.9-2.9-2.9s-2.9,1.3-2.9,2.9s1.3,2.9,2.9,2.9S480.5,920.6,480.5,919z"/>
	</g>
	<g class="st0">
		<path class="st2" d="M73.9,915.9c0,2.1,2.1,3.6,6.7,3.6c4.1,0,7.9-0.5,10.4-1.2v3.3c-2.3,0.6-6.1,1-10.3,1c-6.5,0-9.9-2.1-9.9-6.1
			c0-1.6,0.3-3.1,0.6-4.2l3.1,0.3C74.1,913.8,73.9,914.9,73.9,915.9z M80.8,900.7c2.9,0,6.1-0.2,8.4-0.4v3.1
			c-2.1,0.1-5.5,0.4-8.3,0.4c-3.1,0-5.7-0.1-8.1-0.3v-3.1C74.9,900.6,77.7,900.7,80.8,900.7z"/>
		<path class="st2" d="M111.9,900.9c-1.4,2.1-3.9,6.6-5.4,9.4c1.3-1,2.7-1.4,4-1.4c2.1,0,3.5,1.3,3.6,3.8c0.1,1.6,0,3.9,0.1,5.3
			c0.1,1.4,1,1.9,2.2,1.9c3,0,4.9-3.8,5.7-7.2l2.5,2.1c-1.6,5-4.2,8.4-8.7,8.4c-3.3,0-4.5-2-4.6-4c-0.1-1.7-0.1-4.1-0.2-5.5
			c-0.1-1.2-0.8-1.9-2-1.9c-2.2,0-4.3,2.3-5.4,4.7c-0.8,1.8-2,5.2-2.5,6.8l-3.3-1.1c2.2-6.1,8.6-18.3,10.2-21.2
			c0.4-0.8,0.8-1.6,1.3-2.6l3.4,1.3C112.6,899.8,112.2,900.3,111.9,900.9z"/>
		<path class="st2" d="M140.7,902.1c1.5-0.2,3-0.6,4.4-1l0.1,2.8c-1.5,0.4-3.4,0.8-5.4,1.1c-1.5,4.2-4.1,9.4-6.5,12.7l-2.9-1.5
			c2.5-2.9,5-7.6,6.3-10.9c-0.8,0-1.5,0.1-2.2,0.1c-1.1,0-2.4,0-3.6-0.1l-0.2-2.8c1.2,0.1,2.6,0.2,3.8,0.2c1,0,2,0,3.1-0.1
			c0.5-1.7,0.8-3.5,0.9-5.1l3.3,0.3C141.6,898.8,141.2,900.5,140.7,902.1z M148.9,910.5c0,1,0.1,2.7,0.2,4.4
			c2.6,0.9,4.7,2.4,6.2,3.8l-1.6,2.5c-1.2-1.1-2.7-2.4-4.5-3.4c0,0.3,0,0.6,0,0.8c0,2.5-1.5,4.6-5.5,4.6c-3.5,0-6.3-1.5-6.3-4.6
			c0-2.8,2.5-4.8,6.3-4.8c0.9,0,1.7,0.1,2.6,0.2c-0.1-2.4-0.2-5.2-0.3-7.2h2.9C148.8,908.3,148.8,909.3,148.9,910.5z M143.3,920.7
			c2.3,0,3-1.3,3-2.9c0-0.3,0-0.6,0-1c-0.9-0.2-1.8-0.4-2.8-0.4c-2,0-3.3,0.9-3.3,2.1C140.2,919.8,141.3,920.7,143.3,920.7z
			 M147.5,904l1.5-2.3c2.2,1,5.7,2.9,7.2,4l-1.7,2.5C152.9,906.8,149.5,904.9,147.5,904z"/>
	</g>
	<g class="st0">
		<path class="st1" d="M73.9,915.9c0,2.1,2.1,3.6,6.7,3.6c4.1,0,7.9-0.5,10.4-1.2v3.3c-2.3,0.6-6.1,1-10.3,1c-6.5,0-9.9-2.1-9.9-6.1
			c0-1.6,0.3-3.1,0.6-4.2l3.1,0.3C74.1,913.8,73.9,914.9,73.9,915.9z M80.8,900.7c2.9,0,6.1-0.2,8.4-0.4v3.1
			c-2.1,0.1-5.5,0.4-8.3,0.4c-3.1,0-5.7-0.1-8.1-0.3v-3.1C74.9,900.6,77.7,900.7,80.8,900.7z"/>
		<path class="st1" d="M111.9,900.9c-1.4,2.1-3.9,6.6-5.4,9.4c1.3-1,2.7-1.4,4-1.4c2.1,0,3.5,1.3,3.6,3.8c0.1,1.6,0,3.9,0.1,5.3
			c0.1,1.4,1,1.9,2.2,1.9c3,0,4.9-3.8,5.7-7.2l2.5,2.1c-1.6,5-4.2,8.4-8.7,8.4c-3.3,0-4.5-2-4.6-4c-0.1-1.7-0.1-4.1-0.2-5.5
			c-0.1-1.2-0.8-1.9-2-1.9c-2.2,0-4.3,2.3-5.4,4.7c-0.8,1.8-2,5.2-2.5,6.8l-3.3-1.1c2.2-6.1,8.6-18.3,10.2-21.2
			c0.4-0.8,0.8-1.6,1.3-2.6l3.4,1.3C112.6,899.8,112.2,900.3,111.9,900.9z"/>
		<path class="st1" d="M140.7,902.1c1.5-0.2,3-0.6,4.4-1l0.1,2.8c-1.5,0.4-3.4,0.8-5.4,1.1c-1.5,4.2-4.1,9.4-6.5,12.7l-2.9-1.5
			c2.5-2.9,5-7.6,6.3-10.9c-0.8,0-1.5,0.1-2.2,0.1c-1.1,0-2.4,0-3.6-0.1l-0.2-2.8c1.2,0.1,2.6,0.2,3.8,0.2c1,0,2,0,3.1-0.1
			c0.5-1.7,0.8-3.5,0.9-5.1l3.3,0.3C141.6,898.8,141.2,900.5,140.7,902.1z M148.9,910.5c0,1,0.1,2.7,0.2,4.4
			c2.6,0.9,4.7,2.4,6.2,3.8l-1.6,2.5c-1.2-1.1-2.7-2.4-4.5-3.4c0,0.3,0,0.6,0,0.8c0,2.5-1.5,4.6-5.5,4.6c-3.5,0-6.3-1.5-6.3-4.6
			c0-2.8,2.5-4.8,6.3-4.8c0.9,0,1.7,0.1,2.6,0.2c-0.1-2.4-0.2-5.2-0.3-7.2h2.9C148.8,908.3,148.8,909.3,148.9,910.5z M143.3,920.7
			c2.3,0,3-1.3,3-2.9c0-0.3,0-0.6,0-1c-0.9-0.2-1.8-0.4-2.8-0.4c-2,0-3.3,0.9-3.3,2.1C140.2,919.8,141.3,920.7,143.3,920.7z
			 M147.5,904l1.5-2.3c2.2,1,5.7,2.9,7.2,4l-1.7,2.5C152.9,906.8,149.5,904.9,147.5,904z"/>
	</g>
	<g class="st0">
		<path class="st2" d="M189.6,915.7h-3.1v5.2h-2.8v-1.3h-6.4v1.6c0,1.5-0.4,2.2-1.4,2.5c-1,0.4-2.6,0.4-5.1,0.4
			c-0.2-0.6-0.6-1.6-1-2.2c1.6,0.1,3.4,0.1,3.9,0c0.5,0,0.7-0.2,0.7-0.7v-1.6H165v-2.1h9.4v-1.9h-12v-2.2h12v-1.7h-9.1v-2h9.1V908
			h-8.3v-5.5h8.3V901H163v-2.2h11.4v-2.2h2.8v2.2H189v2.2h-11.7v1.5h8.7v5.5h-8.7v1.8h9.2v3.7h3.1V915.7z M174.5,906.2v-1.8h-5.6
			v1.8H174.5z M177.3,904.4v1.8h5.9v-1.8H177.3z M177.3,913.5h6.4v-1.7h-6.4V913.5z M183.7,915.7h-6.4v1.9h6.4V915.7z"/>
	</g>
	<g class="st0">
		<path class="st1" d="M189.6,915.7h-3.1v5.2h-2.8v-1.3h-6.4v1.6c0,1.5-0.4,2.2-1.4,2.5c-1,0.4-2.6,0.4-5.1,0.4
			c-0.2-0.6-0.6-1.6-1-2.2c1.6,0.1,3.4,0.1,3.9,0c0.5,0,0.7-0.2,0.7-0.7v-1.6H165v-2.1h9.4v-1.9h-12v-2.2h12v-1.7h-9.1v-2h9.1V908
			h-8.3v-5.5h8.3V901H163v-2.2h11.4v-2.2h2.8v2.2H189v2.2h-11.7v1.5h8.7v5.5h-8.7v1.8h9.2v3.7h3.1V915.7z M174.5,906.2v-1.8h-5.6
			v1.8H174.5z M177.3,904.4v1.8h5.9v-1.8H177.3z M177.3,913.5h6.4v-1.7h-6.4V913.5z M183.7,915.7h-6.4v1.9h6.4V915.7z"/>
	</g>
</g>
</svg>
