<?xml version="1.0" encoding="utf-8"?>
<!-- Generator: Adobe Illustrator 26.0.1, SVG Export Plug-In . SVG Version: 6.00 Build 0)  -->
<svg version="1.1" id="レイヤー_1" xmlns="http://www.w3.org/2000/svg" xmlns:xlink="http://www.w3.org/1999/xlink" x="0px"
	 y="0px" viewBox="0 0 577 50" style="enable-background:new 0 0 577 50;" xml:space="preserve">
<style type="text/css">
	.st0{enable-background:new    ;}
	.st1{fill:none;stroke:#444444;}
</style>
<g id="グループ_341" transform="translate(0.999 1)">
	<g class="st0">
		<path d="M4.6,21.7h21.6c0.7,0,2.1-0.1,3-0.2v4.3c-0.8-0.1-2.1-0.1-3-0.1h-8c-0.2,3.4-0.9,6.2-2.1,8.5c-1.2,2.3-3.7,4.9-6.6,6.3
			l-3.9-2.8c2.3-0.9,4.7-2.8,6-4.7c1.4-2,1.9-4.5,2-7.3H4.6c-1,0-2.2,0.1-3.2,0.1v-4.3C2.4,21.7,3.6,21.7,4.6,21.7z M8.8,13.3h10.8
			c1.1,0,2.4-0.1,3.6-0.3v4.3c-1.1-0.1-2.4-0.1-3.6-0.1H8.8c-1.1,0-2.5,0-3.5,0.1v-4.3C6.3,13.2,7.7,13.3,8.8,13.3z M27.7,15.3
			l-2.6,1.2c-0.7-1.4-1.7-3.3-2.6-4.6l2.6-1.1C25.9,12,27.1,14.1,27.7,15.3z M31.7,13.8L29,15c-0.7-1.4-1.7-3.3-2.6-4.6L29,9.3
			C29.9,10.6,31.1,12.7,31.7,13.8z"/>
		<path d="M48.5,40.6L45,37.3c6.4-2.2,9.2-5.1,9.2-13.2v-1.3h-7.8v4.5c0,1.5,0.1,2.8,0.1,3.5h-4.6c0.1-0.7,0.2-2,0.2-3.5v-4.5h-2.8
			c-1.6,0-2.8,0.1-3.6,0.1v-4.5c0.6,0.1,1.9,0.3,3.6,0.3H42v-3.3c0-1-0.1-1.9-0.2-3h4.7c-0.1,0.6-0.2,1.7-0.2,3v3.2h7.8v-3.5
			c0-1.3-0.1-2.4-0.2-3.1h4.7c-0.1,0.7-0.2,1.7-0.2,3.1v3.5h2.4c1.7,0,2.7-0.1,3.6-0.2v4.4c-0.7-0.1-1.9-0.1-3.6-0.1h-2.5v1.1
			C58.4,32.1,56.5,37.1,48.5,40.6z M63,16.8l-2.3,0.7c-0.5-1.4-1.1-3.2-1.7-4.5l2.2-0.7C61.9,13.6,62.7,15.6,63,16.8z M66.5,15.8
			l-2.3,0.7c-0.5-1.4-1.1-3.2-1.8-4.5l2.2-0.7C65.3,12.6,66.1,14.5,66.5,15.8z"/>
		<path d="M85.4,19.3c3.4-2.1,7.2-5.4,9.3-8l3.6,3.4c-2.5,2.5-5.7,5-8.9,7.2v13.3c0,1.5,0.1,3.5,0.3,4.3h-5.2
			c0.1-0.8,0.2-2.9,0.2-4.3V24.6c-3.4,1.8-7.6,3.6-11.7,4.8L71,25.2C76.9,23.6,81.7,21.5,85.4,19.3z"/>
		<path d="M117.4,30.6c5.6-3.3,9.9-8.4,12-12.8l2.6,4.7c-2.5,4.5-6.9,9-12.2,12.2c-3.3,2-7.6,3.9-12.2,4.7l-2.8-4.4
			C109.9,34.2,114.2,32.5,117.4,30.6z M117.4,19.9l-3.4,3.4c-1.7-1.8-5.8-5.4-8.3-7.1l3.1-3.3C111.2,14.5,115.5,17.9,117.4,19.9z"/>
	</g>
	<g class="st0">
		<path class="st1" d="M142.3,15.2c-0.6,2.7-1.6,9.5-1.6,13.1c0,1.2,0.1,2.3,0.3,3.5c0.5-1.4,1.2-3,1.7-4.2l1.7,1.3
			c-0.9,2.5-2,5.9-2.4,7.6c-0.1,0.5-0.2,1.1-0.2,1.5c0,0.3,0.1,0.8,0.1,1.2l-2.9,0.2c-0.7-2.3-1.3-6-1.3-10.5
			c0-4.9,1.1-11.2,1.5-13.8c0.1-0.8,0.2-1.9,0.3-2.7l3.6,0.3C142.8,13.3,142.4,14.6,142.3,15.2z M159,14.4c0,0.8-0.1,2.2-0.1,3.8
			c1.9-0.2,3.8-0.4,5.5-0.8v3.2c-1.7,0.3-3.6,0.5-5.5,0.6c0,3.3,0.3,6.3,0.4,8.8c2.7,1.1,4.9,2.8,6.5,4.3l-1.8,2.8
			c-1.6-1.5-3.1-2.7-4.6-3.7c0,0.1,0,0.1,0,0.2c0,3-1.5,5.6-6,5.6s-7.1-1.8-7.1-5c0-3,2.6-5.3,7-5.3c0.9,0,1.8,0.1,2.7,0.2
			c-0.1-2.3-0.3-5.1-0.3-7.7c-0.9,0-1.8,0.1-2.8,0.1c-1.9,0-3.7-0.1-5.6-0.2v-3.1c1.9,0.2,3.7,0.3,5.7,0.3c0.9,0,1.8,0,2.7-0.1v-3.9
			c0-0.6-0.1-1.5-0.2-2.1h3.7C159.1,13,159,13.8,159,14.4z M152.9,36.2c2.4,0,3.2-1.3,3.2-3.3c0-0.3,0-0.6,0-0.9
			c-1-0.3-2-0.5-3.1-0.5c-2.2,0-3.8,1-3.8,2.4C149.3,35.4,150.8,36.2,152.9,36.2z"/>
		<path class="st1" d="M171.7,32.7l2.7-2.4c2.3,1.9,5.4,5,7.3,7.3l-2.8,2.4C176.8,37.5,174,34.7,171.7,32.7z"/>
	</g>
	<g class="st0">
		<path class="st1" d="M197.3,11.2c-0.8,2.2-1.7,4.4-2.8,6.4v23h-3v-18c-0.9,1.3-1.8,2.4-2.7,3.4c-0.3-0.7-1.2-2.4-1.6-3.1
			c2.9-3,5.7-7.8,7.4-12.5L197.3,11.2z M217.5,16.3h-2.2v20.4c0,1.9-0.5,2.8-1.7,3.3s-3.5,0.6-6.6,0.6c-0.1-0.9-0.6-2.2-1.1-3.1
			c2.4,0.1,4.8,0.1,5.4,0.1c0.7,0,0.9-0.2,0.9-0.9V16.3h-15v-2.9h20.3V16.3z M200.9,32v2.2h-2.9V20.4h10.5V32H200.9z M200.9,23.1
			v6.2h4.8v-6.2H200.9z"/>
	</g>
	<g class="st0">
		<path class="st1" d="M235.9,14.4c-0.2,1-0.5,2.6-0.8,4.2c1.4-0.1,2.5-0.2,3.3-0.2c3.2,0,5.6,1.3,5.6,5.9c0,3.9-0.5,9.2-1.9,12
			c-1.1,2.3-2.8,2.9-5.1,2.9c-1.3,0-2.8-0.2-3.9-0.5l-0.5-3.4c1.3,0.4,3.1,0.7,4,0.7c1.2,0,2.1-0.3,2.7-1.6c1-2,1.5-6.2,1.5-9.7
			c0-2.8-1.3-3.3-3.4-3.3c-0.7,0-1.8,0.1-3,0.2c-1.2,4.9-3.6,12.5-6.8,17.8l-3.4-1.4c3.3-4.5,5.7-11.6,6.9-16.1
			c-1.5,0.2-2.9,0.3-3.6,0.4c-0.8,0.1-2.3,0.3-3.3,0.5l-0.3-3.6c1.1,0.1,2.1,0,3.2,0c1.1,0,2.8-0.2,4.7-0.3c0.5-2.4,0.8-5,0.8-7.1
			l3.9,0.4C236.2,12.8,236,13.7,235.9,14.4z M253.7,27.5l-3.3,1.5c-0.9-3.5-3.4-9.4-5.7-12.2l3.1-1.3
			C249.8,18.2,252.6,24.4,253.7,27.5z"/>
		<path class="st1" d="M270.8,21.6c2.9-1.7,6.2-3.4,7.9-4.3c1.1-0.6,1.9-1.1,2.6-1.7l1.8,3c-0.9,0.5-1.8,1-2.8,1.6
			c-2.2,1.1-6.6,3.2-9.7,5.2c-2.9,1.9-4.8,4-4.8,6.4c0,2.6,2.5,4.1,7.4,4.1c3.5,0,8-0.5,10.7-1.2l0,3.8c-2.6,0.5-6.3,0.8-10.5,0.8
			c-6.4,0-11.1-1.8-11.1-7.1c0-3.5,2.2-6.2,5.6-8.6c-1.5-2.8-3.2-6.5-4.7-10l3.3-1.4C267.8,15.6,269.5,19,270.8,21.6z"/>
	</g>
	<g class="st0">
		<path class="st1" d="M301.9,18.1c-0.9,1.5-2,3-3.2,4.4v18.1h-3V25.8c-1.2,1.2-2.3,2.2-3.4,3.1c-0.3-0.7-1.2-2.2-1.7-2.9
			c3.1-2.1,6.5-5.6,8.5-9L301.9,18.1z M301,11.5c-2,2.9-5.3,6.1-8.4,8.2c-0.3-0.7-1.1-1.9-1.6-2.5c2.7-1.7,5.6-4.5,7.1-6.8L301,11.5
			z M319.2,25.4c-1.3,3.8-3.4,6.9-6,9.3c2.4,1.6,5.3,2.6,8.6,3.3c-0.7,0.7-1.6,1.9-1.9,2.7c-3.6-0.8-6.6-2.2-9.1-4
			c-2.6,1.8-5.6,3.1-8.7,4c-0.4-0.8-1.1-2-1.7-2.6c2.9-0.7,5.6-1.9,8.1-3.5c-1.8-1.8-3.3-4.1-4.4-6.6l2.3-0.7h-4.2v-2.8h14.5
			l0.6-0.1L319.2,25.4z M307.6,15.2c0,2.9-0.7,6.6-4.1,8.9c-0.5-0.5-1.8-1.4-2.5-1.8c3.1-2.1,3.6-4.9,3.6-7.2v-3.6h11.5V19
			c0,0.6,0,0.9,0.2,1.1c0.1,0.1,0.3,0.1,0.5,0.1h1c0.3,0,0.5,0,0.7-0.1c0.1-0.1,0.3-0.3,0.4-0.7c0.1-0.4,0.1-1.5,0.1-2.7
			c0.6,0.5,1.6,1,2.3,1.2c-0.1,1.3-0.2,2.8-0.4,3.3c-0.3,0.6-0.6,1-1.1,1.3c-0.5,0.2-1.3,0.3-1.8,0.3H316c-0.8,0-1.7-0.2-2.2-0.7
			c-0.6-0.5-0.8-1.2-0.8-3.1v-4.8h-5.5V15.2z M306.7,27.3c0.9,2.1,2.2,3.9,4,5.4c1.7-1.6,3.2-3.4,4.3-5.4H306.7z"/>
	</g>
	<g class="st0">
		<path class="st1" d="M334.2,15.5c-0.6,2.7-1.6,8.9-1.6,12.4c0,1.2,0.1,2.3,0.2,3.5c0.6-1.4,1.2-3,1.7-4.2l1.7,1.3
			c-0.9,2.5-2,6-2.3,7.7c-0.1,0.5-0.2,1.2-0.2,1.5c0,0.3,0,0.8,0.1,1.2l-3,0.2c-0.7-2.3-1.2-6.2-1.2-10.7c0-4.9,1.1-10.5,1.4-13.2
			c0.1-0.8,0.3-1.8,0.3-2.7l3.7,0.3C334.6,13.6,334.3,14.9,334.2,15.5z M342,32c0,1.5,1.2,2.7,5.1,2.7c3,0,5.4-0.3,8.2-0.9l0.1,3.5
			c-2.1,0.4-4.8,0.7-8.4,0.7c-5.6,0-8.2-1.9-8.2-5.1c0-1.2,0.2-2.4,0.6-4.1l3,0.3C342.2,30.2,342,31.1,342,32z M354.5,15.4v3.4
			c-3.8,0.4-10,0.4-13.8,0l0-3.4C344.4,16,351,15.8,354.5,15.4z"/>
	</g>
	<g class="st0">
		<path class="st1" d="M393.6,36.2v3.1h-29.5v-3.1h16.5c1.6-4.2,3.3-10.6,4.2-15.4l3.5,0.7c-1.2,5-2.9,10.8-4.4,14.8H393.6z
			 M392.6,19.5h-27.4v-3h11.9v-6.1h3.2v6.1h12.3V19.5z M372.4,34.8c-0.2-3.5-1.4-9-2.9-13.1l2.9-0.8c1.7,4.2,2.9,9.5,3.2,13.1
			L372.4,34.8z"/>
	</g>
	<g class="st0">
		<path class="st1" d="M411,15c-0.1,0.4-0.2,0.9-0.3,1.5c3.9-0.2,8.6-0.7,12.6-1.6l0.1,3.2c-3.7,0.6-9,1.2-13.3,1.4
			c-0.5,2.4-1.2,5.1-1.8,6.9c2.8-1.8,5.6-2.5,8.8-2.5c5.3,0,8.6,2.7,8.6,6.8c0,7.1-7.1,9.7-17.4,8.6l-0.9-3.3
			c7.5,1.1,14.9,0,14.9-5.2c0-2.2-1.9-4-5.5-4c-3.9,0-7.4,1.4-9.5,3.9c-0.4,0.5-0.7,0.9-1,1.5l-3.1-1.1c1.7-3.2,3-7.8,3.8-11.5
			c-2.2,0-4.2-0.1-6-0.3V16c1.9,0.3,4.5,0.6,6.5,0.6c0.1,0,0.1,0,0.2,0c0.1-0.7,0.2-1.3,0.3-1.8c0.2-1.2,0.2-2,0.2-3l3.7,0.2
			C411.4,12.9,411.2,14,411,15z"/>
		<path class="st1" d="M448.8,13.8c0,0.4,0,1-0.1,1.7c2.8-0.1,5.7-0.4,8.7-0.9v3c-2.4,0.3-5.5,0.6-8.7,0.7c0,1.5,0,3,0,4.1
			c3.3-0.1,6.2-0.4,9-0.8l0,3.1c-3,0.4-5.8,0.6-8.9,0.7c0.1,1.5,0.2,3.1,0.2,4.6c4.3,1.2,7.6,3.5,9.5,5l-1.9,2.9
			c-1.9-1.7-4.4-3.6-7.4-4.8c0,0.7,0.1,1.3,0.1,1.7c0,2.5-1.8,4.8-6.1,4.8c-5,0-7.6-1.8-7.6-5.1c0-3.2,2.9-5.3,7.9-5.3
			c0.9,0,1.6,0.1,2.4,0.1c0-1.3-0.1-2.6-0.1-3.9c-0.6,0-1.2,0-1.8,0c-2.1,0-5.8-0.2-8.1-0.4l0-3.1c2.2,0.4,6.1,0.6,8.2,0.6
			c0.6,0,1.1,0,1.7,0c0-1.4,0-2.7,0-4.1c-0.4,0-0.9,0-1.4,0c-2.2,0-6.1-0.3-8.3-0.6l0-3c2.2,0.4,6.2,0.7,8.3,0.7c0.5,0,1,0,1.4,0
			c0-0.8,0-1.5,0-2c0-0.6,0-1.6-0.2-2.1h3.5C448.9,12.2,448.9,12.9,448.8,13.8z M442.7,36.8c1.8,0,3.3-0.6,3.3-2.7
			c0-0.5,0-1.1,0-1.8c-1-0.2-2-0.3-3-0.3c-2.8,0-4.3,1.1-4.3,2.4C438.6,35.8,439.9,36.8,442.7,36.8z"/>
		<path class="st1" d="M483.2,14.1c0,0.4,0,1,0,1.7h9.9l-0.1,3.1c-1.9-0.1-5.1-0.2-9.9-0.2c0,1.8,0,3.7,0,5.2
			c0.8,1.2,1.2,2.7,1.2,4.4c0,4.4-2.3,9.6-10.2,11.8l-2.8-2.8c3.9-0.9,6.9-2.3,8.5-4.9c-0.7,0.3-1.5,0.5-2.3,0.5
			c-2.7,0-5.5-2-5.5-5.7c0-3.5,2.8-5.9,6.1-5.9c0.7,0,1.3,0.1,1.8,0.2c0-0.9,0-1.8,0-2.8c-5,0.1-10.4,0.3-14.5,0.5l-0.1-3.2
			c3.7-0.1,9.9-0.2,14.6-0.3c0-0.7,0-1.3-0.1-1.7c-0.1-1.1-0.2-2.1-0.3-2.4h3.8C483.3,12.1,483.2,13.6,483.2,14.1z M478.1,30.1
			c1.7,0,3-1.4,2.6-4.5c-0.5-1.1-1.5-1.6-2.6-1.6c-1.5,0-3,1.1-3,3.1C475.1,29,476.5,30.1,478.1,30.1z"/>
		<path class="st1" d="M505.5,35.1c0,2.8-2.3,5.1-5.1,5.1c-2.8,0-5.2-2.3-5.2-5.1c0-2.8,2.3-5.2,5.2-5.2
			C503.2,29.9,505.5,32.2,505.5,35.1z M503.5,35.1c0-1.7-1.4-3.2-3.2-3.2s-3.2,1.4-3.2,3.2s1.4,3.2,3.2,3.2S503.5,36.8,503.5,35.1z"
			/>
	</g>
</g>
</svg>
