<?xml version="1.0" encoding="utf-8"?>
<!-- Generator: Adobe Illustrator 26.0.1, SVG Export Plug-In . SVG Version: 6.00 Build 0)  -->
<svg version="1.1" id="レイヤー_1" xmlns="http://www.w3.org/2000/svg" xmlns:xlink="http://www.w3.org/1999/xlink" x="0px"
	 y="0px" viewBox="0 0 417.8 326.9" style="enable-background:new 0 0 417.8 326.9;" xml:space="preserve">
<style type="text/css">
	.st0{enable-background:new    ;}
	.st1{fill:#464646;}
	.st2{fill:#040000;}
</style>
<g id="グループ_352" transform="translate(-51.447 -1040.88)">
	<g class="st0">
		<path class="st1" d="M268.5,1129.8l2,8.7l2.4-8.7h1.6l2.4,8.8l2-8.8h1.6l-2.8,10.8h-1.5l-2.5-8.9l-2.5,8.9h-1.5l-2.8-10.8H268.5z"
			/>
		<path class="st1" d="M281.8,1129.7h1.3v4c0.3-0.4,0.6-0.7,0.8-0.8c0.4-0.3,1-0.4,1.6-0.4c1.1,0,1.9,0.4,2.3,1.2
			c0.2,0.4,0.3,1,0.3,1.8v5h-1.4v-4.9c0-0.6-0.1-1-0.2-1.3c-0.2-0.4-0.7-0.6-1.3-0.6c-0.5,0-1,0.2-1.5,0.6s-0.7,1.1-0.7,2.1v4.2
			h-1.3V1129.7z"/>
		<path class="st1" d="M295.1,1132.7h1.5c-0.2,0.5-0.6,1.7-1.2,3.4c-0.5,1.3-0.9,2.4-1.2,3.3c-0.8,2-1.3,3.2-1.6,3.7
			c-0.3,0.4-0.8,0.7-1.6,0.7c-0.2,0-0.3,0-0.4,0c-0.1,0-0.2,0-0.4-0.1v-1.2c0.2,0.1,0.4,0.1,0.5,0.1c0.1,0,0.2,0,0.3,0
			c0.2,0,0.4,0,0.5-0.1c0.1-0.1,0.2-0.2,0.3-0.3c0,0,0.1-0.2,0.3-0.6c0.2-0.4,0.3-0.6,0.3-0.8l-2.9-8.1h1.5l2.1,6.4L295.1,1132.7z"
			/>
		<path class="st1" d="M301.8,1132.7h1.3v1.1c0.4-0.5,0.8-0.8,1.2-1s0.9-0.3,1.4-0.3c1.1,0,1.9,0.4,2.3,1.2c0.2,0.4,0.3,1,0.3,1.8v5
			h-1.3v-4.9c0-0.5-0.1-0.9-0.2-1.2c-0.2-0.5-0.7-0.7-1.3-0.7c-0.3,0-0.6,0-0.8,0.1c-0.4,0.1-0.7,0.3-1,0.6
			c-0.2,0.3-0.4,0.5-0.4,0.8c-0.1,0.3-0.1,0.7-0.1,1.2v4.1h-1.3V1132.7z"/>
		<path class="st1" d="M315.9,1133.5c0.7,0.7,1,1.7,1,3c0,1.3-0.3,2.3-0.9,3.1c-0.6,0.8-1.6,1.2-2.8,1.2c-1.1,0-1.9-0.4-2.6-1.1
			c-0.6-0.7-0.9-1.7-0.9-2.9c0-1.3,0.3-2.4,1-3.1c0.7-0.8,1.6-1.2,2.7-1.2C314.3,1132.5,315.2,1132.8,315.9,1133.5z M315,1138.7
			c0.3-0.7,0.5-1.4,0.5-2.2c0-0.7-0.1-1.3-0.3-1.8c-0.4-0.7-1-1.1-1.9-1.1c-0.8,0-1.4,0.3-1.7,0.9c-0.4,0.6-0.5,1.4-0.5,2.2
			c0,0.8,0.2,1.5,0.5,2.1c0.4,0.6,0.9,0.8,1.7,0.8C314.1,1139.7,314.7,1139.3,315,1138.7z"/>
		<path class="st1" d="M318.8,1130.5h1.3v2.2h1.3v1.1h-1.3v5.1c0,0.3,0.1,0.5,0.3,0.5c0.1,0.1,0.3,0.1,0.5,0.1c0.1,0,0.1,0,0.2,0
			c0.1,0,0.2,0,0.3,0v1c-0.2,0-0.3,0.1-0.5,0.1c-0.2,0-0.3,0-0.5,0c-0.6,0-1-0.2-1.3-0.5c-0.2-0.3-0.3-0.7-0.3-1.2v-5.2h-1.1v-1.1
			h1.1V1130.5z"/>
		<path class="st1" d="M328.2,1132.7v5.2c0,0.4,0.1,0.7,0.2,1c0.2,0.5,0.7,0.7,1.3,0.7c0.9,0,1.5-0.4,1.8-1.2c0.2-0.4,0.3-1,0.3-1.8
			v-3.9h1.3v7.8h-1.2l0-1.2c-0.2,0.3-0.4,0.5-0.6,0.8c-0.5,0.4-1.1,0.6-1.8,0.6c-1.1,0-1.8-0.4-2.2-1.1c-0.2-0.4-0.3-0.9-0.3-1.6
			v-5.3H328.2z"/>
		<path class="st1" d="M336,1138.1c0,0.4,0.2,0.8,0.3,1c0.3,0.4,0.9,0.6,1.8,0.6c0.5,0,0.9-0.1,1.3-0.3c0.4-0.2,0.6-0.5,0.6-1
			c0-0.3-0.2-0.6-0.5-0.8c-0.2-0.1-0.6-0.2-1.1-0.4l-1.1-0.3c-0.7-0.2-1.2-0.4-1.5-0.6c-0.6-0.4-0.9-0.8-0.9-1.5
			c0-0.7,0.3-1.3,0.8-1.8c0.5-0.5,1.3-0.7,2.2-0.7c1.2,0,2.1,0.3,2.6,1c0.3,0.4,0.5,0.9,0.5,1.4h-1.2c0-0.3-0.1-0.6-0.3-0.8
			c-0.3-0.3-0.8-0.5-1.6-0.5c-0.5,0-0.9,0.1-1.2,0.3c-0.3,0.2-0.4,0.4-0.4,0.8c0,0.3,0.2,0.6,0.5,0.8c0.2,0.1,0.5,0.2,0.9,0.3
			l0.9,0.2c1,0.2,1.6,0.5,1.9,0.7c0.5,0.3,0.8,0.9,0.8,1.6c0,0.7-0.3,1.3-0.8,1.8c-0.5,0.5-1.4,0.8-2.5,0.8c-1.2,0-2-0.3-2.5-0.8
			c-0.5-0.5-0.8-1.2-0.8-2H336z"/>
		<path class="st1" d="M347.5,1132.9c0.5,0.3,0.9,0.6,1.2,1c0.3,0.4,0.4,0.9,0.5,1.4c0.1,0.4,0.1,0.9,0.1,1.7h-5.7
			c0,0.8,0.2,1.4,0.6,1.9s0.9,0.7,1.6,0.7c0.7,0,1.2-0.2,1.6-0.7c0.2-0.3,0.4-0.6,0.5-0.9h1.3c0,0.3-0.1,0.6-0.3,1
			c-0.2,0.4-0.4,0.6-0.6,0.9c-0.4,0.4-0.9,0.7-1.5,0.8c-0.3,0.1-0.7,0.1-1.1,0.1c-1,0-1.8-0.4-2.5-1.1c-0.7-0.7-1-1.7-1-3
			c0-1.3,0.3-2.3,1-3.1c0.7-0.8,1.6-1.2,2.7-1.2C346.5,1132.5,347,1132.6,347.5,1132.9z M348,1136c-0.1-0.6-0.2-1-0.4-1.4
			c-0.4-0.6-1-1-1.8-1c-0.6,0-1.1,0.2-1.5,0.7c-0.4,0.4-0.6,1-0.6,1.7H348z"/>
		<path class="st1" d="M356.4,1130.4c-0.3,0.1-0.6,0.3-0.7,0.7c-0.1,0.2-0.1,0.4-0.1,0.6c0,0,0,0,0,0.1c0,0,0,0.1,0,0.1h0.8v1.6
			h-1.6v-1.5c0-0.7,0.1-1.3,0.4-1.7s0.7-0.6,1.1-0.7V1130.4z M358.8,1130.4c-0.3,0-0.5,0.2-0.6,0.5c-0.1,0.3-0.2,0.6-0.2,0.9
			c0,0,0,0.1,0,0.1c0,0,0,0.1,0,0.1h0.8v1.6h-1.6v-1.5c0-0.6,0.1-1.1,0.4-1.6c0.2-0.5,0.6-0.7,1.2-0.8V1130.4z"/>
		<path class="st1" d="M364.5,1132.9c0.2,0.1,0.5,0.4,0.8,0.8v-4h1.3v10.8h-1.2v-1.1c-0.3,0.5-0.7,0.8-1.1,1
			c-0.4,0.2-0.9,0.3-1.4,0.3c-0.9,0-1.6-0.4-2.3-1.1c-0.6-0.7-1-1.7-1-2.9c0-1.1,0.3-2.1,0.9-3c0.6-0.8,1.4-1.3,2.5-1.3
			C363.6,1132.5,364.1,1132.7,364.5,1132.9z M361.6,1138.8c0.4,0.6,0.9,0.8,1.7,0.8c0.6,0,1.1-0.3,1.5-0.8c0.4-0.5,0.6-1.3,0.6-2.3
			c0-1-0.2-1.7-0.6-2.2c-0.4-0.5-0.9-0.7-1.5-0.7c-0.7,0-1.2,0.3-1.6,0.8c-0.4,0.5-0.6,1.3-0.6,2.2
			C361,1137.5,361.2,1138.2,361.6,1138.8z"/>
		<path class="st1" d="M373.4,1132.9c0.5,0.3,0.9,0.6,1.2,1c0.3,0.4,0.4,0.9,0.5,1.4c0.1,0.4,0.1,0.9,0.1,1.7h-5.7
			c0,0.8,0.2,1.4,0.6,1.9s0.9,0.7,1.6,0.7c0.7,0,1.2-0.2,1.6-0.7c0.2-0.3,0.4-0.6,0.5-0.9h1.3c0,0.3-0.1,0.6-0.3,1
			c-0.2,0.4-0.4,0.6-0.6,0.9c-0.4,0.4-0.9,0.7-1.5,0.8c-0.3,0.1-0.7,0.1-1.1,0.1c-1,0-1.8-0.4-2.5-1.1c-0.7-0.7-1-1.7-1-3
			c0-1.3,0.3-2.3,1-3.1c0.7-0.8,1.6-1.2,2.7-1.2C372.3,1132.5,372.9,1132.6,373.4,1132.9z M373.9,1136c-0.1-0.6-0.2-1-0.4-1.4
			c-0.4-0.6-1-1-1.8-1c-0.6,0-1.1,0.2-1.5,0.7c-0.4,0.4-0.6,1-0.6,1.7H373.9z"/>
		<path class="st1" d="M377.7,1138.1c0,0.4,0.2,0.8,0.3,1c0.3,0.4,0.9,0.6,1.8,0.6c0.5,0,0.9-0.1,1.3-0.3c0.4-0.2,0.6-0.5,0.6-1
			c0-0.3-0.2-0.6-0.5-0.8c-0.2-0.1-0.6-0.2-1.1-0.4l-1.1-0.3c-0.7-0.2-1.2-0.4-1.5-0.6c-0.6-0.4-0.9-0.8-0.9-1.5
			c0-0.7,0.3-1.3,0.8-1.8c0.5-0.5,1.3-0.7,2.2-0.7c1.2,0,2.1,0.3,2.6,1c0.3,0.4,0.5,0.9,0.5,1.4h-1.2c0-0.3-0.1-0.6-0.3-0.8
			c-0.3-0.3-0.8-0.5-1.6-0.5c-0.5,0-0.9,0.1-1.2,0.3c-0.3,0.2-0.4,0.4-0.4,0.8c0,0.3,0.2,0.6,0.5,0.8c0.2,0.1,0.5,0.2,0.9,0.3
			l0.9,0.2c1,0.2,1.6,0.5,1.9,0.7c0.5,0.3,0.8,0.9,0.8,1.6c0,0.7-0.3,1.3-0.8,1.8c-0.5,0.5-1.4,0.8-2.5,0.8c-1.2,0-2-0.3-2.5-0.8
			c-0.5-0.5-0.8-1.2-0.8-2H377.7z"/>
		<path class="st1" d="M384.4,1129.8h1.3v1.5h-1.3V1129.8z M384.4,1132.7h1.3v7.8h-1.3V1132.7z"/>
		<path class="st1" d="M392.1,1133c0.2,0.2,0.5,0.4,0.8,0.7v-1h1.2v7.1c0,1-0.1,1.8-0.4,2.4c-0.5,1.1-1.6,1.6-3.1,1.6
			c-0.8,0-1.5-0.2-2.1-0.6c-0.6-0.4-0.9-1-1-1.8h1.3c0.1,0.4,0.2,0.6,0.4,0.8c0.3,0.3,0.8,0.4,1.4,0.4c1,0,1.7-0.4,2-1.1
			c0.2-0.4,0.3-1.2,0.3-2.2c-0.3,0.4-0.6,0.7-0.9,0.9c-0.4,0.2-0.9,0.3-1.5,0.3c-0.8,0-1.6-0.3-2.2-0.9c-0.6-0.6-1-1.6-1-3
			c0-1.3,0.3-2.3,1-3.1s1.4-1.1,2.3-1.1C391.1,1132.5,391.6,1132.7,392.1,1133z M392.2,1134.4c-0.4-0.5-0.9-0.7-1.5-0.7
			c-0.9,0-1.6,0.4-1.9,1.3c-0.2,0.5-0.3,1.1-0.3,1.8c0,0.9,0.2,1.6,0.5,2c0.4,0.5,0.8,0.7,1.4,0.7c0.9,0,1.6-0.4,2-1.3
			c0.2-0.5,0.3-1,0.3-1.7C392.8,1135.6,392.6,1134.9,392.2,1134.4z"/>
		<path class="st1" d="M396.1,1132.7h1.3v1.1c0.4-0.5,0.8-0.8,1.2-1s0.9-0.3,1.4-0.3c1.1,0,1.9,0.4,2.3,1.2c0.2,0.4,0.3,1,0.3,1.8v5
			h-1.3v-4.9c0-0.5-0.1-0.9-0.2-1.2c-0.2-0.5-0.7-0.7-1.3-0.7c-0.3,0-0.6,0-0.8,0.1c-0.4,0.1-0.7,0.3-1,0.6
			c-0.2,0.3-0.4,0.5-0.4,0.8c-0.1,0.3-0.1,0.7-0.1,1.2v4.1h-1.3V1132.7z"/>
		<path class="st1" d="M404,1132.9c0.4-0.1,0.6-0.3,0.7-0.8c0.1-0.3,0.1-0.5,0.1-0.7H404v-1.6h1.6v1.5c0,0.6-0.1,1.1-0.4,1.5
			c-0.2,0.5-0.6,0.7-1.2,0.8V1132.9z M406.5,1132.9c0.4-0.1,0.6-0.3,0.7-0.8c0.1-0.3,0.1-0.5,0.1-0.7h-0.8v-1.6h1.6v1.5
			c0,0.6-0.1,1.1-0.4,1.6c-0.2,0.5-0.6,0.7-1.2,0.8V1132.9z"/>
		<path class="st1" d="M413.8,1130.5h1.3v2.2h1.3v1.1h-1.3v5.1c0,0.3,0.1,0.5,0.3,0.5c0.1,0.1,0.3,0.1,0.5,0.1c0.1,0,0.1,0,0.2,0
			c0.1,0,0.2,0,0.3,0v1c-0.2,0-0.3,0.1-0.5,0.1c-0.2,0-0.3,0-0.5,0c-0.6,0-1-0.2-1.3-0.5c-0.2-0.3-0.3-0.7-0.3-1.2v-5.2h-1.1v-1.1
			h1.1V1130.5z"/>
		<path class="st1" d="M423.4,1133.5c0.7,0.7,1,1.7,1,3c0,1.3-0.3,2.3-0.9,3.1c-0.6,0.8-1.6,1.2-2.8,1.2c-1.1,0-1.9-0.4-2.6-1.1
			c-0.6-0.7-0.9-1.7-0.9-2.9c0-1.3,0.3-2.4,1-3.1s1.6-1.2,2.7-1.2C421.9,1132.5,422.7,1132.8,423.4,1133.5z M422.6,1138.7
			c0.3-0.7,0.5-1.4,0.5-2.2c0-0.7-0.1-1.3-0.3-1.8c-0.4-0.7-1-1.1-1.9-1.1c-0.8,0-1.4,0.3-1.7,0.9c-0.4,0.6-0.5,1.4-0.5,2.2
			c0,0.8,0.2,1.5,0.5,2.1c0.4,0.6,0.9,0.8,1.7,0.8C421.7,1139.7,422.3,1139.3,422.6,1138.7z"/>
	</g>
	<g class="st0">
		<path class="st1" d="M268.4,1158.1c0,0.4,0.2,0.8,0.3,1c0.3,0.4,0.9,0.6,1.8,0.6c0.5,0,0.9-0.1,1.3-0.3c0.4-0.2,0.6-0.5,0.6-1
			c0-0.3-0.2-0.6-0.5-0.8c-0.2-0.1-0.6-0.2-1.1-0.4l-1.1-0.3c-0.7-0.2-1.2-0.4-1.5-0.6c-0.6-0.4-0.9-0.8-0.9-1.5
			c0-0.7,0.3-1.3,0.8-1.8c0.5-0.5,1.3-0.7,2.2-0.7c1.2,0,2.1,0.3,2.6,1c0.3,0.4,0.5,0.9,0.5,1.4h-1.2c0-0.3-0.1-0.6-0.3-0.8
			c-0.3-0.3-0.8-0.5-1.6-0.5c-0.5,0-0.9,0.1-1.2,0.3c-0.3,0.2-0.4,0.4-0.4,0.8c0,0.3,0.2,0.6,0.5,0.8c0.2,0.1,0.5,0.2,0.9,0.3
			l0.9,0.2c1,0.2,1.6,0.5,1.9,0.7c0.5,0.3,0.8,0.9,0.8,1.6c0,0.7-0.3,1.3-0.8,1.8c-0.5,0.5-1.4,0.8-2.5,0.8c-1.2,0-2-0.3-2.5-0.8
			c-0.5-0.5-0.8-1.2-0.8-2H268.4z"/>
		<path class="st1" d="M280.8,1153.5c0.7,0.7,1,1.7,1,3c0,1.3-0.3,2.3-0.9,3.1c-0.6,0.8-1.6,1.2-2.8,1.2c-1.1,0-1.9-0.4-2.6-1.1
			c-0.6-0.7-0.9-1.7-0.9-2.9c0-1.3,0.3-2.4,1-3.1c0.7-0.8,1.6-1.2,2.7-1.2C279.3,1152.5,280.1,1152.8,280.8,1153.5z M280,1158.7
			c0.3-0.7,0.5-1.4,0.5-2.2c0-0.7-0.1-1.3-0.3-1.8c-0.4-0.7-1-1.1-1.9-1.1c-0.8,0-1.4,0.3-1.7,0.9c-0.4,0.6-0.5,1.4-0.5,2.2
			c0,0.8,0.2,1.5,0.5,2.1c0.4,0.6,0.9,0.8,1.7,0.8C279.1,1159.7,279.7,1159.3,280,1158.7z"/>
		<path class="st1" d="M283.5,1149.8h1.3v10.8h-1.3V1149.8z"/>
		<path class="st1" d="M287.5,1152.7l2.1,6.4l2.2-6.4h1.4l-3,7.8h-1.4l-2.9-7.8H287.5z"/>
		<path class="st1" d="M299.2,1152.9c0.5,0.3,0.9,0.6,1.2,1c0.3,0.4,0.4,0.9,0.5,1.4c0.1,0.4,0.1,0.9,0.1,1.7h-5.7
			c0,0.8,0.2,1.4,0.6,1.9s0.9,0.7,1.6,0.7c0.7,0,1.2-0.2,1.6-0.7c0.2-0.3,0.4-0.6,0.5-0.9h1.3c0,0.3-0.1,0.6-0.3,1
			c-0.2,0.4-0.4,0.6-0.6,0.9c-0.4,0.4-0.9,0.7-1.5,0.8c-0.3,0.1-0.7,0.1-1.1,0.1c-1,0-1.8-0.4-2.5-1.1c-0.7-0.7-1-1.7-1-3
			c0-1.3,0.3-2.3,1-3.1c0.7-0.8,1.6-1.2,2.7-1.2C298.1,1152.5,298.7,1152.6,299.2,1152.9z M299.7,1156c-0.1-0.6-0.2-1-0.4-1.4
			c-0.4-0.6-1-1-1.8-1c-0.6,0-1.1,0.2-1.5,0.7c-0.4,0.4-0.6,1-0.6,1.7H299.7z"/>
		<path class="st1" d="M306.7,1152.7h1.3v1c0.3-0.4,0.6-0.6,0.9-0.8c0.4-0.3,1-0.4,1.6-0.4c0.9,0,1.6,0.3,2.3,1
			c0.6,0.7,0.9,1.7,0.9,2.9c0,1.7-0.4,2.9-1.3,3.7c-0.6,0.5-1.2,0.7-2,0.7c-0.6,0-1.1-0.1-1.5-0.4c-0.2-0.1-0.5-0.4-0.8-0.8v4h-1.3
			V1152.7z M311.7,1158.9c0.4-0.5,0.6-1.3,0.6-2.3c0-0.6-0.1-1.2-0.3-1.6c-0.3-0.9-1-1.3-1.9-1.3c-0.9,0-1.5,0.5-1.9,1.4
			c-0.2,0.5-0.3,1.1-0.3,1.9c0,0.6,0.1,1.1,0.3,1.5c0.3,0.8,1,1.2,1.9,1.2C310.8,1159.6,311.3,1159.4,311.7,1158.9z"/>
		<path class="st1" d="M315.2,1152.7h1.3v1.4c0.1-0.3,0.4-0.6,0.8-1c0.4-0.4,0.9-0.6,1.4-0.6c0,0,0.1,0,0.1,0s0.2,0,0.3,0v1.4
			c-0.1,0-0.2,0-0.2,0c-0.1,0-0.1,0-0.2,0c-0.7,0-1.2,0.2-1.5,0.6c-0.4,0.4-0.5,0.9-0.5,1.5v4.5h-1.3V1152.7z"/>
		<path class="st1" d="M325.9,1153.5c0.7,0.7,1,1.7,1,3c0,1.3-0.3,2.3-0.9,3.1c-0.6,0.8-1.6,1.2-2.8,1.2c-1.1,0-1.9-0.4-2.6-1.1
			c-0.6-0.7-0.9-1.7-0.9-2.9c0-1.3,0.3-2.4,1-3.1s1.6-1.2,2.7-1.2C324.3,1152.5,325.2,1152.8,325.9,1153.5z M325,1158.7
			c0.3-0.7,0.5-1.4,0.5-2.2c0-0.7-0.1-1.3-0.3-1.8c-0.4-0.7-1-1.1-1.9-1.1c-0.8,0-1.4,0.3-1.7,0.9c-0.4,0.6-0.5,1.4-0.5,2.2
			c0,0.8,0.2,1.5,0.5,2.1c0.4,0.6,0.9,0.8,1.7,0.8C324.1,1159.7,324.7,1159.3,325,1158.7z"/>
		<path class="st1" d="M328.4,1149.7h1.3v3.9c0.3-0.4,0.6-0.7,1-0.9c0.4-0.2,0.8-0.3,1.3-0.3c1,0,1.8,0.3,2.4,1
			c0.6,0.7,0.9,1.7,0.9,3c0,1.2-0.3,2.3-0.9,3.1s-1.4,1.2-2.5,1.2c-0.6,0-1.1-0.1-1.5-0.4c-0.2-0.2-0.5-0.4-0.8-0.8v1h-1.2V1149.7z
			 M333.5,1158.8c0.4-0.6,0.5-1.3,0.5-2.2c0-0.8-0.2-1.5-0.5-2.1c-0.4-0.5-0.9-0.8-1.6-0.8c-0.6,0-1.1,0.2-1.6,0.7s-0.7,1.2-0.7,2.2
			c0,0.7,0.1,1.3,0.3,1.8c0.3,0.9,1,1.3,1.9,1.3C332.6,1159.6,333.1,1159.3,333.5,1158.8z"/>
		<path class="st1" d="M336.9,1149.8h1.3v10.8h-1.3V1149.8z"/>
		<path class="st1" d="M345,1152.9c0.5,0.3,0.9,0.6,1.2,1c0.3,0.4,0.4,0.9,0.5,1.4c0.1,0.4,0.1,0.9,0.1,1.7h-5.7
			c0,0.8,0.2,1.4,0.6,1.9s0.9,0.7,1.6,0.7c0.7,0,1.2-0.2,1.6-0.7c0.2-0.3,0.4-0.6,0.5-0.9h1.3c0,0.3-0.1,0.6-0.3,1
			c-0.2,0.4-0.4,0.6-0.6,0.9c-0.4,0.4-0.9,0.7-1.5,0.8c-0.3,0.1-0.7,0.1-1.1,0.1c-1,0-1.8-0.4-2.5-1.1c-0.7-0.7-1-1.7-1-3
			c0-1.3,0.3-2.3,1-3.1c0.7-0.8,1.6-1.2,2.7-1.2C344,1152.5,344.5,1152.6,345,1152.9z M345.5,1156c-0.1-0.6-0.2-1-0.4-1.4
			c-0.4-0.6-1-1-1.8-1c-0.6,0-1.1,0.2-1.5,0.7c-0.4,0.4-0.6,1-0.6,1.7H345.5z"/>
		<path class="st1" d="M348.5,1152.7h1.3v1.1c0.3-0.4,0.6-0.7,0.8-0.8c0.4-0.3,0.9-0.4,1.5-0.4c0.6,0,1.1,0.2,1.5,0.5
			c0.2,0.2,0.4,0.4,0.6,0.8c0.3-0.4,0.6-0.7,1-0.9c0.4-0.2,0.8-0.3,1.3-0.3c1.1,0,1.8,0.4,2.2,1.1c0.2,0.4,0.3,1,0.3,1.7v5.2h-1.4
			v-5.4c0-0.5-0.1-0.9-0.4-1.1c-0.3-0.2-0.6-0.3-1-0.3c-0.5,0-1,0.2-1.3,0.5c-0.4,0.3-0.6,0.9-0.6,1.7v4.6h-1.3v-5.1
			c0-0.5-0.1-0.9-0.2-1.2c-0.2-0.4-0.6-0.5-1.1-0.5c-0.5,0-1,0.2-1.4,0.6c-0.4,0.4-0.6,1.1-0.6,2.1v4.2h-1.3V1152.7z"/>
		<path class="st1" d="M361.8,1158.1c0,0.4,0.2,0.8,0.3,1c0.3,0.4,0.9,0.6,1.8,0.6c0.5,0,0.9-0.1,1.3-0.3c0.4-0.2,0.6-0.5,0.6-1
			c0-0.3-0.2-0.6-0.5-0.8c-0.2-0.1-0.6-0.2-1.1-0.4l-1.1-0.3c-0.7-0.2-1.2-0.4-1.5-0.6c-0.6-0.4-0.9-0.8-0.9-1.5
			c0-0.7,0.3-1.3,0.8-1.8c0.5-0.5,1.3-0.7,2.2-0.7c1.2,0,2.1,0.3,2.6,1c0.3,0.4,0.5,0.9,0.5,1.4h-1.2c0-0.3-0.1-0.6-0.3-0.8
			c-0.3-0.3-0.8-0.5-1.6-0.5c-0.5,0-0.9,0.1-1.2,0.3c-0.3,0.2-0.4,0.4-0.4,0.8c0,0.3,0.2,0.6,0.5,0.8c0.2,0.1,0.5,0.2,0.9,0.3
			l0.9,0.2c1,0.2,1.6,0.5,1.9,0.7c0.5,0.3,0.8,0.9,0.8,1.6c0,0.7-0.3,1.3-0.8,1.8c-0.5,0.5-1.4,0.8-2.5,0.8c-1.2,0-2-0.3-2.5-0.8
			c-0.5-0.5-0.8-1.2-0.8-2H361.8z"/>
		<path class="st1" d="M369.6,1150.6c0.6-0.6,1.4-1,2.5-1c1,0,1.8,0.3,2.3,0.8c0.6,0.5,0.9,1.3,0.9,2.1c0,0.5-0.1,0.9-0.3,1.3
			c-0.2,0.3-0.6,0.8-1.3,1.4c-0.5,0.5-0.8,0.8-0.9,1.2c-0.1,0.3-0.2,0.8-0.2,1.4h-1.3c0-0.7,0.1-1.3,0.2-1.7
			c0.2-0.4,0.5-0.9,1.1-1.5l0.6-0.6c0.2-0.2,0.3-0.3,0.4-0.5c0.2-0.3,0.3-0.6,0.3-1c0-0.5-0.1-0.9-0.4-1.2c-0.3-0.4-0.8-0.5-1.4-0.5
			c-0.8,0-1.4,0.3-1.7,0.9c-0.2,0.3-0.3,0.8-0.3,1.5h-1.3C368.7,1152.1,369,1151.2,369.6,1150.6z M371.2,1159h1.5v1.5h-1.5V1159z"/>
	</g>
	
		<image style="overflow:visible;enable-background:new    ;" width="720" height="972" id="my_gazo" xlink:href="B1606317B458F34.png"  transform="matrix(0.2707 0 0 0.2707 51.447 1104.6823)">
	</image>
	<g class="st0">
		<path class="st1" d="M271.4,1086.6h-4.3v-1.1h4.3V1086.6z M276.1,1090.8c0.6,0.9,1.5,1.8,2.4,2.3c-0.3,0.2-0.7,0.7-1,1.1
			c-0.7-0.5-1.4-1.4-2-2.2v2.7h-1.4v-2.6c-0.6,0.9-1.3,1.7-2.1,2.2c-0.2-0.3-0.6-0.8-0.9-1v0.9h-2.4v0.5h-1.2v-4.1h3.5v2.7
			c0.9-0.5,1.8-1.4,2.4-2.3h-2v-1.3h2.6v-0.7h-2.2v-4.9h5.9v4.9h-2.3v0.7h2.6v1.3H276.1z M271.1,1088.3h-3.5v-1.1h3.5V1088.3z
			 M267.6,1088.8h3.5v1.1h-3.5V1088.8z M271.1,1085h-3.4v-1.1h3.4V1085z M269.9,1091.6h-1.2v1.4h1.2V1091.6z M273.2,1085.9h1v-0.8
			h-1V1085.9z M273.2,1087.7h1v-0.8h-1V1087.7z M276.5,1085.1h-1.1v0.8h1.1V1085.1z M276.5,1087h-1.1v0.8h1.1V1087z"/>
		<path class="st1" d="M282.7,1093.1c0.7,0.2,1.6,0.3,2.7,0.3c0.8,0,4.1,0,5.1,0c-0.2,0.3-0.4,0.8-0.5,1.2h-4.6
			c-2.3,0-3.7-0.2-4.7-1.5c-0.2,0.7-0.4,1.4-0.8,1.8c-0.2-0.3-0.5-0.8-0.8-1c0.7-0.8,0.8-2.2,0.8-3.7h1.1c0,0.4,0,0.9-0.1,1.3
			c0.2,0.4,0.4,0.7,0.6,0.9v-2.7h-2.2v-1h5.4v1h-2v1h1.7v1h-1.7V1093.1z M284.1,1087.9h-4.3v-4h4.3V1087.9z M282.8,1084.9h-1.7v0.6
			h1.7V1084.9z M282.8,1086.4h-1.7v0.6h1.7V1086.4z M287.1,1091.6c-0.5,0.7-1.4,1.4-2.1,1.8c-0.2-0.2-0.7-0.6-0.9-0.8
			c0.7-0.3,1.4-0.8,1.8-1.3L287.1,1091.6z M286.5,1085.7c0.1-0.2,0.1-0.4,0.2-0.6h-2.1v-1h5.5v1H288l-0.3,0.6h2v5.4h-4.8v-5.4H286.5
			z M288.4,1086.6h-2.2v0.6h2.2V1086.6z M288.4,1088.1h-2.2v0.6h2.2V1088.1z M288.4,1089.6h-2.2v0.6h2.2V1089.6z M288.6,1091.1
			c0.6,0.4,1.4,1.1,1.8,1.5l-1,0.6c-0.4-0.5-1.1-1.2-1.7-1.6L288.6,1091.1z"/>
		<path class="st1" d="M302.3,1092.7h-2v2h-1.4v-2h-2.2v-1.2h2.2v-1.1h-1c-0.1,0.3-0.3,0.7-0.5,0.9c-0.2-0.1-0.6-0.4-0.9-0.5v2.5
			c0,0.6-0.1,0.9-0.5,1.1c-0.4,0.2-0.9,0.2-1.6,0.2c0-0.3-0.2-0.9-0.4-1.2c0.5,0,0.9,0,1.1,0s0.2,0,0.2-0.2v-1.7H293
			c-0.1,1.1-0.4,2.3-0.9,3.2c-0.2-0.2-0.7-0.5-1-0.6c0.8-1.2,0.9-3,0.9-4.4v-1.8c-0.2-0.2-0.7-0.6-0.9-0.8c0.8-0.9,1.5-2.3,1.8-3.7
			l1.3,0.3c-0.1,0.3-0.2,0.6-0.3,0.9h1.1l0.2-0.1l0.8,0.5c-0.2,0.5-0.4,1-0.7,1.5h1.3v0.7c1-0.5,1.4-1.2,1.5-2h-1.3v-1.2h5.3
			c0,0,0,0.3,0,0.5c-0.1,1.9-0.2,2.7-0.4,3c-0.2,0.3-0.4,0.3-0.7,0.4c-0.3,0-0.7,0-1.2,0c0-0.4-0.1-0.9-0.3-1.2c0.4,0,0.7,0,0.9,0
			c0.1,0,0.2,0,0.3-0.1c0.1-0.1,0.2-0.5,0.2-1.5h-1.4c-0.2,1.2-0.7,2.2-1.9,2.9l1.1,0.2c0,0.3-0.1,0.5-0.2,0.8h0.6v-1.1h1.4v1.1h1.8
			v1.2h-1.8v1.1h2V1092.7z M293.3,1085.7c-0.1,0.3-0.3,0.6-0.4,0.9h1c0.1-0.3,0.2-0.6,0.3-0.9H293.3z M293,1089.7c0,0.3,0,0.5,0,0.8
			h0.7v-1H293V1089.7z M293,1088.5h0.7v-0.9H293V1088.5z M294.7,1088.5h0.7v-0.9h-0.7V1088.5z M295.3,1090.5v-1h-0.7v1H295.3z
			 M296.5,1090.6c0.4-0.6,0.7-1.5,0.8-2.3c-0.1,0-0.2,0.1-0.3,0.1c-0.1-0.2-0.3-0.6-0.6-0.8V1090.6z"/>
		<path class="st1" d="M305.2,1089.1c-0.5-0.4-1.4-0.9-2.2-1.3l0.8-1.1c0.7,0.3,1.7,0.7,2.2,1.1L305.2,1089.1z M306.6,1090.7
			c-0.6,1.3-1.3,2.7-2,3.8l-1.2-0.9c0.6-0.9,1.5-2.4,2.1-3.8L306.6,1090.7z M305.9,1085.9c-0.4-0.4-1.4-1-2.1-1.3l0.8-1.1
			c0.7,0.3,1.7,0.8,2.2,1.2L305.9,1085.9z M311.4,1090.2c0.6,1.5,1.6,2.7,3.1,3.3c-0.3,0.3-0.8,0.9-1,1.2c-1.6-0.8-2.6-2.1-3.3-3.8
			c-0.4,1.5-1.3,2.8-3.1,3.8c-0.3-0.3-0.8-0.8-1.2-1c1.8-1,2.6-2.2,3-3.5h-2.3v-1.3h2.6c0-0.4,0-0.8,0-1.2v-1h-2v-1.3h2v-1.8h1.4
			v1.8h2.9v3.5h0.9v1.3H311.4z M310.5,1087.7c0,0.4,0,0.8,0,1.2h1.5v-2.2h-1.5V1087.7z"/>
	</g>
	<g class="st0">
		<path class="st1" d="M317.9,1085.6c-0.2,0.8-0.6,3.2-0.6,4.4c0,0.2,0,0.5,0,0.8c0.2-0.4,0.4-0.8,0.5-1.2l0.7,0.6
			c-0.3,1-0.7,2.3-0.9,2.9c0,0.2-0.1,0.4-0.1,0.6c0,0.1,0,0.3,0,0.5l-1.4,0.1c-0.2-0.8-0.5-2.3-0.5-3.9c0-1.8,0.4-3.8,0.5-4.7
			c0-0.3,0.1-0.8,0.1-1.2l1.7,0.1C318.1,1084.7,317.9,1085.3,317.9,1085.6z M320.8,1091.4c0,0.5,0.5,0.9,1.7,0.9c1.1,0,2-0.1,3-0.3
			l0,1.6c-0.8,0.1-1.7,0.2-3.1,0.2c-2.1,0-3.1-0.7-3.1-2c0-0.5,0.1-0.9,0.2-1.6l1.4,0.1C320.9,1090.8,320.8,1091.1,320.8,1091.4z
			 M325.2,1085.3v1.5c-1.5,0.1-3.6,0.1-5.2,0v-1.5C321.5,1085.5,323.9,1085.4,325.2,1085.3z"/>
		<path class="st1" d="M332.1,1083.5v1.3h-2.6v6.4h-1.4v-7.7H332.1z"/>
		<path class="st1" d="M334,1087.8h7.9c0.3,0,0.8,0,1.1-0.1v1.6c-0.3,0-0.8,0-1.1,0h-2.9c-0.1,1.2-0.3,2.2-0.8,3.1
			c-0.4,0.8-1.3,1.8-2.4,2.3l-1.4-1c0.9-0.3,1.7-1,2.2-1.7c0.5-0.7,0.7-1.6,0.7-2.7H334c-0.3,0-0.8,0-1.2,0v-1.6
			C333.2,1087.7,333.6,1087.8,334,1087.8z M335.5,1084.7h3.9c0.4,0,0.9,0,1.3-0.1v1.5c-0.4,0-0.9,0-1.3,0h-3.9c-0.4,0-0.9,0-1.3,0
			v-1.5C334.6,1084.7,335.1,1084.7,335.5,1084.7z M342.4,1085.4l-1,0.4c-0.3-0.5-0.6-1.2-0.9-1.7l1-0.4
			C341.7,1084.2,342.1,1085,342.4,1085.4z M343.8,1084.9l-1,0.4c-0.3-0.5-0.6-1.2-1-1.7l0.9-0.4
			C343.1,1083.7,343.6,1084.5,343.8,1084.9z"/>
		<path class="st1" d="M348.9,1094.6l-1.3-1.2c2.3-0.8,3.3-1.8,3.3-4.8v-0.5h-2.8v1.6c0,0.5,0,1,0,1.3h-1.7c0-0.2,0.1-0.7,0.1-1.3
			v-1.6h-1c-0.6,0-1,0-1.3,0v-1.6c0.2,0,0.7,0.1,1.3,0.1h1v-1.2c0-0.3,0-0.7-0.1-1.1h1.7c0,0.2-0.1,0.6-0.1,1.1v1.2h2.8v-1.3
			c0-0.5,0-0.9-0.1-1.1h1.7c0,0.3-0.1,0.6-0.1,1.1v1.3h0.9c0.6,0,1,0,1.3-0.1v1.6c-0.3,0-0.7,0-1.3,0h-0.9v0.4
			C352.5,1091.5,351.8,1093.3,348.9,1094.6z M354.1,1086l-0.8,0.3c-0.2-0.5-0.4-1.2-0.6-1.6l0.8-0.3
			C353.7,1084.8,354,1085.5,354.1,1086z M355.4,1085.6l-0.8,0.3c-0.2-0.5-0.4-1.2-0.6-1.6l0.8-0.3
			C355,1084.4,355.2,1085.1,355.4,1085.6z"/>
		<path class="st1" d="M361.2,1086.9c1.2-0.8,2.6-2,3.4-2.9l1.3,1.2c-0.9,0.9-2.1,1.8-3.2,2.6v4.8c0,0.5,0,1.3,0.1,1.6h-1.9
			c0-0.3,0.1-1,0.1-1.6v-3.8c-1.2,0.6-2.8,1.3-4.2,1.7l-0.8-1.5C358.1,1088.5,359.9,1087.7,361.2,1086.9z"/>
		<path class="st1" d="M371.7,1091c2.1-1.2,3.6-3,4.4-4.7l0.9,1.7c-0.9,1.6-2.5,3.3-4.4,4.4c-1.2,0.7-2.8,1.4-4.4,1.7l-1-1.6
			C369,1092.3,370.6,1091.7,371.7,1091z M371.7,1087.1l-1.2,1.2c-0.6-0.7-2.1-2-3-2.6l1.1-1.2C369.5,1085.1,371,1086.4,371.7,1087.1
			z"/>
		<path class="st1" d="M377.4,1094.8v-1.3h2.6v-6.4h1.4v7.7H377.4z"/>
		<path class="st1" d="M388.7,1085.3c1.1-0.1,2.3-0.2,3.4-0.3l0,1.4c-1.1,0.2-2.6,0.3-3.9,0.3c-0.2,0.4-0.4,0.9-0.7,1.2
			c0.3-0.1,1-0.2,1.4-0.2c0.7,0,1.3,0.3,1.6,0.9c0.6-0.3,1.1-0.5,1.6-0.7c0.5-0.2,0.9-0.4,1.3-0.6l0.6,1.4c-0.4,0.1-1,0.3-1.4,0.5
			c-0.5,0.2-1.2,0.5-2,0.8c0,0.7,0,1.6,0,2.1h-1.4c0-0.4,0-0.9,0.1-1.5c-0.9,0.5-1.4,1-1.4,1.6c0,0.7,0.6,0.8,1.7,0.8
			c1,0,2.4-0.1,3.4-0.3l0,1.5c-0.8,0.1-2.3,0.2-3.4,0.2c-1.9,0-3.3-0.5-3.3-2c0-1.5,1.4-2.5,2.8-3.2c-0.2-0.3-0.5-0.4-0.8-0.4
			c-0.7,0-1.4,0.4-1.9,0.8c-0.4,0.4-0.7,0.8-1.1,1.3l-1.3-1c1.3-1.2,2.1-2.2,2.7-3.3c-0.1,0-0.1,0-0.2,0c-0.5,0-1.4,0-2-0.1v-1.4
			c0.6,0.1,1.5,0.1,2.1,0.1c0.2,0,0.4,0,0.6,0c0.1-0.5,0.2-0.9,0.2-1.4l1.6,0.1C388.9,1084.4,388.8,1084.8,388.7,1085.3z"/>
	</g>
	<g class="st0">
		<path class="st1" d="M269.4,1109.3c-0.5-0.3-1.5-0.9-2.2-1.3l0.8-1.1c0.7,0.3,1.7,0.8,2.3,1.2L269.4,1109.3z M267.3,1113.6
			c0.6-0.9,1.6-2.4,2.3-3.8l1,1c-0.6,1.3-1.4,2.6-2.1,3.8L267.3,1113.6z M269.9,1106c-0.5-0.4-1.5-0.9-2.2-1.3l0.8-1
			c0.7,0.3,1.7,0.9,2.2,1.2L269.9,1106z M275.2,1108.4v1.5h2.4v4.8h-1.4v-0.4h-3.6v0.5h-1.3v-4.8h2.4v-1.5h-3.2v-1.4h3.2v-1.4
			c-0.8,0.1-1.6,0.2-2.3,0.3c-0.1-0.3-0.3-0.9-0.4-1.2c2-0.2,4.3-0.6,5.6-1.1l1.1,1.1c-0.8,0.3-1.7,0.5-2.6,0.7v1.6h3v1.4H275.2z
			 M276.3,1111.2h-3.6v1.8h3.6V1111.2z"/>
		<path class="st1" d="M289.5,1113c0,0.8-0.2,1.2-0.6,1.4c-0.5,0.2-1.2,0.3-2.3,0.3c0-0.4-0.3-1-0.5-1.4c0.7,0,1.5,0,1.7,0
			c0.2,0,0.3-0.1,0.3-0.3v-1.8h-2.5v3.3h-1.4v-3.3h-2.4c-0.2,1.3-0.6,2.6-1.5,3.6c-0.2-0.3-0.8-0.8-1.1-0.9c1.3-1.4,1.4-3.6,1.4-5.3
			v-4.3h9.1V1113z M284.1,1109.9v-1.5h-2.3v0.2c0,0.4,0,0.8,0,1.3H284.1z M281.8,1105.7v1.4h2.3v-1.4H281.8z M288.1,1105.7h-2.5v1.4
			h2.5V1105.7z M288.1,1109.9v-1.5h-2.5v1.5H288.1z"/>
	</g>
	<g class="st0">
		<path class="st1" d="M294.3,1105.8c0,1.3-0.1,4-0.1,5.5c0,1.2,0.7,1.6,1.7,1.6c2,0,3.2-1.1,4.1-2.4l1.1,1.3
			c-0.8,1.2-2.5,2.8-5.2,2.8c-2,0-3.2-0.9-3.2-2.9c0-1.6,0.1-4.8,0.1-5.8c0-0.6,0-1.1-0.2-1.6l1.9,0
			C294.3,1104.7,294.3,1105.3,294.3,1105.8z"/>
		<path class="st1" d="M307.7,1104.8c0,0.1,0,0.3,0,0.5c1,0,2-0.1,3-0.3l0,1.4c-0.8,0.1-1.9,0.2-3,0.3c0,0.4,0,0.9,0,1.2
			c1.2-0.1,2.2-0.2,3.2-0.3l0,1.4c-1.1,0.1-2,0.2-3.2,0.2c0,0.5,0,0.9,0.1,1.4c1.5,0.4,2.7,1.2,3.4,1.8l-0.9,1.3
			c-0.6-0.6-1.5-1.2-2.4-1.7c0,0.2,0,0.3,0,0.4c0,1-0.8,1.8-2.4,1.8c-1.9,0-2.9-0.7-2.9-2c0-1.2,1.1-2.1,3-2.1c0.3,0,0.5,0,0.7,0
			c0-0.4,0-0.8,0-1.1c-0.2,0-0.4,0-0.6,0c-0.7,0-2.1-0.1-2.9-0.2l0-1.4c0.8,0.1,2.3,0.2,2.9,0.2c0.2,0,0.4,0,0.6,0
			c0-0.4,0-0.8,0-1.2c-0.2,0-0.3,0-0.4,0c-0.8,0-2.1-0.1-2.9-0.2l0-1.4c0.9,0.1,2.2,0.3,3,0.3c0.2,0,0.3,0,0.5,0c0-0.2,0-0.4,0-0.6
			c0-0.2,0-0.6-0.1-0.8h1.6C307.8,1104.2,307.7,1104.5,307.7,1104.8z M305.3,1113.1c0.6,0,1.1-0.2,1.1-0.9c0-0.1,0-0.3,0-0.5
			c-0.3,0-0.6-0.1-1-0.1c-0.9,0-1.3,0.3-1.3,0.7C304,1112.8,304.5,1113.1,305.3,1113.1z"/>
		<path class="st1" d="M320.6,1105.3c0,0.5,0,0.9,0,1.3c0.3,0,0.6,0,0.9-0.1c0.3,0,0.8,0,1.2-0.1v1.5c-0.2,0-0.8,0-1.2,0
			c-0.3,0-0.6,0-0.9,0c0,0.9-0.1,1.9-0.2,2.4c-0.1,0.6-0.4,0.8-1,0.8c-0.4,0-1.4-0.1-1.8-0.2l0-1.3c0.4,0.1,0.9,0.2,1.1,0.2
			c0.2,0,0.3,0,0.4-0.3c0-0.3,0.1-0.9,0.1-1.5c-1.1,0.1-2.2,0.2-3.3,0.3c0,1.1,0,2.2,0,2.7c0,1.2,0.1,1.4,1.9,1.4
			c1.2,0,2.7-0.1,3.6-0.3l-0.1,1.6c-0.8,0.1-2.3,0.2-3.4,0.2c-3.1,0-3.5-0.6-3.5-2.7c0-0.5,0-1.7,0-2.8c-0.3,0-0.6,0.1-0.8,0.1
			c-0.4,0-1.1,0.2-1.4,0.2l-0.2-1.5c0.3,0,0.9,0,1.5-0.1c0.2,0,0.5,0,0.9-0.1c0-0.6,0-1,0-1.2c0-0.5,0-0.9-0.1-1.3h1.7
			c-0.1,0.4-0.1,0.7-0.1,1.2c0,0.3,0,0.7,0,1.2c1-0.1,2.2-0.2,3.3-0.3v-1.4c0-0.3,0-0.9-0.1-1.1h1.6
			C320.6,1104.5,320.6,1105,320.6,1105.3z"/>
		<path class="st1" d="M329.1,1105.3c-0.6,0.9-1.4,2.4-2,3.5c0.4-0.3,0.9-0.4,1.4-0.4c0.9,0,1.4,0.6,1.5,1.6c0,0.5,0,1.5,0,2
			c0,0.5,0.4,0.6,0.8,0.6c1,0,1.7-1.3,2-2.8l1.3,1.1c-0.6,2.1-1.7,3.4-3.6,3.4c-1.3,0-2-0.8-2-1.7c0-0.6,0-1.6-0.1-2.1
			c0-0.4-0.3-0.7-0.7-0.7c-0.8,0-1.5,0.8-1.9,1.8c-0.3,0.7-0.7,2-0.9,2.7l-1.7-0.6c0.9-2.4,3.3-7.3,4-8.4c0.2-0.3,0.4-0.7,0.6-1.2
			l1.7,0.7C329.4,1104.9,329.2,1105.1,329.1,1105.3z"/>
		<path class="st1" d="M339.5,1105.2c-0.1,0.4-0.2,0.8-0.3,1.2c0.4,0,0.8,0,1,0c1.3,0,2.2,0.6,2.2,2.3c0,1.4-0.2,3.4-0.7,4.4
			c-0.4,0.8-1.1,1.1-2,1.1c-0.5,0-1-0.1-1.4-0.2l-0.3-1.6c0.5,0.1,1.2,0.3,1.5,0.3c0.4,0,0.7-0.1,0.9-0.5c0.3-0.7,0.5-2.1,0.5-3.3
			c0-1-0.4-1.1-1.2-1.1c-0.2,0-0.5,0-0.8,0c-0.5,1.8-1.3,4.7-2.4,6.4l-1.6-0.6c1.2-1.6,2-4,2.4-5.6c-0.4,0-0.8,0.1-1,0.1
			c-0.3,0.1-1,0.1-1.3,0.2l-0.1-1.6c0.4,0,0.8,0,1.3,0c0.4,0,0.9,0,1.5-0.1c0.2-0.9,0.3-1.8,0.3-2.5l1.8,0.2
			C339.7,1104.5,339.6,1104.9,339.5,1105.2z M346,1109.8l-1.5,0.7c-0.3-1.3-1.2-3.5-2-4.6l1.4-0.6
			C344.6,1106.4,345.6,1108.7,346,1109.8z"/>
		<path class="st1" d="M351.6,1107.1c0-0.7-0.6-1.1-1.5-1.1c-0.7,0-1.3,0.3-1.9,0.9l-1-0.9c0.8-0.9,1.8-1.5,3.1-1.5
			c1.7,0,3,0.8,3,2.4c0,1.8-2.6,2-2.4,3.6h-1.5C349,1108.7,351.6,1108.3,351.6,1107.1z M349,1112.7c0-0.6,0.5-1.1,1.1-1.1
			c0.6,0,1.1,0.4,1.1,1.1c0,0.6-0.4,1.1-1.1,1.1C349.4,1113.8,349,1113.4,349,1112.7z"/>
	</g>
	<g id="グループ_291" transform="translate(219.83 1042.38)">
		<path id="パス_120" class="st2" d="M123.9,164.1c-30.1,0-57.2-5.2-78.2-15.1c-2.7,3.3-5.9,6.2-9.5,8.6
			c-4.2,2.8-9.2,4.4-14.2,4.4h-5.2l4.4-2.8c1.6-1.2,3.1-2.7,4.2-4.3c1.3-1.9,2.5-3.9,3.3-6c1.1-2.6,1.9-5.4,2.3-8.2
			c-10.2-6.9-18.2-15.3-23.7-24.8c-6-10.6-9.1-22.5-9-34.7c0-7.1,0.8-14.2,2.6-21.1c3.1-12.3,9.8-23.4,19.1-32.1
			c4.7-4.3,9.9-8.1,15.4-11.3c10.9-6.3,24.4-11,39.9-14.1c16-3,32.3-4.4,48.5-4.3c16.3-0.1,32.6,1.5,48.6,4.7
			c15.4,3.3,28.8,8.2,39.8,14.7c11.8,6.9,20.9,15.6,27.1,25.8c3.3,5.4,5.8,11.2,7.4,17.3c1.7,6.6,2.6,13.4,2.6,20.3
			c0,7.1-0.8,14.2-2.6,21.1c-3.1,12.3-9.8,23.4-19.1,32.1c-4.7,4.3-9.9,8.1-15.4,11.3c-11,6.3-24.4,11-39.9,14.1
			C156.5,162.8,140.2,164.2,123.9,164.1z M44.9,145.2l1.1,0.5c20.8,10,47.8,15.3,78,15.3c16.1,0.1,32.1-1.3,48-4.2
			c15.2-3,28.3-7.6,38.9-13.7c5.4-3,10.3-6.7,14.9-10.9c8.9-8.2,15.2-18.9,18.2-30.6c1.7-6.6,2.5-13.5,2.5-20.3
			c0-6.6-0.8-13.1-2.5-19.5c-1.6-5.8-3.9-11.4-7.1-16.5c-5.9-9.8-14.7-18.1-26-24.8c-21.2-12.5-51.2-19-86.9-19
			c-16.1-0.1-32.1,1.3-48,4.2c-15.2,3-28.3,7.6-38.9,13.7c-5.4,3-10.3,6.7-14.9,10.9C13.3,38.6,7,49.2,4,61
			c-1.7,6.6-2.5,13.5-2.5,20.3c-0.1,11.6,2.8,23.1,8.6,33.2c5.4,9.3,13.3,17.5,23.5,24.3l0.8,0.5l-0.1,0.9c-0.5,3.4-1.4,6.8-2.7,9.9
			c-1,2.4-2.2,4.6-3.8,6.6c-0.5,0.6-1,1.2-1.4,1.7c2.9-0.6,5.8-1.8,8.3-3.5c3.6-2.4,6.8-5.4,9.5-8.9L44.9,145.2z"/>
	</g>
</g>
</svg>
