<svg xmlns="http://www.w3.org/2000/svg" width="432.58" height="28.6" viewBox="0 0 432.58 28.6"><path d="M111.97-25.67h3.82v2.19h11.7v3.25h-11.7v.53h8.73v6.52h-8.73v.77H125v3.69h3.12v3.19H125V-.28h-3.82V-1.57h-5.39V-.51c0,1.695-.485,2.541-1.731,3.017l-.012,0a17.881,17.881,0,0,1-5.266.419h-.395l-.091-.384A8.141,8.141,0,0,0,107.4.452l-.525-.807.962.035c.863.031,1.862.049,2.74.049.526,0,.953-.007,1.14-.019a1.112,1.112,0,0,0,.239-.032.829.829,0,0,0,.012-.159V-1.57h-9.36v-3.1h9.36v-.86h-12V-8.72h12v-.71h-9.09v-2.98h9.09v-.77h-8.31V-19.7h8.31v-.53H100.6v-3.25h11.37Zm2.82,1h-1.82v2.19H101.6v1.25h11.37v2.53h-8.31v4.52h8.31v2.77h-9.09v.98h9.09v2.71h-12v1.19h12v2.86h-9.36v1.1h9.36V-.48c0,1.007-.68,1.161-1.192,1.189-.21.013-.637.02-1.2.02-.605,0-1.267-.008-1.9-.024a10.05,10.05,0,0,1,.483,1.224,16.323,16.323,0,0,0,4.549-.359c.748-.288,1.082-.658,1.082-2.081V-2.57h7.39v1.29H124V-6.53h3.12V-7.72H124v-3.69h-9.21v-2.77h8.73V-18.7h-8.73v-2.53h11.7v-1.25h-11.7Zm-38.77-.18,4.393.439-.126.553c-.217.949-.556,2.308-.915,3.677a26.865,26.865,0,0,0,3.573-.874l.633-.206.124,3.818-.378.106a40.279,40.279,0,0,1-5.134,1.052A53.775,53.775,0,0,1,71.713-3.694l-.252.342L67.644-5.3l.4-.481a44.638,44.638,0,0,0,5.924-10.1c-.482.017-.954.03-1.431.03-1.186,0-2.439-.031-3.625-.091l-.441-.022-.288-3.826.594.061c1.083.111,2.488.177,3.759.177.983,0,1.869-.03,2.7-.09A23.434,23.434,0,0,0,76-24.319Zm3.163,1.321-2.214-.221a26.62,26.62,0,0,1-.857,4.71l-.091.339-.35.03c-.956.082-1.981.122-3.133.122-1.082,0-2.26-.047-3.267-.128l.132,1.76c1.036.045,2.111.069,3.135.069.682,0,1.363-.027,2.083-.056l.856-.034-.285.715a46.567,46.567,0,0,1-5.986,10.6l1.948.994A53.5,53.5,0,0,0,77.348-16.9l.1-.291.3-.041a40.375,40.375,0,0,0,4.924-.963l-.056-1.71a30.626,30.626,0,0,1-3.854.843l-.759.119.2-.742C78.569-21.04,78.928-22.453,79.184-23.529ZM309.14-24.5h4.409l-.062.555c-.048.431-.115,1.108-.147,2v.024c-.016.189-.023.454-.031.761,0,.083,0,.17-.007.26a65.518,65.518,0,0,0,7.287-.806l.583-.1v3.794l-.44.053c-2.552.31-5.127.531-7.48.642v2.719c2.488-.117,4.934-.348,7.652-.723l.575-.079-.041,3.809-.436.052c-2.692.322-5.079.522-7.667.641.026.551.056,1.111.085,1.657s.059,1.108.085,1.654A24.537,24.537,0,0,1,321.945-3l.35.284L319.988.826l-.435-.4a23,23,0,0,0-5.845-3.972c.013.288.022.548.022.782a4.476,4.476,0,0,1-1.484,3.4,6.722,6.722,0,0,1-4.6,1.446,9.657,9.657,0,0,1-5.434-1.3,4.483,4.483,0,0,1-2-3.879A4.6,4.6,0,0,1,302.329-7,9.746,9.746,0,0,1,307.86-8.42c.6,0,1.159.034,1.7.076-.014-.43-.03-.866-.046-1.291-.015-.405-.03-.8-.043-1.175H308.31c-1.917,0-5.282-.15-7.378-.393l-.438-.051-.041-3.854.586.095a57.968,57.968,0,0,0,7.33.534h1.03v-2.69h-.73c-2.07,0-5.739-.316-7.591-.544l-.434-.053-.041-3.772.595.107a53.626,53.626,0,0,0,7.442.652h.79v-1.33a9.37,9.37,0,0,0-.135-1.769Zm3.3,1h-2.071c.058.554.064,1.165.064,1.39v2.33h-1.79a56.524,56.524,0,0,1-7.023-.57l.019,1.695c1.919.218,5.155.485,7.035.485h1.73v4.69h-2.03a62.315,62.315,0,0,1-6.9-.46l.019,1.791c2.067.211,5.065.339,6.825.339h2.137l.013.486c.014.528.035,1.074.057,1.651.023.613.047,1.247.063,1.86l.014.557-.556-.046c-.7-.058-1.419-.118-2.178-.118A8.776,8.776,0,0,0,302.9-6.174,3.639,3.639,0,0,0,301.22-3.09a3.478,3.478,0,0,0,1.559,3.051A8.718,8.718,0,0,0,307.65,1.09,5.852,5.852,0,0,0,311.582-.1,3.463,3.463,0,0,0,312.73-2.76c0-.329-.02-.729-.043-1.192q-.008-.166-.017-.344l-.037-.782.725.295A22.981,22.981,0,0,1,319.789-.7l1.174-1.8a23.141,23.141,0,0,0-8.076-4.216l-.35-.1-.016-.363c-.029-.652-.066-1.339-.1-2-.038-.714-.078-1.452-.109-2.166l-.022-.5.5-.021c2.615-.109,5-.3,7.656-.606l.019-1.772c-2.71.359-5.17.575-7.694.677l-.52.021v-4.72l.479-.02c2.322-.1,4.885-.3,7.441-.6v-1.728a66.85,66.85,0,0,1-7.367.751l-.548.025.025-.548c.013-.283.02-.553.027-.792.009-.316.016-.589.033-.8C312.362-22.591,312.4-23.1,312.437-23.5Zm90.585-.935,4.637.476-.132.555c-.122.513-.258,1.181-.414,2.044v.006c-.1.5-.223,1.167-.357,1.871-.077.4-.157.827-.238,1.256.931-.078,1.777-.122,2.384-.122a5.711,5.711,0,0,1,3.975,1.238c1.093.981,1.625,2.5,1.625,4.632,0,3.665-.462,8.507-1.76,11.108A4.649,4.649,0,0,1,410.635.937a6.383,6.383,0,0,1-2.965.583,17.373,17.373,0,0,1-3.688-.434l-.325-.079-.651-4.233.758.227a15.117,15.117,0,0,0,3.516.579,1.849,1.849,0,0,0,2.006-1.15l0-.008a23.258,23.258,0,0,0,1.3-8.572c0-2.165-.79-2.53-2.56-2.53-.58,0-1.427.051-2.362.142-.85,3.315-2.993,10.785-6.183,15.941l-.221.356L395.182.134l.387-.522c3.037-4.1,5.079-10.529,5.967-13.735-1.067.12-1.993.234-2.561.308h-.005c-.695.083-2.1.265-2.942.416l-.536.1-.4-4.361.581.034c.386.023.781.034,1.206.034.5,0,1-.015,1.523-.03l.137,0c.8-.025,2.173-.119,3.883-.265a31.787,31.787,0,0,0,.612-5.977Zm3.407,1.355-2.4-.246a36,36,0,0,1-.7,5.989l-.07.372-.377.033c-1.9.167-3.437.274-4.318.3l-.137,0c-.535.016-1.041.031-1.553.031-.236,0-.463,0-.685-.01l.2,2.134c.837-.131,1.885-.266,2.459-.335.7-.091,1.935-.242,3.309-.391l.724-.079-.186.7c-.744,2.812-2.777,9.67-5.945,14.254l2.1.838c3.11-5.21,5.177-12.64,5.933-15.641l.085-.339.347-.037c1.1-.116,2.128-.183,2.812-.183a3.962,3.962,0,0,1,2.556.661,3.46,3.46,0,0,1,1,2.869c0,3.042-.432,7-1.4,9A2.865,2.865,0,0,1,407.28-1.42a15.587,15.587,0,0,1-3.05-.421l.312,2.029A16.548,16.548,0,0,0,407.67.52c2.224,0,3.392-.651,4.166-2.32l.006-.013C413.066-4.26,413.5-9.088,413.5-12.48c0-1.836-.423-3.107-1.293-3.888a4.781,4.781,0,0,0-3.307-.982c-.719,0-1.794.065-2.951.178l-.665.065.126-.657c.124-.646.248-1.3.363-1.906.133-.7.259-1.368.357-1.872C406.237-22.14,406.337-22.649,406.429-23.08ZM167.02-24.32h26.02V2.93h-3.91V1.58H170.81V2.93h-3.79Zm25.02,1H168.02V1.93h1.79V.58h20.32V1.93h1.91ZM46.162-24.291l4.406,1.77-.357.515c-.143.206-.308.463-.482.735-.151.235-.307.479-.473.727-1.178,1.792-3.1,5.2-4.479,7.723A6.627,6.627,0,0,1,47.46-13.4a3.973,3.973,0,0,1,2.926,1.129,4.711,4.711,0,0,1,1.2,3.126v.005c.024.635.029,1.376.034,2.161.007,1.126.014,2.289.084,3.1v.011c.063.964.632,1.453,1.691,1.453a4.023,4.023,0,0,0,3.254-2.1,14.715,14.715,0,0,0,1.929-4.742l.184-.782,3.4,2.794-.1.322a15.727,15.727,0,0,1-3.361,6.25A7.759,7.759,0,0,1,52.92,1.79a5.194,5.194,0,0,1-3.859-1.4A4.6,4.6,0,0,1,47.8-2.64c-.066-.94-.087-2.057-.107-3.138-.017-.9-.033-1.749-.073-2.411A1.327,1.327,0,0,0,46.14-9.61a4.175,4.175,0,0,0-2.774,1.3,10.5,10.5,0,0,0-2.174,3.09,55.047,55.047,0,0,0-2.429,6.668l-.14.51L34.334.52l.177-.482c2.241-6.119,8.69-18.487,10.229-21.274l.1-.19a25.417,25.417,0,0,0,1.138-2.4Zm2.883,2.236-2.332-.937c-.335.777-.678,1.436-.987,2.028l-.107.205C44.132-18.067,38-6.314,35.629-.1L37.945.68a55.748,55.748,0,0,1,2.344-6.324c1.14-2.4,3.276-4.966,5.852-4.966a2.478,2.478,0,0,1,1.778.649,2.521,2.521,0,0,1,.7,1.716c.042.678.058,1.538.075,2.449.02,1.07.041,2.177.1,3.092v.012A3.6,3.6,0,0,0,49.774-.31,4.242,4.242,0,0,0,52.92.79c3.746,0,6.395-2.52,8.09-7.7L59.36-8.265a14.792,14.792,0,0,1-1.879,4.3A4.952,4.952,0,0,1,53.4-1.42,2.44,2.44,0,0,1,50.711-3.8c-.073-.845-.08-2.027-.088-3.169,0-.776-.01-1.509-.033-2.128a3.738,3.738,0,0,0-.919-2.472A2.961,2.961,0,0,0,47.46-12.4a6.148,6.148,0,0,0-3.686,1.337L43.03-11.7c1.309-2.434,3.917-7.152,5.393-9.4.162-.244.316-.483.465-.715Zm324.717-2.236,4.406,1.77-.357.515c-.143.206-.308.463-.482.735-.151.235-.307.479-.473.727-1.178,1.792-3.1,5.2-4.479,7.723a6.627,6.627,0,0,1,2.683-.581,3.973,3.973,0,0,1,2.926,1.129,4.711,4.711,0,0,1,1.2,3.126v.005c.024.635.029,1.376.034,2.161.007,1.126.014,2.289.084,3.1v.011c.063.964.632,1.453,1.691,1.453a4.023,4.023,0,0,0,3.254-2.1,14.715,14.715,0,0,0,1.929-4.742l.184-.782,3.4,2.794-.1.322a15.727,15.727,0,0,1-3.361,6.25A7.759,7.759,0,0,1,380.52,1.79a5.194,5.194,0,0,1-3.859-1.4A4.6,4.6,0,0,1,375.4-2.64c-.066-.94-.087-2.057-.107-3.138-.017-.9-.033-1.749-.073-2.411A1.327,1.327,0,0,0,373.74-9.61a4.176,4.176,0,0,0-2.774,1.3,10.5,10.5,0,0,0-2.174,3.09,55.052,55.052,0,0,0-2.429,6.668l-.14.51L361.934.52l.177-.482c2.241-6.119,8.69-18.487,10.229-21.274l.1-.19a25.425,25.425,0,0,0,1.138-2.4Zm2.883,2.236-2.332-.937c-.335.777-.678,1.436-.987,2.028l-.107.205C371.732-18.067,365.6-6.314,363.229-.1l2.315.779a55.748,55.748,0,0,1,2.344-6.324c1.14-2.4,3.276-4.966,5.852-4.966a2.477,2.477,0,0,1,1.778.649,2.521,2.521,0,0,1,.7,1.716c.042.678.058,1.538.075,2.449.02,1.07.041,2.177.1,3.092v.012a3.6,3.6,0,0,0,.974,2.383A4.241,4.241,0,0,0,380.52.79c3.746,0,6.395-2.52,8.09-7.7l-1.65-1.355a14.793,14.793,0,0,1-1.879,4.3A4.952,4.952,0,0,1,381-1.42,2.44,2.44,0,0,1,378.311-3.8c-.073-.845-.08-2.027-.088-3.169,0-.776-.01-1.509-.033-2.128a3.738,3.738,0,0,0-.919-2.472,2.961,2.961,0,0,0-2.211-.828,6.148,6.148,0,0,0-3.686,1.337l-.745-.633c1.309-2.434,3.917-7.152,5.393-9.4.162-.244.316-.483.465-.715ZM346.33-23.81h4.4l-.111.592a17.473,17.473,0,0,0-.141,2.278v.012c-.015.631-.022,1.268-.029,1.885-.005.461-.011.9-.019,1.339.56-.045,1.1-.082,1.6-.115l.7-.049h.016c.606-.023,1.369-.084,2.041-.138l.519-.041.538-.041v4.01l-.529-.031c-.13-.008-.33-.012-.593-.012-.6,0-1.424.021-1.968.042h-.019c-.657,0-1.463.043-2.393.094a40.438,40.438,0,0,1-.447,5.8c-.386,1.853-1.447,2.232-2.92,2.232a35.569,35.569,0,0,1-4.282-.457l-.428-.071.084-3.646.59.125a16.9,16.9,0,0,0,2.776.379,1.058,1.058,0,0,0,.484-.059c.013-.009.051-.073.068-.267l0-.037a35.375,35.375,0,0,0,.273-3.723c-2.829.237-5.616.5-7.954.745-.028,2.753-.053,5.508,0,6.666v.01c.042,1.445.093,2.355.6,2.838.531.51,1.728.727,4,.727a55.019,55.019,0,0,0,8.847-.741l.61-.115L352.538.685l-.428.051a84.662,84.662,0,0,1-8.729.514c-3.845,0-5.908-.452-7.121-1.56-1.234-1.127-1.5-2.8-1.569-5.5-.028-1.215-.03-3.958-.03-6.716l-.335.035c-.714.075-1.33.14-1.8.2-.828.107-2.442.323-3.262.449l-.517.08L328.3-15.89h.557c.938,0,2.157-.065,3.343-.178.578-.053,1.412-.128,2.457-.227V-19.5a17.286,17.286,0,0,0-.2-2.8l-.09-.577h4.473l-.062.555a23.332,23.332,0,0,0-.147,2.675c0,.728,0,1.778-.02,2.988,2.154-.209,4.788-.453,8.02-.745V-20.85a19.536,19.536,0,0,0-.2-2.378Zm3.234,1h-2.071a19.4,19.4,0,0,1,.138,1.96v4.357l-.455.041c-3.728.335-6.68.61-9.026.84l-.56.055.012-.563c.03-1.435.03-2.7.03-3.53,0-.781.03-1.489.1-2.23h-2.2a18.806,18.806,0,0,1,.135,2.38v4.115l-.453.043c-1.261.12-2.255.21-2.912.27-.993.095-2.011.156-2.879.176l.215,2c.872-.126,2.085-.287,2.765-.375.479-.065,1.1-.131,1.825-.207l.886-.094.554-.06v.557c0,2.932,0,5.964.03,7.248.059,2.419.274,3.9,1.244,4.784,1,.91,2.924,1.3,6.447,1.3,2.682,0,6.035-.223,8.182-.458l.061-2.165a58.264,58.264,0,0,1-8.423.652c-2.626,0-3.942-.282-4.7-1.006-.823-.79-.859-2-.9-3.524-.061-1.253-.03-4.258,0-7.165l0-.445.442-.048c2.583-.278,5.773-.576,8.982-.841l.561-.046-.02.562a41.424,41.424,0,0,1-.3,4.4c-.105,1.068-.8,1.215-1.546,1.215a15.812,15.812,0,0,1-2.394-.285l-.036,1.579a32.346,32.346,0,0,0,3.69.376c1.289,0,1.706-.308,1.941-1.432a43.3,43.3,0,0,0,.44-6.091l.012-.461.852-.046c.969-.053,1.807-.1,2.506-.1.554-.021,1.383-.042,2-.042h.123v-1.887c-.674.054-1.434.114-2.052.138l-.7.048c-.653.045-1.393.1-2.135.16l-.558.049.014-.56c.015-.607.023-1.227.03-1.883.007-.617.015-1.255.03-1.89C349.48-21.434,349.509-22.209,349.564-22.81Zm-93.074.178v4.052h-.5a25.988,25.988,0,0,0-5.683.431,8.79,8.79,0,0,0-4.554,3.433A9.213,9.213,0,0,0,244.01-9.6a5.858,5.858,0,0,0,2.934,5.293A14.04,14.04,0,0,0,253.611-2.6l.673.028L252.829,1.6l-.372-.017a15.8,15.8,0,0,1-8.491-2.735A9.332,9.332,0,0,1,239.95-8.97a12.437,12.437,0,0,1,1.706-6.217,12.726,12.726,0,0,1,2.237-2.851c-3.41.37-8.812.977-11.588,1.577l-.547.118-.439-4.393.538-.014c1.1-.028,2.155-.085,2.75-.147,1.833-.176,7.4-.709,13.062-1.171,2.82-.237,5.846-.434,8.3-.541Zm-1,3.053v-2.008c-2.34.11-5.126.3-7.738.515-5.661.461-11.218.994-13.044,1.169-.516.054-1.363.1-2.287.136l.222,2.215c3.208-.625,8.868-1.236,11.99-1.573l.864-.093.328.915a11.007,11.007,0,0,0-3.3,3.616A11.437,11.437,0,0,0,240.95-8.97a8.475,8.475,0,0,0,.992,4.091,8.8,8.8,0,0,0,2.612,2.915A14.647,14.647,0,0,0,252.132.56l.767-2.2a14.714,14.714,0,0,1-6.479-1.817A7.149,7.149,0,0,1,243.954-5.9a7.179,7.179,0,0,1-.944-3.7,10.232,10.232,0,0,1,1.925-5.691,9.789,9.789,0,0,1,5.091-3.818l.014,0A24.507,24.507,0,0,1,255.49-19.579Zm-96.62-2.9v4.045h-.5a28.159,28.159,0,0,0-5.717.4A9.456,9.456,0,0,0,146.39-9.48a5.862,5.862,0,0,0,2.931,5.293,13.964,13.964,0,0,0,6.64,1.707l.665.028-1.413,4.2-.379-.019c-6.224-.318-12.5-3.7-12.5-10.549a12.675,12.675,0,0,1,3.955-9.081c-5.5.568-9.5,1.1-11.63,1.56l-.551.118-.4-4.363.534-.014c1.069-.028,2.124-.085,2.753-.148,1.808-.173,7.3-.7,13.056-1.2,3.123-.263,6.151-.449,8.309-.512Zm-1,3.046v-2.015c-2.094.075-4.875.251-7.738.492-5.746.5-11.239,1.026-13.044,1.2-.544.054-1.39.1-2.291.136l.2,2.186c2.505-.485,6.934-1.047,12.884-1.637l.323.916a10.852,10.852,0,0,0-3.3,3.605A11.433,11.433,0,0,0,143.33-8.82a8.418,8.418,0,0,0,.992,4.073,8.819,8.819,0,0,0,2.612,2.909A14.793,14.793,0,0,0,154.508.707l.749-2.226A14.647,14.647,0,0,1,148.8-3.336a7.151,7.151,0,0,1-2.463-2.445,7.183,7.183,0,0,1-.943-3.7,10.273,10.273,0,0,1,1.908-5.678,9.725,9.725,0,0,1,5.078-3.831L152.4-19A26.451,26.451,0,0,1,157.87-19.429ZM23.72-21.97v4.135l-.464.034c-1.5.109-5.316.361-8.376.361-3.25,0-5.922-.168-8.107-.331l-.463-.035v-4.149l.561.069a67.7,67.7,0,0,0,7.979.386c3.625,0,7.287-.32,8.323-.418Zm-1,3.2v-2.107c-1.476.129-4.686.373-7.87.373a72.605,72.605,0,0,1-7.54-.329v2.095c2.078.151,4.578.294,7.57.294C17.63-18.44,21.009-18.647,22.72-18.766ZM169.81-21.74h20.32V-1.03H169.81Zm8.28,1h-7.28v14l.072-.046a17.574,17.574,0,0,0,5.71-6.788H171.37v-3.37h6.72Zm11.04,0h-7.46v3.8h7.11v3.37h-5.654a16.562,16.562,0,0,0,5.881,6.506l.122.07Zm-8.46.96h-1.58v3.84h-6.72v1.37h5.8l-.328.71A19.7,19.7,0,0,1,171.952-6.3a14.006,14.006,0,0,1,1.036,1.157,20.358,20.358,0,0,0,5.156-6.723l.946.225v8.26h1.58v-8.44l.947-.224a19.635,19.635,0,0,0,5.217,6.773,10.843,10.843,0,0,1,1.095-1.283,18.6,18.6,0,0,1-6.069-7.3l-.349-.718h6.269v-1.37h-7.11Zm6.441,15.933-.436-.3A18.331,18.331,0,0,1,181.67-9.86v7.48h-3.58V-9.695a19.16,19.16,0,0,1-4.906,5.659l-.412.3-.292-.417a11.393,11.393,0,0,0-1.65-1.823l-.02-.017V-2.03h18.32V-6.285l-.06.047A8.847,8.847,0,0,0,187.387-4.3ZM265.384-21.72l4.878.08-.1.575a24.18,24.18,0,0,0-.293,3.155v.008c-.022,1.39-.024,4.108.208,6.7.445,4.654,1.638,7.435,3.192,7.435.93,0,2.2-2.365,3.025-5.623l.238-.941,3.187,3.752-.1.274a17.321,17.321,0,0,1-2.955,5.535A4.516,4.516,0,0,1,273.21.92c-2.231,0-6.124-1.457-7.127-11.215a77.429,77.429,0,0,1-.333-8.095,14.718,14.718,0,0,0-.228-2.712Zm3.706,1.061-2.484-.041a18.453,18.453,0,0,1,.144,2.31,76.475,76.475,0,0,0,.327,7.984v.005c.371,3.615,1.177,6.344,2.4,8.111A4.471,4.471,0,0,0,273.21-.08c1.4,0,3.264-.723,5.369-6.3l-1.566-1.844a18.258,18.258,0,0,1-1.241,3.208c-.776,1.49-1.618,2.245-2.5,2.245-1.186,0-2.157-.833-2.887-2.476a19.492,19.492,0,0,1-1.3-5.867c-.237-2.636-.235-5.392-.212-6.8A24.816,24.816,0,0,1,269.09-20.659Zm148.464-.446.236.316a51.918,51.918,0,0,1,5.443,11.058l.145.425-3.919,1.821-.153-.577c-.888-3.36-3.146-8.546-5.093-10.91l-.423-.514Zm4.583,11.273a53.724,53.724,0,0,0-4.919-10.04l-1.828.786a28.76,28.76,0,0,1,2.732,4.9,42.472,42.472,0,0,1,1.99,5.29ZM285.2-20.985l.218.274c2.949,3.718,5.1,10.791,5.477,15.481l.03.371-4.051,1.573-.065-.655a41.755,41.755,0,0,0-1.659-8.194,20.629,20.629,0,0,0-3.476-6.953l-.474-.563ZM289.869-5.52a35.083,35.083,0,0,0-1.738-7.63,25.294,25.294,0,0,0-3.28-6.663l-1.956.652a22.643,22.643,0,0,1,3.212,6.726,42.735,42.735,0,0,1,1.631,7.743ZM86.817-20.669l.386.172a53.108,53.108,0,0,1,7.289,4.071l.4.286-2.3,3.346-.422-.353a37.34,37.34,0,0,0-6.907-4.129l-.533-.243Zm6.689,4.776a56.523,56.523,0,0,0-6.325-3.516l-.975,1.472a40.732,40.732,0,0,1,6.175,3.681ZM106.33-17.84h6.64v2.8h-6.64Zm5.64,1h-4.64v.8h4.64Zm2.82-1h6.91v2.8h-6.91Zm5.91,1h-4.91v.8h4.91Zm36.851-.675.238.337a44.126,44.126,0,0,1,2.584,4.136l.241.46-2.739,1.3-.221-.433a27.492,27.492,0,0,0-2.476-4.069l-.371-.5Zm1.688,4.48c-.609-1.088-1.452-2.385-2.032-3.229l-.861.388a28.486,28.486,0,0,1,1.977,3.277Zm-5.01-3.188.233.34a42.456,42.456,0,0,1,2.495,4.2l.233.465-2.783,1.257-.21-.445a27.884,27.884,0,0,0-2.358-4.127l-.35-.5Zm1.595,4.524c-.566-1.065-1.355-2.368-1.957-3.277L153-14.6a28.947,28.947,0,0,1,1.887,3.325ZM216.21-15.95a8.533,8.533,0,0,1,5.8,1.983A7.065,7.065,0,0,1,224.3-8.52a8.085,8.085,0,0,1-1.016,4.026,8.949,8.949,0,0,1-2.9,3.028c-2.473,1.643-5.995,2.617-10.468,2.9l-.35.022-1.692-3.907.735-.023c4.334-.137,11.606-1.107,11.606-6.07,0-2.2-1.7-3.67-4.24-3.67-1.68,0-5.112.607-11.925,3.5l-.468.2-1.683-4.167.611-.105c.813-.14,1.926-.45,2.909-.736l.621-.2C208.429-14.505,212.883-15.95,216.21-15.95ZM210.2.408c4.129-.294,7.366-1.2,9.627-2.707A7.158,7.158,0,0,0,223.3-8.52c0-3.906-2.783-6.43-7.09-6.43-3.168,0-7.525,1.413-9.866,2.172l-.632.2-.012,0c-.827.24-1.677.478-2.42.642l.844,2.089c5.288-2.214,9.377-3.382,11.846-3.382,3.085,0,5.24,1.92,5.24,4.67,0,4.172-4.2,6.659-11.842,7.04ZM83.395-15.17h3.98l-.025.524c-.057,1.194-.032,2.187,0,3.337l0,.136c.028.912.105,2.444.192,4.1A20.049,20.049,0,0,1,93.6-3.315l.318.28L91.785.387l-.444-.41A24.551,24.551,0,0,0,87.68-2.878a4.849,4.849,0,0,1-1.415,3.6A6.415,6.415,0,0,1,81.69,2.21,8.494,8.494,0,0,1,76.956.985a4.5,4.5,0,0,1-2.066-3.9c0-3.121,2.784-5.3,6.77-5.3a16.123,16.123,0,0,1,2.027.134c-.035-.853-.075-1.751-.115-2.625-.066-1.454-.128-2.827-.162-3.954Zm2.935,1h-1.9c.035,1.013.089,2.189.144,3.424.049,1.082.1,2.2.138,3.227l.023.6-.6-.088a16.462,16.462,0,0,0-2.477-.2,6.963,6.963,0,0,0-4.225,1.239A3.755,3.755,0,0,0,75.89-2.91,3.5,3.5,0,0,0,77.514.155,7.517,7.517,0,0,0,81.69,1.21,5.474,5.474,0,0,0,85.575-.006a3.837,3.837,0,0,0,1.1-2.9V-4.6l.741.408a22.894,22.894,0,0,1,4.152,3.025L92.62-2.842A18.666,18.666,0,0,0,86.89-6.25l-.312-.113-.017-.332c-.094-1.784-.181-3.466-.21-4.451l0-.139C86.322-12.283,86.3-13.166,86.33-14.17Zm28.46,3.74h7.39v2.71h-7.39Zm6.39,1h-5.39v.71h5.39ZM5.131-9.836l4.144.362-.188.594A10.167,10.167,0,0,0,8.54-5.79,2.451,2.451,0,0,0,9.916-3.608a9.926,9.926,0,0,0,4.814.948A38.184,38.184,0,0,0,24.963-3.838l.641-.2.04,4.358-.373.1A43.394,43.394,0,0,1,14.85,1.49c-3.3,0-5.874-.548-7.644-1.63A5.815,5.815,0,0,1,5.13-2.218,5.7,5.7,0,0,1,4.42-5.07a18.762,18.762,0,0,1,.613-4.342ZM7.957-8.585,5.91-8.764A16.542,16.542,0,0,0,5.42-5.07,4.522,4.522,0,0,0,7.727-.993C9.338-.009,11.735.49,14.85.49a44.781,44.781,0,0,0,9.786-.937L24.616-2.7A41.72,41.72,0,0,1,14.73-1.66,10.716,10.716,0,0,1,9.412-2.744,3.431,3.431,0,0,1,7.54-5.79,10.388,10.388,0,0,1,7.957-8.585ZM431.82-7.88A5.2,5.2,0,0,1,437-2.67,5.153,5.153,0,0,1,435.493.99a5.145,5.145,0,0,1-3.673,1.52,5.2,5.2,0,0,1-5.21-5.18,5.17,5.17,0,0,1,1.534-3.676A5.171,5.171,0,0,1,431.82-7.88Zm0,9.39A4.152,4.152,0,0,0,434.784.285,4.159,4.159,0,0,0,436-2.67a4.2,4.2,0,0,0-4.18-4.21,4.177,4.177,0,0,0-2.969,1.241A4.177,4.177,0,0,0,427.61-2.67,4.2,4.2,0,0,0,431.82,1.51ZM114.79-6.53h7.39v2.86h-7.39Zm6.39,1h-5.39v.86h5.39Zm310.64-.52a3.384,3.384,0,0,1,3.38,3.38A3.384,3.384,0,0,1,431.82.71a3.384,3.384,0,0,1-3.38-3.38A3.384,3.384,0,0,1,431.82-6.05Zm0,5.76a2.383,2.383,0,0,0,2.38-2.38,2.383,2.383,0,0,0-2.38-2.38,2.383,2.383,0,0,0-2.38,2.38A2.383,2.383,0,0,0,431.82-.29ZM307.47-5.96a14.009,14.009,0,0,1,2.831.28l.381.079.018.388c.031.671.031,1.292.031,1.7,0,1.944-1.167,2.93-3.47,2.93-3.809,0-4.22-1.881-4.22-2.69a2.306,2.306,0,0,1,1.252-1.974A6.261,6.261,0,0,1,307.47-5.96Zm2.245,1.187a13.222,13.222,0,0,0-2.245-.187c-2.02,0-3.43.695-3.43,1.69,0,1.47,2.017,1.69,3.22,1.69,1.754,0,2.47-.559,2.47-1.93C309.73-3.847,309.73-4.284,309.715-4.773ZM81.51-5.81a11.006,11.006,0,0,1,2.923.408l.339.093.027.35c.031.409.031.784.031,1.058,0,2.18-1.254,3.38-3.53,3.38-2.669,0-3.62-1.374-3.62-2.66C77.68-4.729,79.255-5.81,81.51-5.81Zm2.311,1.282A9.723,9.723,0,0,0,81.51-4.81c-1.64,0-2.83.686-2.83,1.63,0,1.5,1.832,1.66,2.62,1.66,1.726,0,2.53-.756,2.53-2.38C83.83-4.074,83.83-4.291,83.821-4.528Z" transform="translate(-4.42 25.67)" fill="#444"/></svg>