<?xml version="1.0" encoding="utf-8"?>
<!-- Generator: Adobe Illustrator 26.0.1, SVG Export Plug-In . SVG Version: 6.00 Build 0)  -->
<svg version="1.1" id="レイヤー_1" xmlns="http://www.w3.org/2000/svg" xmlns:xlink="http://www.w3.org/1999/xlink" x="0px"
	 y="0px" viewBox="0 0 478.6 305.9" style="enable-background:new 0 0 478.6 305.9;" xml:space="preserve">
<style type="text/css">
	.st0{fill:none;}
	.st1{fill:url(#_5e5358267371bb2ada9f01ec_peep-55_00000156560061569275393260000016415766733471118728_);}
	.st2{enable-background:new    ;}
	.st3{fill:#464646;}
	.st4{fill:#040000;}
</style>
<pattern  y="305.9" width="720" height="460.2" patternUnits="userSpaceOnUse" id="pattern" viewBox="0 -716.1 720 460.2" style="overflow:visible;">
	<g>
		<rect y="-716.1" class="st0" width="720" height="460.2"/>
		
			<image style="overflow:visible;enable-background:new    ;" width="720" height="972" xlink:href="FC36340F68FD9C66.png"  transform="matrix(1 0 0 -1 0 0)">
		</image>
	</g>
</pattern>
<g id="グループ_360" transform="translate(-416.311 -2621.243)">
	
		<pattern  id="_5e5358267371bb2ada9f01ec_peep-55_00000136369370401242663670000008787881295568447378_" xlink:href="#pattern" patternTransform="matrix(0.3147 0 0 -0.3147 -5189.3506 -10565.3887)">
	</pattern>
	
		<rect id="_5e5358267371bb2ada9f01ec_peep-55" x="416.3" y="2621.2" style="fill:url(#_5e5358267371bb2ada9f01ec_peep-55_00000136369370401242663670000008787881295568447378_);" width="226.6" height="305.9"/>
	<g id="グループ_342" transform="translate(636.908 2701.215)">
		<g class="st2">
			<path class="st3" d="M60.9,90.9v1.5h-4.1v10.7h-1.7V92.4h-4.1v-1.5H60.9z"/>
			<path class="st3" d="M62.3,90.9h1.5v4.5c0.4-0.4,0.7-0.8,1-0.9c0.5-0.3,1.1-0.5,1.8-0.5c1.3,0,2.2,0.5,2.6,1.4
				c0.2,0.5,0.4,1.2,0.4,2v5.7H68v-5.6c0-0.7-0.1-1.1-0.2-1.4c-0.3-0.5-0.8-0.7-1.5-0.7c-0.6,0-1.2,0.2-1.7,0.6
				c-0.5,0.4-0.8,1.2-0.8,2.4v4.7h-1.5V90.9z"/>
			<path class="st3" d="M71.7,90.9h1.5v1.7h-1.5V90.9z M71.7,94.3h1.5v8.8h-1.5V94.3z"/>
			<path class="st3" d="M76.4,100.4c0,0.5,0.2,0.9,0.4,1.1c0.4,0.5,1,0.7,2,0.7c0.6,0,1.1-0.1,1.5-0.4c0.4-0.2,0.6-0.6,0.6-1.1
				c0-0.4-0.2-0.7-0.5-0.9c-0.2-0.1-0.7-0.3-1.3-0.4l-1.2-0.3c-0.8-0.2-1.3-0.4-1.7-0.6c-0.7-0.4-1-1-1-1.7c0-0.8,0.3-1.5,0.9-2
				c0.6-0.5,1.4-0.8,2.5-0.8c1.4,0,2.3,0.4,2.9,1.2c0.4,0.5,0.6,1,0.5,1.6h-1.4c0-0.3-0.2-0.6-0.4-0.9c-0.4-0.4-1-0.6-1.8-0.6
				c-0.6,0-1,0.1-1.3,0.3c-0.3,0.2-0.4,0.5-0.4,0.9c0,0.4,0.2,0.7,0.6,0.9c0.2,0.1,0.6,0.3,1,0.4l1,0.2c1.1,0.3,1.8,0.5,2.2,0.8
				c0.6,0.4,0.9,1,0.9,1.8c0,0.8-0.3,1.5-0.9,2c-0.6,0.6-1.5,0.9-2.8,0.9c-1.3,0-2.3-0.3-2.8-0.9s-0.9-1.3-0.9-2.2H76.4z"/>
			<path class="st3" d="M88.7,90.9h1.5v1.7h-1.5V90.9z M88.7,94.3h1.5v8.8h-1.5V94.3z"/>
			<path class="st3" d="M93.4,100.4c0,0.5,0.2,0.9,0.4,1.1c0.4,0.5,1,0.7,2,0.7c0.6,0,1.1-0.1,1.5-0.4c0.4-0.2,0.6-0.6,0.6-1.1
				c0-0.4-0.2-0.7-0.5-0.9c-0.2-0.1-0.7-0.3-1.3-0.4l-1.2-0.3c-0.8-0.2-1.3-0.4-1.7-0.6c-0.7-0.4-1-1-1-1.7c0-0.8,0.3-1.5,0.9-2
				c0.6-0.5,1.4-0.8,2.5-0.8c1.4,0,2.3,0.4,2.9,1.2c0.4,0.5,0.6,1,0.5,1.6h-1.4c0-0.3-0.2-0.6-0.4-0.9c-0.4-0.4-1-0.6-1.8-0.6
				c-0.6,0-1,0.1-1.3,0.3c-0.3,0.2-0.4,0.5-0.4,0.9c0,0.4,0.2,0.7,0.6,0.9c0.2,0.1,0.6,0.3,1,0.4l1,0.2c1.1,0.3,1.8,0.5,2.2,0.8
				c0.6,0.4,0.9,1,0.9,1.8c0,0.8-0.3,1.5-0.9,2c-0.6,0.6-1.5,0.9-2.8,0.9c-1.3,0-2.3-0.3-2.8-0.9s-0.9-1.3-0.9-2.2H93.4z"/>
			<path class="st3" d="M106,91.8h1.5v2.5h1.4v1.2h-1.4v5.8c0,0.3,0.1,0.5,0.3,0.6c0.1,0.1,0.3,0.1,0.6,0.1c0.1,0,0.1,0,0.2,0
				s0.2,0,0.3,0v1.2c-0.2,0-0.3,0.1-0.5,0.1c-0.2,0-0.4,0-0.6,0c-0.7,0-1.2-0.2-1.4-0.5c-0.2-0.4-0.4-0.8-0.4-1.4v-5.9h-1.2v-1.2
				h1.2V91.8z"/>
			<path class="st3" d="M110.4,90.9h1.5v4.5c0.4-0.4,0.7-0.8,1-0.9c0.5-0.3,1.1-0.5,1.8-0.5c1.3,0,2.2,0.5,2.6,1.4
				c0.2,0.5,0.4,1.2,0.4,2v5.7h-1.5v-5.6c0-0.7-0.1-1.1-0.2-1.4c-0.3-0.5-0.8-0.7-1.5-0.7c-0.6,0-1.2,0.2-1.7,0.6
				c-0.5,0.4-0.8,1.2-0.8,2.4v4.7h-1.5V90.9z"/>
			<path class="st3" d="M125.4,94.5c0.6,0.3,1,0.7,1.3,1.1c0.3,0.4,0.5,1,0.6,1.6c0.1,0.4,0.1,1.1,0.1,2H121c0,0.9,0.2,1.6,0.6,2.2
				c0.4,0.5,1,0.8,1.8,0.8c0.8,0,1.4-0.3,1.9-0.8c0.3-0.3,0.4-0.6,0.5-1h1.5c0,0.3-0.2,0.7-0.4,1.1c-0.2,0.4-0.5,0.7-0.7,1
				c-0.5,0.4-1,0.7-1.7,0.9c-0.4,0.1-0.8,0.1-1.2,0.1c-1.1,0-2-0.4-2.8-1.2c-0.8-0.8-1.1-1.9-1.1-3.4c0-1.4,0.4-2.6,1.2-3.5
				s1.8-1.3,3-1.3C124.2,94.1,124.8,94.2,125.4,94.5z M125.9,98c-0.1-0.6-0.2-1.2-0.4-1.6c-0.4-0.7-1.1-1.1-2-1.1
				c-0.7,0-1.3,0.2-1.7,0.7S121,97.2,121,98H125.9z"/>
			<path class="st3" d="M134.4,91.8h1.5v2.5h1.4v1.2h-1.4v5.8c0,0.3,0.1,0.5,0.3,0.6c0.1,0.1,0.3,0.1,0.6,0.1c0.1,0,0.1,0,0.2,0
				s0.2,0,0.3,0v1.2c-0.2,0-0.3,0.1-0.5,0.1c-0.2,0-0.4,0-0.6,0c-0.7,0-1.2-0.2-1.4-0.5c-0.2-0.4-0.4-0.8-0.4-1.4v-5.9h-1.2v-1.2
				h1.2V91.8z"/>
			<path class="st3" d="M138.8,90.9h1.5v1.7h-1.5V90.9z M138.8,94.3h1.5v8.8h-1.5V94.3z"/>
			<path class="st3" d="M142.6,94.2h1.5v1.3c0.4-0.4,0.7-0.8,1-1c0.5-0.3,1.1-0.5,1.7-0.5c0.7,0,1.3,0.2,1.7,0.5
				c0.2,0.2,0.5,0.5,0.7,0.9c0.3-0.5,0.7-0.8,1.2-1.1c0.4-0.2,1-0.3,1.5-0.3c1.2,0,2,0.4,2.4,1.3c0.2,0.5,0.3,1.1,0.3,1.9v5.9H153
				V97c0-0.6-0.1-1-0.4-1.2c-0.3-0.2-0.7-0.3-1.1-0.3c-0.6,0-1.1,0.2-1.5,0.6c-0.4,0.4-0.6,1-0.6,2v5.2h-1.5v-5.8
				c0-0.6-0.1-1-0.2-1.3c-0.2-0.4-0.7-0.6-1.3-0.6c-0.6,0-1.1,0.2-1.5,0.7c-0.5,0.4-0.7,1.2-0.7,2.4v4.7h-1.5V94.2z"/>
			<path class="st3" d="M162.2,94.5c0.6,0.3,1,0.7,1.3,1.1c0.3,0.4,0.5,1,0.6,1.6c0.1,0.4,0.1,1.1,0.1,2h-6.5c0,0.9,0.2,1.6,0.6,2.2
				c0.4,0.5,1,0.8,1.8,0.8c0.8,0,1.4-0.3,1.9-0.8c0.3-0.3,0.4-0.6,0.5-1h1.5c0,0.3-0.2,0.7-0.4,1.1s-0.5,0.7-0.7,1
				c-0.4,0.4-1,0.7-1.7,0.9c-0.4,0.1-0.8,0.1-1.2,0.1c-1.1,0-2-0.4-2.8-1.2c-0.8-0.8-1.1-1.9-1.1-3.4c0-1.4,0.4-2.6,1.2-3.5
				s1.8-1.3,3-1.3C161,94.1,161.6,94.2,162.2,94.5z M162.8,98c-0.1-0.6-0.2-1.2-0.4-1.6c-0.4-0.7-1.1-1.1-2-1.1
				c-0.7,0-1.3,0.2-1.7,0.7s-0.7,1.1-0.7,1.9H162.8z"/>
			<path class="st3" d="M171.2,91.8h1.5v2.5h1.4v1.2h-1.4v5.8c0,0.3,0.1,0.5,0.3,0.6c0.1,0.1,0.3,0.1,0.6,0.1c0.1,0,0.1,0,0.2,0
				s0.2,0,0.3,0v1.2c-0.2,0-0.4,0.1-0.5,0.1c-0.2,0-0.4,0-0.6,0c-0.7,0-1.2-0.2-1.4-0.5c-0.2-0.4-0.4-0.8-0.4-1.4v-5.9H170v-1.2h1.2
				V91.8z"/>
			<path class="st3" d="M182.1,95.1c0.8,0.8,1.2,1.9,1.2,3.4c0,1.4-0.3,2.6-1,3.5s-1.8,1.4-3.2,1.4c-1.2,0-2.2-0.4-2.9-1.2
				c-0.7-0.8-1.1-1.9-1.1-3.3c0-1.5,0.4-2.7,1.1-3.6c0.8-0.9,1.8-1.3,3-1.3C180.3,94,181.3,94.4,182.1,95.1z M181.1,101
				c0.4-0.7,0.5-1.6,0.5-2.5c0-0.8-0.1-1.5-0.4-2c-0.4-0.8-1.1-1.2-2.2-1.2c-0.9,0-1.6,0.3-2,1c-0.4,0.7-0.6,1.5-0.6,2.5
				c0,0.9,0.2,1.7,0.6,2.4c0.4,0.6,1.1,0.9,2,0.9C180.1,102.2,180.8,101.8,181.1,101z"/>
			<path class="st3" d="M191.3,94.2v5.9c0,0.5,0.1,0.8,0.2,1.1c0.3,0.5,0.7,0.8,1.4,0.8c1,0,1.7-0.5,2.1-1.4c0.2-0.5,0.3-1.2,0.3-2
				v-4.4h1.5v8.9h-1.4l0-1.3c-0.2,0.3-0.4,0.6-0.7,0.9c-0.6,0.5-1.2,0.7-2,0.7c-1.2,0-2.1-0.4-2.5-1.3c-0.2-0.5-0.4-1.1-0.4-1.8v-6
				H191.3z"/>
			<path class="st3" d="M200.2,100.4c0,0.5,0.2,0.9,0.4,1.1c0.4,0.5,1,0.7,2,0.7c0.6,0,1.1-0.1,1.5-0.4c0.4-0.2,0.6-0.6,0.6-1.1
				c0-0.4-0.2-0.7-0.5-0.9c-0.2-0.1-0.7-0.3-1.3-0.4l-1.2-0.3c-0.8-0.2-1.3-0.4-1.7-0.6c-0.7-0.4-1-1-1-1.7c0-0.8,0.3-1.5,0.9-2
				c0.6-0.5,1.4-0.8,2.5-0.8c1.4,0,2.3,0.4,2.9,1.2c0.4,0.5,0.6,1,0.5,1.6h-1.4c0-0.3-0.2-0.6-0.4-0.9c-0.4-0.4-1-0.6-1.8-0.6
				c-0.6,0-1,0.1-1.3,0.3c-0.3,0.2-0.4,0.5-0.4,0.9c0,0.4,0.2,0.7,0.6,0.9c0.2,0.1,0.6,0.3,1,0.4l1,0.2c1.1,0.3,1.8,0.5,2.2,0.8
				c0.6,0.4,0.9,1,0.9,1.8c0,0.8-0.3,1.5-0.9,2c-0.6,0.6-1.5,0.9-2.8,0.9c-1.3,0-2.3-0.3-2.8-0.9c-0.6-0.6-0.9-1.3-0.9-2.2H200.2z"
				/>
			<path class="st3" d="M213.3,94.5c0.6,0.3,1,0.7,1.3,1.1c0.3,0.4,0.5,1,0.6,1.6c0.1,0.4,0.1,1.1,0.1,2h-6.5c0,0.9,0.2,1.6,0.6,2.2
				c0.4,0.5,1,0.8,1.8,0.8c0.8,0,1.4-0.3,1.9-0.8c0.3-0.3,0.4-0.6,0.5-1h1.5c0,0.3-0.2,0.7-0.4,1.1s-0.5,0.7-0.7,1
				c-0.4,0.4-1,0.7-1.7,0.9c-0.4,0.1-0.8,0.1-1.2,0.1c-1.1,0-2-0.4-2.8-1.2c-0.8-0.8-1.1-1.9-1.1-3.4c0-1.4,0.4-2.6,1.2-3.5
				s1.8-1.3,3-1.3C212.1,94.1,212.7,94.2,213.3,94.5z M213.8,98c-0.1-0.6-0.2-1.2-0.4-1.6c-0.4-0.7-1.1-1.1-2-1.1
				c-0.7,0-1.3,0.2-1.7,0.7s-0.7,1.1-0.7,1.9H213.8z"/>
		</g>
		<g class="st2">
			<path class="st3" d="M56.8,114.5c0.3,0.2,0.6,0.5,0.9,0.9v-4.5h1.4v12.2h-1.3v-1.2c-0.3,0.5-0.8,0.9-1.2,1.2
				c-0.5,0.2-1,0.4-1.6,0.4c-1,0-1.8-0.4-2.6-1.2c-0.7-0.8-1.1-1.9-1.1-3.3c0-1.3,0.3-2.4,1-3.4s1.6-1.4,2.8-1.4
				C55.7,114.1,56.3,114.2,56.8,114.5z M53.4,121.2c0.4,0.6,1,1,1.9,1c0.7,0,1.3-0.3,1.7-0.9s0.7-1.4,0.7-2.6c0-1.1-0.2-2-0.7-2.5
				c-0.5-0.5-1-0.8-1.7-0.8c-0.8,0-1.4,0.3-1.8,0.9c-0.5,0.6-0.7,1.4-0.7,2.5C52.8,119.8,53,120.5,53.4,121.2z"/>
			<path class="st3" d="M66.8,114.5c0.6,0.3,1,0.7,1.3,1.1c0.3,0.4,0.5,1,0.6,1.6c0.1,0.4,0.1,1.1,0.1,2h-6.5c0,0.9,0.2,1.6,0.6,2.2
				s1,0.8,1.8,0.8c0.8,0,1.4-0.3,1.9-0.8c0.3-0.3,0.4-0.6,0.5-1h1.5c0,0.3-0.2,0.7-0.4,1.1c-0.2,0.4-0.5,0.7-0.7,1
				c-0.5,0.4-1,0.7-1.7,0.9c-0.4,0.1-0.8,0.1-1.2,0.1c-1.1,0-2-0.4-2.8-1.2c-0.8-0.8-1.1-1.9-1.1-3.4c0-1.4,0.4-2.6,1.2-3.5
				c0.8-0.9,1.8-1.3,3-1.3C65.6,114.1,66.2,114.2,66.8,114.5z M67.4,118c-0.1-0.6-0.2-1.2-0.4-1.6c-0.4-0.7-1.1-1.1-2-1.1
				c-0.7,0-1.3,0.2-1.7,0.7s-0.7,1.1-0.7,1.9H67.4z"/>
			<path class="st3" d="M71.7,120.4c0,0.5,0.2,0.9,0.4,1.1c0.4,0.5,1.1,0.7,2,0.7c0.6,0,1.1-0.1,1.5-0.4c0.4-0.2,0.6-0.6,0.6-1.1
				c0-0.4-0.2-0.7-0.5-0.9c-0.2-0.1-0.7-0.3-1.3-0.4l-1.2-0.3c-0.8-0.2-1.3-0.4-1.7-0.6c-0.7-0.4-1-1-1-1.7c0-0.8,0.3-1.5,0.9-2
				c0.6-0.5,1.4-0.8,2.5-0.8c1.4,0,2.3,0.4,2.9,1.2c0.4,0.5,0.6,1,0.5,1.6H76c0-0.3-0.2-0.6-0.4-0.9c-0.4-0.4-1-0.6-1.8-0.6
				c-0.6,0-1,0.1-1.3,0.3c-0.3,0.2-0.4,0.5-0.4,0.9c0,0.4,0.2,0.7,0.6,0.9c0.2,0.1,0.6,0.3,1,0.4l1,0.2c1.1,0.3,1.8,0.5,2.2,0.8
				c0.6,0.4,0.9,1,0.9,1.8c0,0.8-0.3,1.5-0.9,2c-0.6,0.6-1.5,0.9-2.8,0.9c-1.3,0-2.3-0.3-2.8-0.9c-0.6-0.6-0.9-1.3-0.9-2.2H71.7z"/>
			<path class="st3" d="M79.3,110.9h1.5v1.7h-1.5V110.9z M79.3,114.3h1.5v8.8h-1.5V114.3z"/>
			<path class="st3" d="M88,114.6c0.3,0.2,0.6,0.5,0.9,0.8v-1.1h1.4v8.1c0,1.1-0.2,2-0.5,2.7c-0.6,1.2-1.8,1.8-3.5,1.8
				c-1,0-1.8-0.2-2.4-0.6s-1-1.1-1.1-2h1.5c0.1,0.4,0.2,0.7,0.4,0.9c0.3,0.3,0.9,0.5,1.6,0.5c1.1,0,1.9-0.4,2.2-1.2
				c0.2-0.5,0.3-1.3,0.3-2.5c-0.3,0.5-0.7,0.8-1.1,1c-0.4,0.2-1,0.3-1.7,0.3c-1,0-1.8-0.3-2.5-1s-1.1-1.8-1.1-3.4
				c0-1.5,0.4-2.7,1.1-3.5c0.7-0.8,1.6-1.3,2.6-1.3C86.9,114.1,87.5,114.3,88,114.6z M88.2,116.2c-0.5-0.5-1-0.8-1.7-0.8
				c-1,0-1.8,0.5-2.1,1.5c-0.2,0.5-0.3,1.2-0.3,2.1c0,1,0.2,1.8,0.6,2.3c0.4,0.5,0.9,0.8,1.6,0.8c1.1,0,1.8-0.5,2.3-1.5
				c0.2-0.5,0.4-1.2,0.4-1.9C88.9,117.6,88.6,116.7,88.2,116.2z"/>
			<path class="st3" d="M92.5,114.2h1.4v1.3c0.4-0.5,0.9-0.9,1.3-1.1s1-0.3,1.6-0.3c1.3,0,2.1,0.4,2.6,1.3c0.2,0.5,0.4,1.2,0.4,2.1
				v5.7h-1.5v-5.6c0-0.5-0.1-1-0.2-1.3c-0.3-0.6-0.7-0.8-1.4-0.8c-0.4,0-0.6,0-0.9,0.1c-0.4,0.1-0.8,0.4-1.1,0.7
				c-0.2,0.3-0.4,0.6-0.5,0.9c-0.1,0.3-0.1,0.8-0.1,1.3v4.7h-1.5V114.2z"/>
			<path class="st3" d="M102.3,121.3h1.7v1.8h-1.7V121.3z"/>
		</g>
		<g class="st2">
			<path class="st3" d="M59.9,44.2c1.4,2,3.5,3.8,5.6,4.8c-0.4,0.4-0.7,0.9-1,1.4c-0.8-0.5-1.7-1.1-2.5-1.7v1.1h-5.5v-1
				c-0.7,0.6-1.6,1.2-2.4,1.7c-0.2-0.4-0.6-0.9-1-1.2c2.2-1.2,4.3-3.3,5.3-4.9H59.9z M62.5,50.8l1.2,0.4c-0.6,1.6-1.6,3.6-2.4,5.3
				L59.7,56c0.6-1.1,1.2-2.5,1.7-3.6h-6.7v-1.5h7.4L62.5,50.8z M61.6,48.2c-0.9-0.8-1.8-1.7-2.4-2.5c-0.6,0.8-1.4,1.7-2.3,2.5H61.6z
				"/>
		</g>
		<g class="st2">
			<path class="st3" d="M72.9,55.9l-1-1.5c0.5-0.1,0.9-0.1,1.2-0.2c1.7-0.4,3-1.6,3-3.5c0-1.8-1-3.1-2.7-3.4
				c-0.2,1.1-0.4,2.3-0.8,3.5c-0.8,2.6-1.9,4.2-3.3,4.2c-1.4,0-2.6-1.6-2.6-3.8c0-3,2.6-5.6,6-5.6c3.2,0,5.3,2.2,5.3,5.1
				C77.8,53.5,76.2,55.4,72.9,55.9z M69.3,53c0.5,0,1.1-0.8,1.6-2.6c0.3-1,0.5-2.1,0.7-3.1c-2.1,0.4-3.3,2.3-3.3,3.8
				C68.3,52.4,68.8,53,69.3,53z"/>
		</g>
		<g class="st2">
			<path class="st3" d="M83.7,53.9h-2.6v1.1h-1.4v-10h4.1V53.9z M81.1,46.5v2.3h1.2v-2.3H81.1z M82.3,52.5v-2.4h-1.2v2.4H82.3z
				 M90,49.5v1.1h1.2V52H90v2.8c0,0.7-0.1,1.1-0.7,1.4c-0.5,0.2-1.2,0.3-2.2,0.3c-0.1-0.4-0.3-1-0.5-1.5c0.6,0,1.4,0,1.5,0
				c0.2,0,0.3-0.1,0.3-0.2V52H84v-1.3h4.6v-1.1h-4.6v-1.4h2.9V47h-2.5v-1.4h2.5v-1.4h1.5v1.4H91V47h-2.6v1.1h3v1.4H90z M85.7,52.1
				c0.6,0.6,1.3,1.5,1.6,2.1L86,55c-0.2-0.6-0.9-1.5-1.5-2.2L85.7,52.1z"/>
			<path class="st3" d="M97,44.9c-0.3,0.8-0.7,1.6-1.2,2.4v9.1h-1.6v-6.8c-0.4,0.5-0.9,1-1.4,1.5c-0.1-0.4-0.6-1.2-0.9-1.6
				c1.4-1.2,2.8-3.1,3.5-5.1L97,44.9z M100.5,49.6c0.4,2.9,1.1,4.8,2.1,4.9c0.3,0,0.5-0.6,0.6-2.1c0.3,0.3,1,0.7,1.3,0.9
				c-0.3,2.5-1,3.1-1.8,3.1c-2.2-0.2-3.2-2.7-3.7-6.6l-2.6,0.4l-0.2-1.5l2.6-0.4c-0.1-1.2-0.2-2.4-0.2-3.8h1.6
				c0,1.3,0.1,2.5,0.2,3.6l3.7-0.5l0.2,1.5L100.5,49.6z M102.9,47.3c-0.3-0.6-1.1-1.5-1.8-2.2l1.2-0.7c0.7,0.6,1.5,1.5,1.9,2.1
				L102.9,47.3z"/>
		</g>
		<g class="st2">
			<path class="st3" d="M110.4,46.3c0,0.1-0.1,0.3-0.1,0.5c0.7-0.1,1.5-0.2,2.2-0.4V48c-0.8,0.2-1.7,0.3-2.5,0.4
				c-0.1,0.6-0.2,1.1-0.4,1.7c-0.5,1.8-1.3,4.5-2.1,6l-1.8-0.6c0.8-1.3,1.8-4,2.2-5.9c0.1-0.4,0.2-0.7,0.3-1.1c-0.3,0-0.6,0-0.9,0
				c-0.6,0-1.1,0-1.6-0.1l0-1.6c0.7,0.1,1.1,0.1,1.6,0.1c0.4,0,0.8,0,1.2,0c0.1-0.3,0.1-0.5,0.1-0.7c0.1-0.5,0.1-1,0-1.3l2,0.2
				C110.6,45.4,110.4,46,110.4,46.3z M112,53.4c0,0.6,0.4,1,1.8,1c0.9,0,1.8-0.1,2.7-0.3l-0.1,1.7c-0.7,0.1-1.6,0.2-2.7,0.2
				c-2.2,0-3.4-0.8-3.4-2.1c0-0.6,0.1-1.2,0.2-1.7l1.6,0.1C112,52.7,112,53.1,112,53.4z M113.9,48.9c0.7,0,1.5,0,2.3,0.1l0,1.6
				c-0.7-0.1-1.4-0.2-2.2-0.2c-0.9,0-1.7,0-2.5,0.1V49C112.2,48.9,113.1,48.9,113.9,48.9z M115.9,47.2l-1,0.5
				c-0.3-0.5-0.7-1.3-1-1.8l1-0.4C115.2,45.9,115.6,46.7,115.9,47.2z M117.4,46.6l-1,0.4c-0.3-0.5-0.7-1.3-1.1-1.8l1-0.4
				C116.7,45.3,117.2,46.2,117.4,46.6z"/>
			<path class="st3" d="M123,46.1c-0.1,0.4-0.2,0.9-0.3,1.3c0.4,0,0.8-0.1,1.1-0.1c1.4,0,2.4,0.6,2.4,2.5c0,1.5-0.2,3.6-0.7,4.8
				c-0.4,0.9-1.2,1.2-2.1,1.2c-0.5,0-1.1-0.1-1.6-0.2l-0.3-1.7c0.5,0.1,1.2,0.3,1.6,0.3c0.4,0,0.8-0.1,1-0.6
				c0.4-0.7,0.5-2.3,0.5-3.6c0-1-0.4-1.2-1.3-1.2c-0.2,0-0.5,0-0.9,0.1c-0.5,2-1.5,5.1-2.7,7l-1.7-0.7c1.3-1.7,2.2-4.3,2.6-6.1
				c-0.5,0.1-0.9,0.1-1.1,0.1c-0.4,0.1-1.1,0.2-1.4,0.2l-0.2-1.8c0.5,0,0.9,0,1.4,0c0.4,0,1-0.1,1.7-0.1c0.2-1,0.3-1.9,0.3-2.8
				l1.9,0.2C123.2,45.4,123.1,45.8,123,46.1z M130,51.1l-1.7,0.8c-0.3-1.4-1.3-3.8-2.2-4.9l1.5-0.7C128.5,47.4,129.6,49.9,130,51.1z
				"/>
			<path class="st3" d="M133.2,50.5c1.2-0.9,2.5-1.2,3.8-1.2c2.3,0,3.6,1.4,3.6,3c0,2.4-1.9,4.2-7.3,3.7l-0.5-1.7
				c3.9,0.5,6-0.4,6-2.1c0-0.8-0.8-1.5-1.9-1.5c-1.5,0-2.8,0.5-3.6,1.5c-0.2,0.3-0.4,0.5-0.5,0.8l-1.5-0.4c0.3-1.3,0.6-3.8,0.7-5.4
				l1.7,0.2C133.5,48.2,133.3,49.8,133.2,50.5z M138.8,45.9l-0.4,1.6c-1.3-0.2-4.2-0.8-5.2-1l0.4-1.6
				C134.9,45.2,137.7,45.7,138.8,45.9z"/>
			<path class="st3" d="M144.3,52.7c0,0.8,0.8,1.4,2.7,1.4c1.8,0,3.4-0.2,4.6-0.5l0,1.8c-1.1,0.3-2.7,0.4-4.5,0.4
				c-3,0-4.5-1-4.5-2.8c0-0.8,0.2-1.4,0.3-1.9l1.7,0.2C144.4,51.8,144.3,52.2,144.3,52.7z M147,46c1.3,0,2.8-0.1,3.8-0.2v1.7
				c-0.9,0.1-2.5,0.2-3.8,0.2c-1.4,0-2.5-0.1-3.5-0.1v-1.7C144.4,46,145.6,46,147,46z"/>
			<path class="st3" d="M156.4,45.4c0.6,0,3-0.1,3.8-0.2c0.4-0.1,0.7-0.1,0.9-0.2l1,1.2c-0.3,0.2-0.8,0.5-1,0.7
				c-0.9,0.7-2.2,1.8-3.1,2.5c1.7-0.2,3.9-0.3,5.5-0.3v1.5c-1.2-0.1-2.5-0.1-3.3,0c-1.2,0.2-2.2,1-2.2,2.1c0,1,0.8,1.4,2,1.6
				c0.7,0.1,1.5,0.1,2,0l-0.4,1.7c-3.3,0.1-5.3-0.9-5.3-3c0-0.8,0.5-1.6,0.9-2.1c-1.2,0.1-2.7,0.3-4,0.5l-0.2-1.6
				c0.7-0.1,1.6-0.2,2.3-0.3c1.2-0.8,2.8-2.2,3.7-3c-0.5,0-2.1,0.1-2.7,0.2c-0.3,0-0.8,0.1-1.2,0.1l-0.1-1.7
				C155.6,45.4,156,45.4,156.4,45.4z"/>
		</g>
		<g class="st2">
			<path class="st3" d="M54.6,67.9h8.5c0.3,0,0.8,0,1.2-0.1v1.7c-0.3,0-0.8,0-1.2,0H60c-0.1,1.3-0.4,2.4-0.8,3.3
				c-0.5,0.9-1.5,1.9-2.6,2.5L55,74.2c0.9-0.4,1.8-1.1,2.4-1.9c0.5-0.8,0.8-1.8,0.8-2.9h-3.6c-0.4,0-0.9,0-1.2,0.1v-1.7
				C53.7,67.9,54.2,67.9,54.6,67.9z M56.3,64.6h4.3c0.4,0,1,0,1.4-0.1v1.7c-0.4,0-0.9,0-1.4,0h-4.3c-0.4,0-1,0-1.4,0v-1.7
				C55.3,64.6,55.8,64.6,56.3,64.6z M63.7,65.4l-1,0.5c-0.3-0.5-0.7-1.3-1-1.8l1-0.4C63,64.1,63.5,64.9,63.7,65.4z M65.3,64.8
				l-1,0.5c-0.3-0.5-0.7-1.3-1-1.8l1-0.4C64.6,63.5,65,64.3,65.3,64.8z"/>
			<path class="st3" d="M70.7,75.3L69.3,74c2.5-0.9,3.6-2,3.6-5.2v-0.5h-3.1v1.8c0,0.6,0,1.1,0.1,1.4h-1.8c0-0.3,0.1-0.8,0.1-1.4
				v-1.8h-1.1c-0.6,0-1.1,0-1.4,0.1v-1.8c0.2,0,0.8,0.1,1.4,0.1h1.1v-1.3c0-0.4,0-0.8-0.1-1.2H70c0,0.2-0.1,0.7-0.1,1.2v1.3H73v-1.4
				c0-0.5,0-0.9-0.1-1.2h1.9c0,0.3-0.1,0.7-0.1,1.2v1.4h1c0.7,0,1.1,0,1.4-0.1v1.7c-0.3,0-0.7,0-1.4,0h-1v0.4
				C74.6,72,73.9,73.9,70.7,75.3z M76.5,66l-0.9,0.3c-0.2-0.5-0.4-1.3-0.7-1.8l0.9-0.3C76,64.7,76.3,65.5,76.5,66z M77.8,65.5
				l-0.9,0.3c-0.2-0.6-0.4-1.3-0.7-1.8l0.9-0.3C77.4,64.3,77.7,65,77.8,65.5z"/>
			<path class="st3" d="M84.1,66.9c1.3-0.8,2.8-2.1,3.7-3.2l1.4,1.3c-1,1-2.2,2-3.5,2.8v5.3c0,0.6,0,1.4,0.1,1.7h-2.1
				c0.1-0.3,0.1-1.1,0.1-1.7V69c-1.3,0.7-3,1.4-4.6,1.9l-0.8-1.6C80.7,68.6,82.7,67.8,84.1,66.9z"/>
			<path class="st3" d="M95.5,71.4c2.2-1.3,3.9-3.3,4.7-5.1l1,1.8c-1,1.8-2.7,3.5-4.8,4.8c-1.3,0.8-3,1.5-4.8,1.8l-1.1-1.7
				C92.6,72.8,94.3,72.1,95.5,71.4z M95.5,67.2l-1.3,1.4c-0.7-0.7-2.3-2.1-3.2-2.8l1.2-1.3C93.1,65,94.8,66.4,95.5,67.2z"/>
			<path class="st3" d="M107.4,65.2c1.2-0.1,2.5-0.2,3.7-0.4l0,1.5c-1.2,0.2-2.8,0.3-4.2,0.3c-0.2,0.5-0.5,0.9-0.7,1.3
				c0.3-0.2,1-0.3,1.5-0.3c0.8,0,1.4,0.3,1.7,1c0.7-0.3,1.2-0.5,1.8-0.8c0.5-0.2,1-0.4,1.4-0.7l0.7,1.5c-0.4,0.1-1.1,0.4-1.5,0.5
				c-0.6,0.2-1.3,0.5-2.1,0.9c0,0.7,0,1.7,0.1,2.3h-1.6c0-0.4,0.1-1,0.1-1.6c-1,0.6-1.5,1.1-1.5,1.7c0,0.7,0.6,0.9,1.9,0.9
				c1.1,0,2.5-0.1,3.7-0.4l-0.1,1.7c-0.9,0.1-2.5,0.2-3.7,0.2c-2,0-3.5-0.5-3.5-2.2c0-1.7,1.6-2.7,3-3.5c-0.2-0.3-0.5-0.4-0.9-0.4
				c-0.7,0-1.5,0.4-2,0.9c-0.4,0.4-0.8,0.9-1.2,1.4l-1.4-1c1.4-1.3,2.3-2.4,2.9-3.6c-0.1,0-0.1,0-0.2,0c-0.5,0-1.5,0-2.2-0.1v-1.5
				c0.7,0.1,1.6,0.2,2.3,0.2c0.2,0,0.4,0,0.6,0c0.1-0.5,0.2-1,0.3-1.5l1.7,0.1C107.6,64.2,107.5,64.6,107.4,65.2z"/>
		</g>
		<g class="st2">
			<path class="st3" d="M120.7,69.6c-0.5-0.4-1.7-1-2.4-1.4l0.8-1.1c0.7,0.4,1.9,0.9,2.4,1.3L120.7,69.6z M118.5,74.2
				c0.7-1,1.7-2.6,2.5-4.1l1.1,1c-0.7,1.4-1.5,2.8-2.3,4.1L118.5,74.2z M121.3,66c-0.5-0.4-1.6-1-2.4-1.4l0.9-1.1
				c0.7,0.4,1.9,0.9,2.4,1.3L121.3,66z M127,68.5v1.6h2.7v5.2h-1.5v-0.5h-3.9v0.5h-1.4v-5.3h2.7v-1.6h-3.5v-1.5h3.5v-1.5
				c-0.8,0.1-1.7,0.2-2.5,0.3c-0.1-0.4-0.3-1-0.5-1.3c2.2-0.2,4.7-0.7,6.1-1.2l1.2,1.2c-0.8,0.3-1.8,0.6-2.8,0.8v1.8h3.3v1.5H127z
				 M128.2,71.6h-3.9v1.9h3.9V71.6z"/>
			<path class="st3" d="M142.5,73.6c0,0.8-0.2,1.2-0.7,1.5c-0.5,0.3-1.3,0.3-2.5,0.3c-0.1-0.4-0.3-1.1-0.5-1.5c0.7,0,1.6,0,1.8,0
				c0.2,0,0.3-0.1,0.3-0.3v-2h-2.7v3.6h-1.6v-3.6H134c-0.2,1.4-0.7,2.8-1.6,3.9c-0.2-0.3-0.9-0.8-1.2-1c1.4-1.6,1.5-3.9,1.5-5.7
				v-4.6h9.8V73.6z M136.6,70.2v-1.6h-2.4v0.2c0,0.4,0,0.9,0,1.4H136.6z M134.2,65.6v1.5h2.4v-1.5H134.2z M140.9,65.6h-2.7v1.5h2.7
				V65.6z M140.9,70.2v-1.6h-2.7v1.6H140.9z"/>
		</g>
		<g class="st2">
			<path class="st3" d="M147.7,65.7c-0.1,1.4-0.2,4.3-0.2,5.9c0,1.3,0.8,1.7,1.8,1.7c2.1,0,3.5-1.2,4.4-2.7l1.2,1.4
				c-0.8,1.2-2.7,3-5.6,3c-2.1,0-3.5-0.9-3.5-3.2c0-1.7,0.1-5.2,0.1-6.3c0-0.6-0.1-1.2-0.2-1.8l2.1,0
				C147.7,64.5,147.7,65.2,147.7,65.7z"/>
			<path class="st3" d="M156.4,65.3c1.1-0.1,3.2-0.3,5.6-0.5c1.3-0.1,2.8-0.2,3.7-0.2l0,1.7c-0.7,0-1.8,0-2.5,0.2
				c-1.6,0.4-2.7,2.1-2.7,3.7c0,2.1,2,2.9,4.2,3l-0.6,1.8c-2.7-0.2-5.3-1.7-5.3-4.5c0-1.9,1.1-3.4,1.9-4c-1.2,0.1-3.9,0.4-5.4,0.7
				l-0.2-1.8C155.7,65.3,156.2,65.3,156.4,65.3z"/>
			<path class="st3" d="M173,65.8c-0.8,0.7-2.6,2-3.4,2.7c-0.7,0.6-0.7,0.7,0,1.4c1,0.8,3.4,2.8,4.8,4.1l-1.5,1.4
				c-0.4-0.4-0.7-0.8-1.1-1.2c-0.8-0.8-2.7-2.4-3.9-3.5c-1.3-1.1-1.2-1.8,0.1-2.9c1-0.8,2.8-2.3,3.7-3.1c0.4-0.4,0.8-0.8,1-1.1
				l1.5,1.3C173.7,65.2,173.3,65.6,173,65.8z"/>
			<path class="st3" d="M181,65.3c0,0.1-0.1,0.3-0.1,0.5c0.7-0.1,1.5-0.2,2.2-0.4V67c-0.8,0.2-1.7,0.3-2.5,0.4
				c-0.1,0.6-0.2,1.1-0.4,1.7c-0.5,1.8-1.3,4.5-2.1,6l-1.8-0.6c0.8-1.3,1.8-4,2.2-5.9c0.1-0.4,0.2-0.7,0.3-1.1c-0.3,0-0.6,0-0.9,0
				c-0.6,0-1.1,0-1.6-0.1l0-1.6C177,66,177.5,66,178,66c0.4,0,0.8,0,1.2,0c0.1-0.3,0.1-0.5,0.1-0.7c0.1-0.5,0.1-1,0-1.3l2,0.2
				C181.2,64.4,181.1,65,181,65.3z M182.6,72.4c0,0.6,0.4,1,1.8,1c0.9,0,1.8-0.1,2.7-0.3l-0.1,1.7c-0.7,0.1-1.6,0.2-2.7,0.2
				c-2.2,0-3.4-0.8-3.4-2.1c0-0.6,0.1-1.2,0.2-1.7l1.6,0.1C182.7,71.7,182.6,72.1,182.6,72.4z M184.6,67.9c0.7,0,1.5,0,2.3,0.1
				l0,1.6c-0.7-0.1-1.4-0.2-2.2-0.2c-0.9,0-1.7,0-2.5,0.1V68C182.8,67.9,183.7,67.9,184.6,67.9z M186.5,66.2l-1,0.5
				c-0.3-0.5-0.7-1.3-1-1.8l1-0.4C185.8,64.9,186.3,65.7,186.5,66.2z M188.1,65.6l-1,0.4c-0.3-0.5-0.7-1.3-1.1-1.8l1-0.4
				C187.4,64.3,187.9,65.2,188.1,65.6z"/>
			<path class="st3" d="M193.4,63.9l1.8-0.2c0.1,0.7,0.3,1.4,0.5,2c0.9-0.1,1.8-0.4,2.7-0.6l0.2,1.6c-0.7,0.2-1.5,0.4-2.3,0.5
				c0.4,0.8,0.8,1.7,1.2,2.1c0.2,0.3,0.5,0.6,0.7,0.9l-0.8,1.2c-0.7-0.1-2.4-0.3-3.5-0.4l0.1-1.4c0.6,0.1,1.5,0.1,1.9,0.2
				c-0.4-0.6-0.9-1.5-1.2-2.4c-1.5,0.1-3.3,0.1-5.6-0.1l0-1.7c2,0.2,3.6,0.3,5,0.2c-0.1-0.3-0.2-0.6-0.3-0.8
				C193.7,64.8,193.6,64.3,193.4,63.9z M191.1,71.9c0,1.1,1,1.6,2.8,1.6c1.4,0,2.6-0.1,3.5-0.3l-0.1,1.6c-0.7,0.1-1.9,0.3-3.5,0.3
				c-2.7,0-4.3-1-4.3-2.9c0-0.8,0.2-1.5,0.7-2.4l1.6,0.4C191.3,70.7,191.1,71.3,191.1,71.9z"/>
			<path class="st3" d="M202.5,66.6c0,0.8,0,1.8,0.1,2.8c0.2,1.9,0.6,3.2,1.4,3.2c0.6,0,1.1-1.5,1.4-2.6l1.3,1.6
				c-0.9,2.3-1.7,3.1-2.7,3.1c-1.4,0-2.7-1.3-3-4.8c-0.1-1.2-0.1-2.7-0.1-3.5c0-0.4,0-0.9-0.1-1.3l2,0
				C202.5,65.5,202.5,66.2,202.5,66.6z M211.5,72l-1.7,0.7c-0.2-2.1-0.9-5.3-2.3-6.9l1.7-0.5C210.4,66.8,211.3,70.1,211.5,72z"/>
			<path class="st3" d="M216.9,73.2c0,1.2-0.9,2.1-2.1,2.1c-1.1,0-2.1-0.9-2.1-2.1s0.9-2.1,2.1-2.1C215.9,71.1,216.9,72,216.9,73.2z
				 M215.9,73.2c0-0.6-0.5-1.2-1.2-1.2c-0.6,0-1.2,0.5-1.2,1.2c0,0.7,0.5,1.2,1.2,1.2C215.4,74.4,215.9,73.8,215.9,73.2z"/>
		</g>
		<g id="グループ_340">
			<path id="パス_120" class="st4" d="M128.2-1.5c16.8-0.1,33.7,1.3,50.2,4.5c16,3.2,29.9,8.1,41.2,14.6
				c5.7,3.3,11.1,7.2,15.9,11.7c9.6,8.9,16.5,20.4,19.7,33.2c1.8,7.1,2.7,14.4,2.7,21.8c0,7.1-0.9,14.1-2.7,20.9
				c-1.7,6.3-4.3,12.3-7.6,17.9c-6.4,10.5-15.8,19.5-28,26.7c-11.4,6.7-25.3,11.9-41.2,15.2c-16.5,3.4-33.4,5-50.2,4.9
				c-16.8,0.1-33.7-1.3-50.2-4.5c-16-3.2-29.9-8.1-41.2-14.6c-5.7-3.3-11.1-7.2-15.9-11.7c-9.6-8.9-16.5-20.4-19.7-33.2
				c-1.8-7.1-2.7-14.4-2.7-21.8c-0.2-12.6,3-24.9,9.3-35.8c5.7-9.8,13.9-18.4,24.5-25.6c-0.5-2.9-1.3-5.8-2.4-8.5
				c-0.9-2.2-2.1-4.3-3.5-6.2c-1.2-1.7-2.7-3.3-4.4-4.5l-4.4-2.8l5.2,0c5.2,0.1,10.3,1.6,14.7,4.6c3.7,2.5,7,5.5,9.8,8.9
				C69.1,3.9,97-1.5,128.2-1.5z M128.2,166.7c36.9,0,68-6.8,89.9-19.7c11.7-6.9,20.8-15.5,27-25.6c3.2-5.3,5.7-11.1,7.3-17.1
				c1.7-6.6,2.6-13.4,2.6-20.2c0-7.1-0.8-14.2-2.6-21c-3.1-12.2-9.7-23.2-18.9-31.7c-4.7-4.3-9.8-8.1-15.4-11.2
				c-11-6.3-24.6-11.1-40.3-14.2c-16.4-3.1-33-4.5-49.6-4.4C97,1.5,69.1,7,47.5,17.3l-1.1,0.5l-0.7-0.9c-2.8-3.6-6.1-6.7-9.8-9.2
				c-2.7-1.8-5.6-3-8.7-3.6c0.5,0.6,1,1.2,1.6,1.9c1.6,2.1,2.9,4.4,3.9,6.9c1.4,3.3,2.3,6.7,2.8,10.3l0.1,0.9l-0.8,0.5
				c-10.6,7-18.8,15.5-24.4,25.2c-2.9,5-5.1,10.4-6.6,16c-1.5,6-2.3,12.2-2.3,18.3c0,7.1,0.8,14.2,2.6,21
				c3.1,12.2,9.7,23.2,18.9,31.7c4.7,4.3,9.8,8.1,15.4,11.2c11,6.3,24.6,11.1,40.3,14.2C95,165.4,111.6,166.8,128.2,166.7z"/>
		</g>
	</g>
</g>
</svg>
