<?xml version="1.0" encoding="utf-8"?>
<!-- Generator: Adobe Illustrator 26.0.1, SVG Export Plug-In . SVG Version: 6.00 Build 0)  -->
<svg version="1.1" id="レイヤー_1" xmlns="http://www.w3.org/2000/svg" xmlns:xlink="http://www.w3.org/1999/xlink" x="0px"
	 y="0px" viewBox="0 0 218 37" style="enable-background:new 0 0 218 37;" xml:space="preserve">
<style type="text/css">
	.st0{enable-background:new    ;}
	.st1{fill:none;stroke:#333333;}
	.st2{fill:#333333;}
</style>
<g id="グループ_420" transform="translate(-67 -470)">
	<g class="st0">
		<path class="st1" d="M82.3,490.7c2.1,2.9,5.6,5.7,8.9,7.1c-0.5,0.5-1.2,1.3-1.6,1.9c-3-1.5-6.1-4.2-8.4-7.2v8.4h-2.4v-8.3
			c-2.3,3-5.4,5.5-8.4,7.1c-0.4-0.6-1.1-1.4-1.6-1.9c3.3-1.4,6.7-4.2,8.8-7.1h-8.1v-2.2h9.3v-3.6h-7.6v-2.2h7.6v-3.8h2.4v3.8h7.8
			v2.2h-7.8v3.6h9.4v2.2H82.3z"/>
		<path class="st1" d="M106.6,491.5c2.1,2.7,5.4,5.3,8.5,6.6c-0.5,0.5-1.2,1.3-1.6,1.9c-3-1.5-6.2-4.2-8.4-7.2v8.1h-2.4v-8
			c-2.3,3-5.4,5.6-8.4,7.1c-0.4-0.6-1.1-1.4-1.6-1.9c3.1-1.3,6.4-3.9,8.6-6.6h-8v-2.2h9.4v-5.6h-8.3v-2.1h8.3v-2.8h2.4v2.8h8.5v2.1
			h-8.5v5.6h9.4v2.2H106.6z M98.3,484c0.9,1.4,1.8,3.2,2.2,4.4l-2.1,0.8c-0.3-1.2-1.1-3.1-2-4.5L98.3,484z M107.6,488.6
			c0.8-1.3,1.7-3.2,2.3-4.7l2.3,0.7c-0.8,1.6-1.8,3.5-2.7,4.6L107.6,488.6z"/>
	</g>
	<g class="st0">
		<path class="st1" d="M126.4,482.5c2.4-0.1,4.9-0.3,7.1-0.7v2.2c-2.4,0.3-5.3,0.6-7.9,0.6c-0.5,1.1-1.2,2.3-1.8,3.2
			c0.8-0.5,2.1-0.7,3.1-0.7c1.5,0,2.8,0.7,3.2,2c1.5-0.7,2.7-1.2,3.8-1.7c0.8-0.4,1.5-0.7,2.3-1.1l1,2.2c-0.7,0.2-1.7,0.6-2.4,0.9
			c-1.2,0.5-2.8,1.1-4.5,1.9c0,1.4,0,3.3,0.1,4.4H128c0-0.8,0.1-2.2,0.1-3.4c-2.1,1.1-3.4,2.2-3.4,3.6c0,1.6,1.6,2,4,2
			c1.9,0,4.6-0.2,6.7-0.6l-0.1,2.4c-1.7,0.2-4.5,0.4-6.7,0.4c-3.6,0-6.4-0.8-6.4-3.8c0-3,2.9-4.8,5.7-6.2c-0.3-0.8-1.1-1.2-2-1.2
			c-1.5,0-3,0.8-4,1.7c-0.7,0.7-1.4,1.6-2.2,2.6l-2.1-1.5c2.8-2.6,4.4-5,5.4-7c-0.2,0-0.5,0-0.7,0c-1,0-2.7,0-4-0.1v-2.3
			c1.3,0.2,3,0.3,4.1,0.3c0.5,0,0.9,0,1.4,0c0.3-1,0.5-2,0.6-2.9l2.5,0.2C126.9,480.6,126.7,481.5,126.4,482.5z"/>
		<path class="st1" d="M141.5,487.4h15.7c0.5,0,1.4,0,2-0.1v2.5c-0.6,0-1.4,0-2,0H151c-0.1,2.5-0.6,4.7-1.5,6.4
			c-0.9,1.6-2.7,3.4-4.8,4.5l-2.2-1.6c1.8-0.7,3.5-2.1,4.4-3.6c1-1.6,1.3-3.5,1.4-5.7h-6.9c-0.7,0-1.5,0-2.2,0.1v-2.5
			C140,487.4,140.7,487.4,141.5,487.4z M144.5,481.4h8.1c0.7,0,1.7,0,2.4-0.1v2.5c-0.8,0-1.6-0.1-2.4-0.1h-8.1c-0.8,0-1.7,0-2.4,0.1
			v-2.5C142.9,481.3,143.7,481.4,144.5,481.4z M158.2,482.7l-1.6,0.7c-0.5-1-1.2-2.4-1.9-3.3l1.5-0.6
			C156.9,480.3,157.8,481.7,158.2,482.7z M161,481.6l-1.6,0.7c-0.5-1-1.3-2.4-2-3.3l1.5-0.6C159.7,479.3,160.6,480.8,161,481.6z"/>
		<path class="st1" d="M170.6,500.7l-2-1.9c4.5-1.7,6.6-3.7,6.6-10.1v-1h-6.3v3.6c0,1,0.1,2,0.1,2.3h-2.7c0-0.3,0.1-1.3,0.1-2.3
			v-3.6h-2.4c-1.1,0-2.1,0-2.5,0.1v-2.6c0.3,0,1.4,0.2,2.5,0.2h2.4v-2.8c0-0.6,0-1.3-0.1-1.9h2.7c0,0.3-0.1,1.1-0.1,1.9v2.8h6.3
			v-2.8c0-1-0.1-1.8-0.1-2.1h2.7c0,0.3-0.1,1.1-0.1,2.1v2.8h2.2c1.2,0,1.9-0.1,2.4-0.1v2.5c-0.4,0-1.2-0.1-2.4-0.1h-2.3v0.8
			C177.7,494.8,176.3,498.2,170.6,500.7z M181.2,483.8l-1.4,0.5c-0.4-1-0.8-2.4-1.3-3.3l1.4-0.4
			C180.3,481.4,180.9,482.9,181.2,483.8z M183.7,483.1l-1.4,0.5c-0.4-1.1-0.9-2.4-1.3-3.3l1.4-0.4
			C182.7,480.7,183.3,482.1,183.7,483.1z"/>
		<path class="st1" d="M195.1,485.6c2.5-1.5,5-3.8,6.7-5.7l2,1.9c-1.8,1.8-4.1,3.7-6.5,5.3v10c0,1,0,2.3,0.2,2.8h-3
			c0.1-0.5,0.1-1.8,0.1-2.8v-8.4c-2.5,1.4-5.7,2.8-8.9,3.7l-1.2-2.4C188.8,488.9,192.4,487.3,195.1,485.6z"/>
		<path class="st1" d="M216,493.8c3.9-2.4,6.9-6,8.3-9l1.5,2.6c-1.7,3.1-4.7,6.4-8.4,8.7c-2.4,1.5-5.5,2.9-9.2,3.6l-1.6-2.5
			C210.6,496.6,213.7,495.2,216,493.8z M215.2,486.1l-1.9,1.9c-1.2-1.3-4.2-3.9-6-5.1l1.8-1.9C210.7,482.2,213.8,484.7,215.2,486.1z
			"/>
		<path class="st1" d="M240,481.6c0,0.3,0,0.7,0,1.2h7.2l0,2.3c-1.4-0.1-3.7-0.1-7.2-0.1c0,1.3,0,2.7,0,3.8c0.6,0.9,0.8,2,0.8,3.2
			c0,3.2-1.7,7-7.4,8.6l-2-2c2.8-0.6,5-1.7,6.2-3.5c-0.5,0.2-1.1,0.4-1.7,0.4c-1.9,0-4-1.4-4-4.2c0-2.5,2-4.3,4.5-4.3
			c0.5,0,0.9,0,1.3,0.2c0-0.6,0-1.3,0-2c-3.6,0-7.6,0.2-10.6,0.4L227,483c2.7,0,7.2-0.2,10.6-0.2c0-0.5,0-0.9,0-1.2
			c-0.1-0.8-0.1-1.5-0.2-1.8h2.8C240.1,480.2,240,481.3,240,481.6z M236.3,493.2c1.2,0,2.2-1,1.9-3.2c-0.4-0.8-1.1-1.2-1.9-1.2
			c-1.1,0-2.2,0.8-2.2,2.3C234.1,492.4,235.2,493.2,236.3,493.2z"/>
		<path class="st1" d="M254.1,481.1c1.2,0,6.7-0.1,8-0.3c0.8-0.1,1.3-0.1,1.5-0.2l1.3,1.7c-0.5,0.3-1,0.6-1.5,1
			c-1.2,0.9-4.2,3.4-5.9,4.8c1-0.3,1.9-0.4,2.9-0.4c4,0,7,2.5,7,5.8c0,3.8-3,6.6-8.4,6.6c-3.3,0-5.5-1.5-5.5-3.6
			c0-1.8,1.6-3.4,4-3.4c3,0,4.7,1.9,5,4.2c1.7-0.7,2.5-2,2.5-3.8c0-2.3-2.2-3.9-5.2-3.9c-3.8,0-6.1,1.8-8.9,4.8l-1.8-1.8
			c1.9-1.5,4.9-4.1,6.3-5.2c1.3-1.1,4.1-3.4,5.3-4.5c-1.3,0-5.4,0.2-6.7,0.3c-0.6,0-1.2,0.1-1.8,0.1l-0.1-2.5
			C252.8,481.1,253.6,481.1,254.1,481.1z M258.6,498c0.6,0,1.2,0,1.7-0.1c-0.2-1.8-1.2-3-2.8-3c-1,0-1.8,0.6-1.8,1.4
			C255.7,497.4,256.9,498,258.6,498z"/>
	</g>
	<g class="st0">
		<path class="st2" d="M82.3,490.7c2.1,2.9,5.6,5.7,8.9,7.1c-0.5,0.5-1.2,1.3-1.6,1.9c-3-1.5-6.1-4.2-8.4-7.2v8.4h-2.4v-8.3
			c-2.3,3-5.4,5.5-8.4,7.1c-0.4-0.6-1.1-1.4-1.6-1.9c3.3-1.4,6.7-4.2,8.8-7.1h-8.1v-2.2h9.3v-3.6h-7.6v-2.2h7.6v-3.8h2.4v3.8h7.8
			v2.2h-7.8v3.6h9.4v2.2H82.3z"/>
		<path class="st2" d="M106.6,491.5c2.1,2.7,5.4,5.3,8.5,6.6c-0.5,0.5-1.2,1.3-1.6,1.9c-3-1.5-6.2-4.2-8.4-7.2v8.1h-2.4v-8
			c-2.3,3-5.4,5.6-8.4,7.1c-0.4-0.6-1.1-1.4-1.6-1.9c3.1-1.3,6.4-3.9,8.6-6.6h-8v-2.2h9.4v-5.6h-8.3v-2.1h8.3v-2.8h2.4v2.8h8.5v2.1
			h-8.5v5.6h9.4v2.2H106.6z M98.3,484c0.9,1.4,1.8,3.2,2.2,4.4l-2.1,0.8c-0.3-1.2-1.1-3.1-2-4.5L98.3,484z M107.6,488.6
			c0.8-1.3,1.7-3.2,2.3-4.7l2.3,0.7c-0.8,1.6-1.8,3.5-2.7,4.6L107.6,488.6z"/>
	</g>
</g>
</svg>
