<?xml version="1.0" encoding="utf-8"?>
<!-- Generator: Adobe Illustrator 26.0.1, SVG Export Plug-In . SVG Version: 6.00 Build 0)  -->
<svg version="1.1" id="レイヤー_1" xmlns="http://www.w3.org/2000/svg" xmlns:xlink="http://www.w3.org/1999/xlink" x="0px"
	 y="0px" viewBox="0 0 314 37" style="enable-background:new 0 0 314 37;" xml:space="preserve">
<style type="text/css">
	.st0{enable-background:new    ;}
	.st1{fill:none;stroke:#333333;}
	.st2{fill:#333333;}
</style>
<g class="st0">
	<path class="st1" d="M11.2,27.5c-0.5-0.6-1.4-1.5-2.3-2.4v5.7H6.7v-5.6c-1.1,1.6-2.4,3.1-3.6,4c-0.3-0.5-1-1.2-1.4-1.6
		c1.6-1.1,3.4-3.1,4.6-5h-4v-1.9h4.4v-2.2H2.2v-1.9h2.5c-0.1-0.9-0.4-2.1-0.8-3.1l1.6-0.4h-3v-1.8h4.2V9h2.2v2.3h4.2v1.8h-2.9
		l1.7,0.4c-0.5,1.1-0.9,2.3-1.3,3.1h2.8v1.9H8.9v2.2h4.2v1.9H8.9V23c0.9,0.6,3.1,2.4,3.6,2.9L11.2,27.5z M5.6,13.1
		c0.5,1,0.9,2.3,1,3.1l-1.4,0.4h5.3l-1.7-0.4c0.4-0.9,0.8-2.2,1.1-3.1H5.6z M24,18.9h-2.5v11.9h-2.2V18.9h-3.1v0.2
		c0,3.6-0.4,8.5-3.7,11.9c-0.3-0.5-1.1-1.2-1.6-1.5c2.9-3,3.2-7.1,3.2-10.4v-8.3l1.5,0.4c2.4-0.6,4.9-1.3,6.4-2.1l1.8,1.6
		c-2.1,0.9-4.9,1.7-7.5,2.2v3.9H24V18.9z"/>
</g>
<g class="st0">
	<path class="st1" d="M31.4,12.9c-0.1,2.7-0.3,8.2-0.3,11.5c0,2.5,1.6,3.4,3.6,3.4c4.2,0,6.7-2.4,8.4-4.9l1.7,2.1
		c-1.6,2.3-4.8,5.4-10.2,5.4c-3.6,0-6.1-1.6-6.1-5.5c0-3.4,0.2-9.6,0.2-11.9c0-1-0.1-2-0.3-2.8h3.1C31.5,11,31.4,12.1,31.4,12.9z"/>
	<path class="st1" d="M50.4,14.7c0,1.5,0,3.5,0.2,5.4c0.4,3.8,1.3,6.3,3,6.3c1.2,0,2.3-2.6,2.8-4.8l1.9,2.2c-1.5,4.1-3,5.5-4.8,5.5
		c-2.4,0-4.7-2.3-5.3-8.6c-0.2-2.1-0.3-5-0.3-6.4c0-0.6,0-1.6-0.2-2.3h2.9C50.5,12.8,50.4,14,50.4,14.7z M67.2,24.8l-2.5,1
		c-0.4-4.1-1.8-9.5-4.2-12.3l2.4-0.8C65.1,15.5,66.9,21,67.2,24.8z"/>
</g>
<g class="st0">
	<path class="st1" d="M92.8,14.3c0,0,0,0.7,0,1c-0.2,10.1-0.4,13.5-1,14.4c-0.4,0.6-0.8,0.8-1.5,0.9c-0.6,0.1-1.5,0.1-2.4,0
		c0-0.6-0.2-1.4-0.6-1.9c0.9,0,1.6,0.1,2,0.1c0.3,0,0.5-0.1,0.7-0.4c0.5-0.6,0.6-3.6,0.8-12.2H89v0.6c0,4.6-0.5,10.2-3.8,14.1
		c-0.4-0.4-1.1-0.9-1.6-1.2c0.1-0.1,0.3-0.3,0.4-0.5c-2.7,0.3-5.4,0.6-7.5,0.8l-0.3-1.9c1.1-0.1,2.4-0.2,3.9-0.3V26h-3.4v-1.7h3.4
		v-1.4h-3.3v-7h3.3v-1.3h-3.6v-1.7h3.6v-1.2c-1.1,0.1-2.2,0.2-3.2,0.3c-0.1-0.4-0.2-1-0.4-1.4c-0.4,1-0.7,2.1-1.2,3.1v16.9h-2V18
		c-0.6,1-1.2,1.9-1.8,2.6c-0.1-0.6-0.7-1.8-1-2.4c1.8-2.3,3.5-5.8,4.4-9.3l2,0.5c-0.1,0.4-0.2,0.8-0.4,1.2c2.7-0.3,6-0.6,7.9-1.1
		l1.2,1.6c-1.1,0.2-2.3,0.5-3.6,0.6v1.4h3.6v1.1H87V8.8h1.9v5.4h3.9V14.3z M78.4,19h2v-1.4h-2V19z M78.4,21.8h2v-1.5h-2V21.8z
		 M84,19v-1.4h-2.1V19H84z M84,21.8v-1.5h-2.1v1.5H84z M87.2,16.3h-1.5v-1.4h-3.6v1.3h3.5v7h-3.5v1.4h3.5v1.7h-3.5v1.6
		c1-0.1,2.1-0.2,3.1-0.3c1.7-3.4,1.9-7.4,1.9-10.7v-0.6H87.2z"/>
</g>
<g class="st0">
	<path class="st1" d="M103.9,9.9l2.6-0.3c0.1,0.9,0.3,1.8,0.5,2.7c1.7-0.2,3.3-0.6,4.8-1.1l0.3,2.2c-1.3,0.4-3,0.7-4.6,0.9
		c0.2,0.5,0.3,1,0.5,1.4c0.1,0.4,0.3,0.8,0.5,1.3c2-0.2,3.6-0.6,4.7-1l0.4,2.3c-1.2,0.3-2.6,0.6-4.2,0.8c0.5,0.9,1,1.8,1.5,2.6
		c0.3,0.4,0.6,0.8,1,1.1l-1.2,1.8c-1.3-0.3-3.7-0.6-5.4-0.7l0.2-1.8c1.2,0.1,2.6,0.3,3.3,0.3c-0.6-1-1.2-2-1.6-3
		c-2.9,0.2-6.8,0.2-10.5,0l-0.1-2.2c3.6,0.4,7,0.4,9.7,0.1c-0.1-0.4-0.3-0.7-0.4-1.1c-0.2-0.6-0.4-1.2-0.6-1.7
		c-2.3,0.1-5.2,0.1-8.2-0.2L97,12.1c2.9,0.3,5.5,0.4,7.7,0.3c0-0.1,0-0.1-0.1-0.2C104.5,11.6,104.2,10.7,103.9,9.9z M99.5,25.2
		c0,1.9,1.7,2.8,5.2,2.8c2.3,0,4.1-0.2,5.9-0.5l-0.1,2.4c-1.7,0.3-3.7,0.4-5.7,0.4c-4.8,0-7.5-1.4-7.6-4.7c0-1.4,0.5-2.5,1-3.6
		l2.4,0.5C100,23.3,99.5,24.2,99.5,25.2z"/>
</g>
<g class="st0">
	<path class="st1" d="M128.9,15c-0.1,1.2-0.2,2.4-0.3,3.6h9.4c0,0,0,0.7-0.1,1c-0.4,6.7-0.9,9.3-1.9,10.3c-0.6,0.7-1.3,0.8-2.3,0.9
		c-0.9,0.1-2.4,0-4.1,0c0-0.6-0.3-1.6-0.8-2.2c1.7,0.1,3.3,0.2,4,0.2c0.5,0,0.8,0,1.2-0.3c0.6-0.6,1.1-2.8,1.4-7.8h-7.3
		c-0.9,4.2-2.8,8-7.6,10.4c-0.3-0.6-1-1.4-1.6-1.8c6.5-3,7.2-8.9,7.4-14.2h-7.1V13h9.4V8.9h2.3V13h9.6v2.1L128.9,15L128.9,15z"/>
</g>
<g class="st0">
	<path class="st1" d="M152.4,12.5c2.4-0.1,4.9-0.3,7.1-0.7V14c-2.4,0.3-5.3,0.6-7.9,0.6c-0.5,1.1-1.2,2.3-1.8,3.2
		c0.8-0.5,2.1-0.7,3.1-0.7c1.5,0,2.8,0.7,3.2,2c1.5-0.7,2.7-1.2,3.8-1.7c0.8-0.4,1.5-0.7,2.3-1.1l1,2.2c-0.7,0.2-1.7,0.6-2.4,0.9
		c-1.2,0.5-2.8,1.1-4.5,1.9c0,1.4,0,3.3,0.1,4.4H154c0-0.8,0.1-2.2,0.1-3.4c-2.1,1.1-3.4,2.2-3.4,3.6c0,1.6,1.6,2,4,2
		c1.9,0,4.6-0.2,6.7-0.6l-0.1,2.4c-1.7,0.2-4.5,0.4-6.7,0.4c-3.6,0-6.4-0.8-6.4-3.8s2.9-4.8,5.7-6.2c-0.3-0.8-1.1-1.2-2-1.2
		c-1.5,0-3,0.8-4,1.7c-0.7,0.7-1.4,1.6-2.2,2.6l-2.1-1.5c2.8-2.6,4.4-5,5.4-7c-0.2,0-0.5,0-0.7,0c-1,0-2.7,0-4-0.1v-2.3
		c1.3,0.2,3,0.3,4.1,0.3c0.5,0,0.9,0,1.4,0c0.3-1,0.5-2,0.6-2.9l2.5,0.2C152.9,10.6,152.7,11.5,152.4,12.5z"/>
	<path class="st1" d="M167.5,17.4h15.7c0.5,0,1.4,0,2-0.1v2.5c-0.6,0-1.4,0-2,0H177c-0.1,2.5-0.6,4.7-1.5,6.4
		c-0.9,1.6-2.7,3.4-4.8,4.5l-2.2-1.6c1.8-0.7,3.5-2.1,4.4-3.6c1-1.6,1.3-3.5,1.4-5.7h-6.9c-0.7,0-1.5,0-2.2,0.1v-2.5
		C166,17.4,166.7,17.4,167.5,17.4z M170.5,11.4h8.1c0.7,0,1.7,0,2.4-0.1v2.5c-0.8,0-1.6-0.1-2.4-0.1h-8.1c-0.8,0-1.7,0-2.4,0.1v-2.5
		C168.9,11.3,169.7,11.4,170.5,11.4z M184.2,12.7l-1.6,0.7c-0.5-1-1.2-2.4-1.9-3.3l1.5-0.6C182.9,10.3,183.8,11.7,184.2,12.7z
		 M187,11.6l-1.6,0.7c-0.5-1-1.3-2.4-2-3.3l1.5-0.6C185.7,9.3,186.6,10.8,187,11.6z"/>
	<path class="st1" d="M196.6,30.7l-2-1.9c4.5-1.7,6.6-3.7,6.6-10.1v-1h-6.3v3.6c0,1,0.1,2,0.1,2.3h-2.7c0-0.3,0.1-1.3,0.1-2.3v-3.6
		H190c-1.1,0-2.1,0-2.5,0.1v-2.6c0.3,0,1.4,0.2,2.5,0.2h2.4v-2.8c0-0.6,0-1.3-0.1-1.9h2.7c0,0.3-0.1,1.1-0.1,1.9v2.8h6.3v-2.8
		c0-1-0.1-1.8-0.1-2.1h2.7c0,0.3-0.1,1.1-0.1,2.1v2.8h2.2c1.2,0,1.9-0.1,2.4-0.1v2.5c-0.4,0-1.2-0.1-2.4-0.1h-2.3v0.8
		C203.7,24.8,202.3,28.2,196.6,30.7z M207.2,13.8l-1.4,0.5c-0.4-1-0.8-2.4-1.3-3.3l1.4-0.4C206.3,11.4,206.9,12.9,207.2,13.8z
		 M209.7,13.1l-1.4,0.5c-0.4-1.1-0.9-2.4-1.3-3.3l1.4-0.4C208.7,10.7,209.3,12.1,209.7,13.1z"/>
	<path class="st1" d="M221.1,15.6c2.5-1.5,5-3.8,6.7-5.7l2,1.9c-1.8,1.8-4.1,3.7-6.5,5.3v10c0,1,0,2.3,0.2,2.8h-3
		c0.1-0.5,0.1-1.8,0.1-2.8v-8.4c-2.5,1.4-5.7,2.8-8.9,3.7l-1.2-2.4C214.8,18.9,218.4,17.3,221.1,15.6z"/>
	<path class="st1" d="M242,23.8c3.9-2.4,6.9-6,8.3-9l1.5,2.6c-1.7,3.1-4.7,6.4-8.4,8.7c-2.4,1.5-5.5,2.9-9.2,3.6l-1.6-2.5
		C236.6,26.6,239.7,25.2,242,23.8z M241.2,16.1l-1.9,1.9c-1.2-1.3-4.2-3.9-6-5.1l1.8-1.9C236.7,12.2,239.8,14.7,241.2,16.1z"/>
	<path class="st1" d="M266,11.6c0,0.3,0,0.7,0,1.2h7.2v2.3c-1.4-0.1-3.7-0.1-7.2-0.1c0,1.3,0,2.7,0,3.8c0.6,0.9,0.8,2,0.8,3.2
		c0,3.2-1.7,7-7.4,8.6l-2-2c2.8-0.6,5-1.7,6.2-3.5c-0.5,0.2-1.1,0.4-1.7,0.4c-1.9,0-4-1.4-4-4.2c0-2.5,2-4.3,4.5-4.3
		c0.5,0,0.9,0,1.3,0.2c0-0.6,0-1.3,0-2c-3.6,0-7.6,0.2-10.6,0.4l-0.1-2.3c2.7,0,7.2-0.2,10.6-0.2c0-0.5,0-0.9,0-1.2
		c-0.1-0.8-0.1-1.5-0.2-1.8h2.8C266.1,10.2,266,11.3,266,11.6z M262.3,23.2c1.2,0,2.2-1,1.9-3.2c-0.4-0.8-1.1-1.2-1.9-1.2
		c-1.1,0-2.2,0.8-2.2,2.3C260.1,22.4,261.2,23.2,262.3,23.2z"/>
	<path class="st1" d="M280.1,11.1c1.2,0,6.7-0.1,8-0.3c0.8-0.1,1.3-0.1,1.5-0.2l1.3,1.7c-0.5,0.3-1,0.6-1.5,1
		c-1.2,0.9-4.2,3.4-5.9,4.8c1-0.3,1.9-0.4,2.9-0.4c4,0,7,2.5,7,5.8c0,3.8-3,6.6-8.4,6.6c-3.3,0-5.5-1.5-5.5-3.6c0-1.8,1.6-3.4,4-3.4
		c3,0,4.7,1.9,5,4.2c1.7-0.7,2.5-2,2.5-3.8c0-2.3-2.2-3.9-5.2-3.9c-3.8,0-6.1,1.8-8.9,4.8l-1.8-1.8c1.9-1.5,4.9-4.1,6.3-5.2
		c1.3-1.1,4.1-3.4,5.3-4.5c-1.3,0-5.4,0.2-6.7,0.3c-0.6,0-1.2,0.1-1.8,0.1l-0.1-2.5C278.8,11.1,279.6,11.1,280.1,11.1z M284.6,28
		c0.6,0,1.2,0,1.7-0.1c-0.2-1.8-1.2-3-2.8-3c-1,0-1.8,0.6-1.8,1.4C281.7,27.4,282.9,28,284.6,28z"/>
</g>
<g class="st0">
	<path class="st2" d="M11.2,27.5c-0.5-0.6-1.4-1.5-2.3-2.4v5.7H6.7v-5.6c-1.1,1.6-2.4,3.1-3.6,4c-0.3-0.5-1-1.2-1.4-1.6
		c1.6-1.1,3.4-3.1,4.6-5h-4v-1.9h4.4v-2.2H2.2v-1.9h2.5c-0.1-0.9-0.4-2.1-0.8-3.1l1.6-0.4h-3v-1.8h4.2V9h2.2v2.3h4.2v1.8h-2.9
		l1.7,0.4c-0.5,1.1-0.9,2.3-1.3,3.1h2.8v1.9H8.9v2.2h4.2v1.9H8.9V23c0.9,0.6,3.1,2.4,3.6,2.9L11.2,27.5z M5.6,13.1
		c0.5,1,0.9,2.3,1,3.1l-1.4,0.4h5.3l-1.7-0.4c0.4-0.9,0.8-2.2,1.1-3.1H5.6z M24,18.9h-2.5v11.9h-2.2V18.9h-3.1v0.2
		c0,3.6-0.4,8.5-3.7,11.9c-0.3-0.5-1.1-1.2-1.6-1.5c2.9-3,3.2-7.1,3.2-10.4v-8.3l1.5,0.4c2.4-0.6,4.9-1.3,6.4-2.1l1.8,1.6
		c-2.1,0.9-4.9,1.7-7.5,2.2v3.9H24V18.9z"/>
</g>
<g class="st0">
	<path class="st2" d="M31.4,12.9c-0.1,2.7-0.3,8.2-0.3,11.5c0,2.5,1.6,3.4,3.6,3.4c4.2,0,6.7-2.4,8.4-4.9l1.7,2.1
		c-1.6,2.3-4.8,5.4-10.2,5.4c-3.6,0-6.1-1.6-6.1-5.5c0-3.4,0.2-9.6,0.2-11.9c0-1-0.1-2-0.3-2.8h3.1C31.5,11,31.4,12.1,31.4,12.9z"/>
	<path class="st2" d="M50.4,14.7c0,1.5,0,3.5,0.2,5.4c0.4,3.8,1.3,6.3,3,6.3c1.2,0,2.3-2.6,2.8-4.8l1.9,2.2c-1.5,4.1-3,5.5-4.8,5.5
		c-2.4,0-4.7-2.3-5.3-8.6c-0.2-2.1-0.3-5-0.3-6.4c0-0.6,0-1.6-0.2-2.3h2.9C50.5,12.8,50.4,14,50.4,14.7z M67.2,24.8l-2.5,1
		c-0.4-4.1-1.8-9.5-4.2-12.3l2.4-0.8C65.1,15.5,66.9,21,67.2,24.8z"/>
</g>
<g class="st0">
	<path class="st2" d="M92.8,14.3c0,0,0,0.7,0,1c-0.2,10.1-0.4,13.5-1,14.4c-0.4,0.6-0.8,0.8-1.5,0.9c-0.6,0.1-1.5,0.1-2.4,0
		c0-0.6-0.2-1.4-0.6-1.9c0.9,0,1.6,0.1,2,0.1c0.3,0,0.5-0.1,0.7-0.4c0.5-0.6,0.6-3.6,0.8-12.2H89v0.6c0,4.6-0.5,10.2-3.8,14.1
		c-0.4-0.4-1.1-0.9-1.6-1.2c0.1-0.1,0.3-0.3,0.4-0.5c-2.7,0.3-5.4,0.6-7.5,0.8l-0.3-1.9c1.1-0.1,2.4-0.2,3.9-0.3V26h-3.4v-1.7h3.4
		v-1.4h-3.3v-7h3.3v-1.3h-3.6v-1.7h3.6v-1.2c-1.1,0.1-2.2,0.2-3.2,0.3c-0.1-0.4-0.2-1-0.4-1.4c-0.4,1-0.7,2.1-1.2,3.1v16.9h-2V18
		c-0.6,1-1.2,1.9-1.8,2.6c-0.1-0.6-0.7-1.8-1-2.4c1.8-2.3,3.5-5.8,4.4-9.3l2,0.5c-0.1,0.4-0.2,0.8-0.4,1.2c2.7-0.3,6-0.6,7.9-1.1
		l1.2,1.6c-1.1,0.2-2.3,0.5-3.6,0.6v1.4h3.6v1.1H87V8.8h1.9v5.4h3.9V14.3z M78.4,19h2v-1.4h-2V19z M78.4,21.8h2v-1.5h-2V21.8z
		 M84,19v-1.4h-2.1V19H84z M84,21.8v-1.5h-2.1v1.5H84z M87.2,16.3h-1.5v-1.4h-3.6v1.3h3.5v7h-3.5v1.4h3.5v1.7h-3.5v1.6
		c1-0.1,2.1-0.2,3.1-0.3c1.7-3.4,1.9-7.4,1.9-10.7v-0.6H87.2z"/>
</g>
<g class="st0">
	<path class="st2" d="M103.9,9.9l2.6-0.3c0.1,0.9,0.3,1.8,0.5,2.7c1.7-0.2,3.3-0.6,4.8-1.1l0.3,2.2c-1.3,0.4-3,0.7-4.6,0.9
		c0.2,0.5,0.3,1,0.5,1.4c0.1,0.4,0.3,0.8,0.5,1.3c2-0.2,3.6-0.6,4.7-1l0.4,2.3c-1.2,0.3-2.6,0.6-4.2,0.8c0.5,0.9,1,1.8,1.5,2.6
		c0.3,0.4,0.6,0.8,1,1.1l-1.2,1.8c-1.3-0.3-3.7-0.6-5.4-0.7l0.2-1.8c1.2,0.1,2.6,0.3,3.3,0.3c-0.6-1-1.2-2-1.6-3
		c-2.9,0.2-6.8,0.2-10.5,0l-0.1-2.2c3.6,0.4,7,0.4,9.7,0.1c-0.1-0.4-0.3-0.7-0.4-1.1c-0.2-0.6-0.4-1.2-0.6-1.7
		c-2.3,0.1-5.2,0.1-8.2-0.2L97,12.1c2.9,0.3,5.5,0.4,7.7,0.3c0-0.1,0-0.1-0.1-0.2C104.5,11.6,104.2,10.7,103.9,9.9z M99.5,25.2
		c0,1.9,1.7,2.8,5.2,2.8c2.3,0,4.1-0.2,5.9-0.5l-0.1,2.4c-1.7,0.3-3.7,0.4-5.7,0.4c-4.8,0-7.5-1.4-7.6-4.7c0-1.4,0.5-2.5,1-3.6
		l2.4,0.5C100,23.3,99.5,24.2,99.5,25.2z"/>
</g>
<g class="st0">
	<path class="st2" d="M128.9,15c-0.1,1.2-0.2,2.4-0.3,3.6h9.4c0,0,0,0.7-0.1,1c-0.4,6.7-0.9,9.3-1.9,10.3c-0.6,0.7-1.3,0.8-2.3,0.9
		c-0.9,0.1-2.4,0-4.1,0c0-0.6-0.3-1.6-0.8-2.2c1.7,0.1,3.3,0.2,4,0.2c0.5,0,0.8,0,1.2-0.3c0.6-0.6,1.1-2.8,1.4-7.8h-7.3
		c-0.9,4.2-2.8,8-7.6,10.4c-0.3-0.6-1-1.4-1.6-1.8c6.5-3,7.2-8.9,7.4-14.2h-7.1V13h9.4V8.9h2.3V13h9.6v2.1L128.9,15L128.9,15z"/>
</g>
</svg>
